<?xml version="1.0" encoding="utf-8"?>
<!-- Generator: Adobe Illustrator 20.1.0, SVG Export Plug-In . SVG Version: 6.00 Build 0)  -->
<svg version="1.1" xmlns="http://www.w3.org/2000/svg" xmlns:xlink="http://www.w3.org/1999/xlink" x="0px" y="0px"
	 viewBox="0 0 1280 750" style="enable-background:new 0 0 1280 750;" xml:space="preserve">
<style type="text/css">
	.st0{fill:#BFC8D7;}
	.st1{fill:#89A3BC;}
	.st2{fill:#DFDFDF;}
	.st3{fill:#707680;}
	.st4{fill:#989FAC;}
	.st5{fill:#5E646D;}
	.st6{fill:#181816;}
	.st7{fill:#FFFDE7;}
	.st8{fill:#CECBB9;}
	.st9{fill:#605F57;}
	.st10{fill:#B5B6B7;}
	.st11{fill:#706C63;}
	.st12{fill:#ADA98B;}
	.st13{fill:#5B5B5C;}
	.st14{fill:#B5A480;}
	.st15{fill:#F5E2BB;}
	.st16{fill:#797A7D;}
	.st17{fill:#777777;}
	.st18{fill:#4F4F50;}
	.st19{fill:#231F20;}
	.st20{fill:#322E2F;}
	.st21{fill:#E2E2E2;}
	.st22{fill:#BBBBBB;}
	.st23{fill:#353535;}
	.st24{fill:#202020;}
	.st25{fill:#F9F9F9;}
	.st26{fill:#E8E9EA;}
	.st27{fill:#FFFFFF;stroke:#000000;stroke-miterlimit:10;}
	.st28{fill:#474B50;}
	.st29{fill:#35383C;}
	.st30{fill:#242628;}
	.st31{fill:#BFBEAD;}
	.st32{fill:#D3D3D4;}
	.st33{fill:none;stroke:#000000;stroke-width:0.8502;stroke-miterlimit:10;}
	.st34{fill:#6C6F73;}
	.st35{fill:#121314;}
	.st36{fill:#C1C1C1;}
	.st37{fill:#DADADA;}
	.st38{fill:#90CAF9;}
	.st39{fill:#6C98BB;}
	.st40{fill:#404042;}
	.st41{fill:#303032;}
	.st42{fill:#FF6E40;}
	.st43{font-family:'alarmclock';}
	.st44{font-size:27.773px;}
	.st45{fill:#5E5E5E;}
</style>
<g id="REF">
</g>
<g id="Layer_2">
	<rect id="BKGD" class="st0" width="1280" height="751"/>
	<path class="st2" d="M1207.4,458.9c0.2-11.7-9.1-21.4-20.9-21.6c-11.7-0.2-21.4,9.1-21.6,20.9L1207.4,458.9z"/>
	<path class="st3" d="M1170.4,458l-75.6-1.8c-4.5,0-8.2-3.7-8.2-8.2v-22.7c0-4.5,3.7-8.2,8.2-8.2l75.6,1.8c4.5,0,8.2,3.7,8.2,8.2
		v22.7C1178.6,454.3,1174.9,458,1170.4,458z"/>
	<path class="st4" d="M1172.4,458l-75.6-1.8c-4.5,0-8.2-3.7-8.2-8.2v-22.7c0-4.5,3.7-8.2,8.2-8.2l75.6,1.8c4.5,0,8.2,3.7,8.2,8.2
		v22.7C1180.6,454.3,1176.9,458,1172.4,458z"/>
	<polygon class="st5" points="968.7,458.8 1088.2,456 1296.6,461.5 1296.6,464 967.6,464 	"/>
	<polygon class="st6" points="1295.1,808.7 1077.3,808.7 1077.3,465.7 1295.1,468 	"/>
	<polygon class="st7" points="1295.1,707.3 1086,707.3 1088.2,521.1 1296.6,522.2 	"/>
	<polygon class="st8" points="1296.2,602.5 1295.1,707.3 1186.2,707.3 	"/>
	<polygon class="st9" points="1086,765.2 1079.4,766.5 1085.8,521.1 1088.2,521.1 	"/>
	<rect x="282.7" y="626.3" class="st10" width="34.3" height="194.3"/>
	<rect x="171.7" y="470.4" class="st11" width="11.5" height="338.2"/>
	<polygon class="st12" points="970.7,735 1077.7,802.7 1085.2,467.5 967.6,467.5 	"/>
	<rect x="958.8" y="639.5" class="st10" width="34.3" height="88.8"/>
	<g>
		<polygon class="st13" points="317.1,659.2 282.7,655.7 282.7,650.9 317.1,650.9 		"/>
		<polygon class="st13" points="993.1,662.2 958.8,653.8 958.8,650.9 993.1,650.9 		"/>
		<rect x="170.1" y="636.3" class="st14" width="947.3" height="15.4"/>
		<polygon class="st15" points="170.1,636.8 347.2,568 940.1,568 1117.4,637.1 		"/>
	</g>
	<ellipse class="st16" cx="651.7" cy="585" rx="42" ry="4.8"/>
	<polygon class="st12" points="1089,467.9 1022,468 1022,460 1089,458.5 	"/>
	<g>
		<path class="st17" d="M772.4,526.7h-232c-2.2,0-4-1.8-4-4V380.3c0-2.2,1.8-4,4-4h232c2.2,0,4,1.8,4,4v142.3
			C776.4,524.9,774.6,526.7,772.4,526.7z"/>
		<path class="st18" d="M776.4,444.5v78.2c0,2.2-1.8,4-4,4h-232c-2.2,0-4-1.8-4-4v-78.2H776.4z"/>
		<rect x="545.7" y="383.3" class="st19" width="222.3" height="127"/>
		<polygon class="st20" points="545.7,383.3 545.7,510.2 672.7,383.3 		"/>
	</g>
	<rect x="644.1" y="526.7" class="st18" width="15" height="23.3"/>
	<g>
		<path class="st21" d="M622.8,550c-4.8,0-8.5,7.7-8.5,17.3s4,17.7,8.7,17.7h50.6c6.6,0,11.4-6.2,11.4-12.9v-10.6
			c0-6.6-4.7-11.6-11.3-11.6L622.8,550z"/>
		<path class="st22" d="M674,550l-22,0v35h21.6c6.6,0,11.4-6.2,11.4-12.9v-10.6C685,554.9,680.6,550,674,550z"/>
		<circle class="st23" cx="651.6" cy="567" r="13.2"/>
		<path class="st24" d="M651.6,580.2c7.3,0,13.2-5.9,13.2-13.2s-5.9-13.2-13.2-13.2V580.2z"/>
		<circle class="st25" cx="651.6" cy="567" r="3.6"/>
		<path class="st26" d="M651.6,570.6c2,0,3.6-1.6,3.6-3.6s-1.6-3.6-3.6-3.6V570.6z"/>
	</g>
	<polygon class="st28" points="893.9,724 804.7,669.2 892.7,669 997.7,723.5 	"/>
	<polygon class="st29" points="856.1,700.4 804.7,669.2 892.7,669 931.8,689.3 	"/>
	<polygon class="st9" points="1091.1,518.2 1086.2,518.2 1086.7,470.9 1090.8,470.9 	"/>
	<polygon class="st30" points="804.7,669.2 803.1,751 895,750 895,723.9 	"/>
	<polygon class="st7" points="1296.4,519.3 1088.2,518.2 1088.2,470.9 1296.4,476.1 	"/>
	<polyline class="st31" points="1295.1,709.2 1295.1,718.6 1086,718.4 1086,709.2 	"/>
	<rect x="1086" y="720.8" class="st7" width="209.1" height="44.5"/>
	<polygon class="st7" points="1296.6,472.8 1088.6,467.9 1088.6,458.5 1296.6,464 	"/>
	<path class="st32" d="M1220.1,489.8l-50.1-0.9c-5-0.1-9-4.1-9-9.1l0-7l68.4,1.7v6.2C1229.4,485.8,1225.2,489.9,1220.1,489.8z"/>
	
		<ellipse transform="matrix(0.1031 -0.9947 0.9947 0.1031 374.3481 1588.9303)" class="st27" cx="1068.2" cy="586.9" rx="11" ry="11"/>
	<circle class="st27" cx="1038.9" cy="587.9" r="11"/>
	
		<rect x="1068.3" y="571.5" transform="matrix(0.9947 0.1031 -0.1031 0.9947 65.0771 -107.2678)" class="st27" width="3.8" height="8.8"/>
	
		<rect x="1038.5" y="569.2" transform="matrix(0.9947 0.1031 -0.1031 0.9947 64.682 -104.2074)" class="st27" width="3.8" height="8.8"/>
	<path class="st27" d="M1068.8,571.3c0,0,5.2-25.8-12-25.8s-14,23.9-14,23.9l-3.8-0.4c0,0-4.9-30.4,17.7-30.4s15.9,33.1,15.9,33.1
		L1068.8,571.3z"/>
	<path class="st33" d="M86.1,434.7c0,0-7,21,74.3,21"/>
	<path class="st33" d="M90.4,436c0,0,18.3,17.3,70,17.3"/>
	<rect x="644.1" y="526.7" class="st19" width="15" height="1.5"/>
	<g>
		<path class="st17" d="M1031.1,526.7h-246c-2.2,0-4-1.8-4-4V380.3c0-2.2,1.8-4,4-4l246-8.9c2.2,0,4,1.8,4,4v151.2
			C1035.1,524.9,1033.3,526.7,1031.1,526.7z"/>
		<path class="st18" d="M1035.1,444.5v81.4c0,2.2-1.9,4-4.2,4l-245.5-3.2c-2.3,0-4.2-1.8-4.2-4v-78.2H1035.1z"/>
		<polygon class="st19" points="1026.3,512.5 792.4,510.3 792.4,383.3 1026.3,376.3 		"/>
		<polygon class="st20" points="792.4,383.3 792.4,510.2 925.9,383.3 		"/>
	</g>
	<g>
		<path class="st17" d="M281.8,526.5h246c2.2,0,4-1.8,4-4V380.1c0-2.2-1.8-4-4-4l-246-8.9c-2.2,0-4,1.8-4,4v151.2
			C277.7,524.7,279.5,526.5,281.8,526.5z"/>
		<path class="st18" d="M277.7,444.3v81.4c0,2.2,1.9,4,4.2,4l245.5-3.2c2.3,0,4.2-1.8,4.2-4v-78.2H277.7z"/>
		<polygon class="st19" points="287.8,513.8 521.7,512 521.7,381.8 287.8,374.8 		"/>
		<polygon class="st20" points="287.8,374.8 287.8,510.1 421.3,378.8 		"/>
	</g>
	<path class="st11" d="M172.1,451h-11.9c-0.4,0-0.7,0.3-0.7,0.7v9.6c0,0.4,0.3,0.7,0.7,0.7h11c0.4,0,0.7,0.3,0.7,0.7v8.6
		c0,0.4,0.3,0.7,0.7,0.7h10c0.4,0,0.7-0.3,0.7-0.7v-9.8v-9.8c0-0.4-0.3-0.7-0.7-0.7H172.1z"/>
	<g>
		<path class="st17" d="M-13.7,436.6h174.6c1.6,0,2.9-1.5,2.9-3.4V312.8c0-1.9-1.3-3.4-2.9-3.4L-13.7,285c-1.6,0-2.9,1.5-2.9,3.4
			v144.9C-16.6,435.1-15.3,436.6-13.7,436.6z"/>
		<path class="st18" d="M-16.6,367.1V436c0,1.9,1.3,3.4,3,3.4l174.3-2.7c1.7,0,3-1.5,3-3.4v-66.2H-16.6z"/>
		<polygon class="st19" points="-9.5,425.9 156.6,425.9 156.6,314.2 -9.5,291.4 		"/>
		<polygon class="st20" points="-9.5,291.4 -9.5,422.7 42.6,298.6 		"/>
	</g>
	<rect x="776.4" y="438.5" class="st19" width="4.7" height="12.2"/>
	<rect x="531.7" y="438.5" class="st19" width="4.7" height="12.2"/>
	<path class="st24" d="M624.3,577.8L624.3,577.8c-1.2,0-2.2-1-2.2-2.2v-16.8c0-1.2,1-2.2,2.2-2.2l0,0c1.2,0,2.2,1,2.2,2.2v16.8
		C626.6,576.7,625.6,577.8,624.3,577.8z"/>
	<path class="st24" d="M676.7,577.8L676.7,577.8c-1.2,0-2.2-1-2.2-2.2v-16.8c0-1.2,1-2.2,2.2-2.2l0,0c1.2,0,2.2,1,2.2,2.2v16.8
		C679,576.7,678,577.8,676.7,577.8z"/>
	<rect x="893.9" y="723.5" class="st34" width="103.8" height="120.2"/>
	<circle class="st35" cx="918.1" cy="737.3" r="4.3"/>
	<polygon class="st36" points="880,728.4 818.9,689.3 816.7,750 880,750 	"/>
	<polygon class="st37" points="844.7,705.9 818.9,689.3 816.7,750 844.7,728.4 	"/>
	<g>
		<circle class="st38" cx="154.7" cy="431.5" r="1.5"/>
		<path class="st39" d="M154.7,433c0.9,0,1.5-0.7,1.5-1.5s-0.7-1.5-1.5-1.5V433z"/>
	</g>
	<g>
		<circle class="st38" cx="519" cy="518.3" r="2.8"/>
		<path class="st39" d="M519,521.1c1.5,0,2.8-1.2,2.8-2.8c0-1.5-1.2-2.8-2.8-2.8V521.1z"/>
	</g>
	<g>
		<circle class="st38" cx="765.3" cy="518.3" r="2.8"/>
		<path class="st39" d="M765.3,521.1c1.5,0,2.8-1.2,2.8-2.8c0-1.5-1.2-2.8-2.8-2.8V521.1z"/>
	</g>
	<g>
		<circle class="st38" cx="1023.6" cy="521.1" r="2.8"/>
		<path class="st39" d="M1023.6,523.8c1.5,0,2.8-1.2,2.8-2.8c0-1.5-1.2-2.8-2.8-2.8V523.8z"/>
	</g>
	<path class="st40" d="M1219.3,486.1l-49-1.1c-2.4-0.1-4.4-2.1-4.3-4.5l0-0.8c0.1-2.4,2.1-4.4,4.5-4.3l49,1.1
		c2.4,0.1,4.4,2.1,4.3,4.5l0,0.8C1223.8,484.2,1221.8,486.1,1219.3,486.1z"/>
	<path class="st41" d="M1195.9,485.5l23.6,0.5c2.4,0.1,4.4-1.9,4.4-4.3l0-0.8c0.1-2.4-1.8-4.5-4.2-4.5l-23.8-0.5L1195.9,485.5z"/>
	<g>
		<path class="st32" d="M1218,537l-50.1-0.1c-5-0.1-9-4.1-9-9.1v-6.3l68.4,0.4v6.8C1227.3,533.8,1223.1,537.1,1218,537z"/>
		<path class="st40" d="M1217.5,534l-49-0.6c-2.4,0-4.4-2.1-4.4-4.5l0-0.8c0-2.4,2.1-4.4,4.5-4.4l49,0.3c2.4,0,4.4,2.1,4.4,4.5
			l0,1.2C1222,532.1,1220,534.1,1217.5,534z"/>
		<path class="st41" d="M1193.1,533.7l24.4,0.3c2.4,0,4.5-1.9,4.5-4.4l0-1.2c0-2.4-1.9-4.5-4.4-4.5l-24.6-0.1L1193.1,533.7z"/>
	</g>
	<g>
		<path class="st32" d="M1219.8,736.1l-50.1-0.1c-5-0.1-9-4.1-9-9.1v-6.3l68.4,0.4v6.8C1229.1,732.9,1224.9,736.2,1219.8,736.1z"/>
		<path class="st40" d="M1219.4,733.2l-49-0.6c-2.4,0-4.4-2.1-4.4-4.5l0-0.8c0-2.4,2.1-4.4,4.5-4.4l49,0.3c2.4,0,4.4,2.1,4.4,4.5
			l0,1.2C1223.9,731.2,1221.8,733.2,1219.4,733.2z"/>
		<path class="st41" d="M1195,732.8l24.4,0.3c2.4,0,4.5-1.9,4.5-4.4l0-1.2c0-2.4-1.9-4.5-4.4-4.5L1195,723L1195,732.8z"/>
	</g>
	<path class="st19" d="M1167.4,453.8l-65.5-1.8c-4.5,0-8.2-3.7-8.2-8.2v-14.2c0-4.5,3.7-8.2,8.2-8.2l65.5,1.8c4.5,0,8.2,3.7,8.2,8.2
		v14.2C1175.6,450.1,1171.9,453.8,1167.4,453.8z"/>
	<text transform="matrix(0.9996 2.788000e-02 -2.788000e-02 0.9996 1096.3662 446.0158)" class="st42 st43 st44">12:00</text>
	<g>
		<polygon class="st21" points="706.2,622.7 596.9,622.7 604.3,599.8 698.9,599.8 		"/>
		<rect x="596.9" y="622.7" class="st22" width="109.3" height="3.8"/>
	</g>
	<rect x="616.6" y="618.7" class="st23" width="65.8" height="2.2"/>
	<g>
		<polygon class="st23" points="700.1,613 693.6,613 692.6,610.9 699.1,610.9 		"/>
		<g>
			<polygon class="st23" points="608.1,617 604.6,617 605.5,615 609,615 			"/>
			<polygon class="st23" points="615.6,617 612.1,617 612.8,615 616.3,615 			"/>
			<polygon class="st23" points="623.1,617 619.5,617 620.1,615 623.6,615 			"/>
			<polygon class="st23" points="630.5,617 627,617 627.4,615 631,615 			"/>
			<polygon class="st23" points="638,617 634.5,617 634.7,615 638.3,615 			"/>
			<polygon class="st23" points="645.4,617 641.9,617 642.1,615 645.6,615 			"/>
			<rect x="649" y="615" class="st23" width="4" height="2"/>
			<polygon class="st23" points="656.9,617 656.7,615 660.2,615 660.4,617 			"/>
			<polygon class="st23" points="664.3,617 664.1,615 667.6,615 667.9,617 			"/>
			<polygon class="st23" points="671.8,617 671.4,615 674.9,615 675.3,617 			"/>
			<polygon class="st23" points="679.3,617 678.7,615 682.2,615 682.8,617 			"/>
			<polygon class="st23" points="686.8,617 686.1,615 689.6,615 690.3,617 			"/>
			<polygon class="st23" points="694.3,617 697.8,617 696.9,615 693.4,615 			"/>
		</g>
		<g>
			<polygon class="st23" points="609.5,613 606.3,613 607.1,611 610.3,611 			"/>
			<polygon class="st23" points="616.4,613 613.1,613 613.8,611 617.1,611 			"/>
			<polygon class="st23" points="623.3,613 620,613 620.6,611 623.8,611 			"/>
			<polygon class="st23" points="630.1,613 626.9,613 627.3,611 630.5,611 			"/>
			<polygon class="st23" points="637,613 633.8,613 634,611 637.3,611 			"/>
			<polygon class="st23" points="643.9,613 640.6,613 640.8,611 644,611 			"/>
			<rect x="648" y="611" class="st23" width="3" height="2"/>
			<polygon class="st23" points="654.4,613 654.3,611 657.5,611 657.7,613 			"/>
			<polygon class="st23" points="661.3,613 661,611 664.3,611 664.6,613 			"/>
			<polygon class="st23" points="668.2,613 667.8,611 671,611 671.5,613 			"/>
			<polygon class="st23" points="675.1,613 674.6,611 677.8,611 678.3,613 			"/>
			<polygon class="st23" points="682,613 681.3,611 684.6,611 685.2,613 			"/>
			<polygon class="st23" points="688.9,613 692.1,613 691.3,611 688.1,611 			"/>
		</g>
		<g>
			<polygon class="st23" points="612.3,609 609.3,609 610,607 613.1,607 			"/>
			<polygon class="st23" points="618.7,609 615.7,609 616.3,607 619.3,607 			"/>
			<polygon class="st23" points="625.1,609 622.1,609 622.6,607 625.6,607 			"/>
			<polygon class="st23" points="631.5,609 628.5,609 628.8,607 631.9,607 			"/>
			<polygon class="st23" points="637.9,609 634.9,609 635.1,607 638.1,607 			"/>
			<polygon class="st23" points="644.3,609 641.2,609 641.4,607 644.4,607 			"/>
			<rect x="648" y="607" class="st23" width="3" height="2"/>
			<polygon class="st23" points="654.1,609 653.9,607 656.9,607 657.1,609 			"/>
			<polygon class="st23" points="660.5,609 660.2,607 663.2,607 663.5,609 			"/>
			<polygon class="st23" points="666.9,609 666.5,607 669.5,607 669.9,609 			"/>
			<polygon class="st23" points="673.3,609 672.8,607 675.8,607 676.3,609 			"/>
			<polygon class="st23" points="679.7,609 679.1,607 682.1,607 682.7,609 			"/>
			<polygon class="st23" points="686.1,609 689.1,609 688.4,607 685.3,607 			"/>
		</g>
		<g>
			<polygon class="st23" points="610.9,605 607.7,605 608.5,603 611.6,603 			"/>
			<polygon class="st23" points="617.5,605 614.4,605 615,603 618.1,603 			"/>
			<polygon class="st23" points="624.1,605 621,605 621.5,603 624.7,603 			"/>
			<polygon class="st23" points="630.8,605 627.7,605 628,603 631.2,603 			"/>
			<polygon class="st23" points="637.4,605 634.3,605 634.6,603 637.7,603 			"/>
			<polygon class="st23" points="644.1,605 640.9,605 641.1,603 644.2,603 			"/>
			<rect x="648" y="603" class="st23" width="3" height="2"/>
			<polygon class="st23" points="654.2,605 654.1,603 657.2,603 657.4,605 			"/>
			<polygon class="st23" points="660.9,605 660.6,603 663.8,603 664,605 			"/>
			<polygon class="st23" points="667.6,605 667.2,603 670.3,603 670.7,605 			"/>
			<polygon class="st23" points="674.2,605 673.7,603 676.8,603 677.4,605 			"/>
			<polygon class="st23" points="680.9,605 680.2,603 683.4,603 684,605 			"/>
			<polygon class="st23" points="687.5,605 690.7,605 689.9,603 686.8,603 			"/>
		</g>
	</g>
	<path class="st2" d="M719.2,613.1L719.2,613.1c-0.2,0.1-0.4,0.1-0.4,0l-1.2-1.5c-0.1-0.1,0-0.3,0.2-0.4l0,0c0.2-0.1,0.3-0.1,0.4,0
		l1.2,1.5C719.4,612.9,719.3,613,719.2,613.1z"/>
	<path class="st45" d="M720.5,622.3L720.5,622.3c-2.7,0.4-5.2-1.1-5.6-3.4l-1.5-3.8c-1.2-2.4-0.2-4.2,2.5-4.7l2.9,2.6l0.6-0.1
		l-2-2.9c2.7-0.4,4.6,1.2,5.8,3.5l1.5,3.8C725.1,619.6,723.2,621.8,720.5,622.3z"/>
	<path class="st22" d="M720.8,622L720.8,622c-2.7,0.4-5.2-1.1-5.6-3.4l-1.5-3.8c-1.2-2.4-0.2-4.2,2.5-4.7l2.5,2.8l0.7-0.1l-2-2.9
		c2.7-0.4,4.8,1,6.1,3.3l1.5,3.8C725.5,619.4,723.6,621.6,720.8,622z"/>
	<rect x="1183.2" y="334.5" class="st45" width="3.3" height="102.8"/>
	
		<rect x="1166.9" y="321.5" transform="matrix(-1.836970e-16 1 -1 -1.836970e-16 1504.6952 -832.3955)" class="st45" width="3.3" height="29.4"/>
	<path class="st2" d="M1130.6,368.2l12.2,6.4c5.8,3.1,12.5,2,14.8-2.4l2.1-28.6c2-3.8,1.7-7.9-0.6-9.1l-4.8-2.5
		c-2.3-1.2-5.8,0.9-7.8,4.7l-22.3,18C1121.8,359.1,1124.7,365.2,1130.6,368.2z"/>
</g>
</svg>
