<?xml version="1.0" encoding="utf-8"?>
<!-- Generator: Adobe Illustrator 20.1.0, SVG Export Plug-In . SVG Version: 6.00 Build 0)  -->
<svg version="1.1" id="Layer_1" xmlns="http://www.w3.org/2000/svg" xmlns:xlink="http://www.w3.org/1999/xlink" x="0px" y="0px"
	 viewBox="0 0 1920 894" style="enable-background:new 0 0 1920 894;" xml:space="preserve">
<style type="text/css">
	.st0{fill:#243038;}
	.st1{fill:#FFEB78;}
	.st2{fill:#F8F4D7;}
	.st3{opacity:0.2;fill:#455C60;enable-background:new    ;}
	.st4{fill:#5E646D;}
	.st5{fill:#181816;}
	.st6{fill:#CECBB9;}
	.st7{fill:#9B988B;}
	.st8{fill:#605F57;}
	.st9{fill:#888989;}
	.st10{fill:#706C63;}
	.st11{fill:#827F68;}
	.st12{fill:#625F4E;}
	.st13{fill:#2E2E2E;}
	.st14{fill:#5B5240;}
	.st15{fill:#B8AA8C;}
	.st16{opacity:0.6;fill:#797A7D;enable-background:new    ;}
	.st17{fill:#ADA98B;}
	.st18{fill:#777777;}
	.st19{fill:#4F4F50;}
	.st20{fill:#231F20;}
	.st21{fill:#322E2F;}
	.st22{fill:#AAAAAA;}
	.st23{fill:#BBBBBB;}
	.st24{fill:#353535;}
	.st25{fill:#202020;}
	.st26{fill:#F9F9F9;}
	.st27{fill:#E8E9EA;}
	.st28{fill:#FFFFFF;stroke:#000000;stroke-miterlimit:10;}
	.st29{fill:#35383C;}
	.st30{fill:#1B1C1E;}
	.st31{fill:#242628;}
	.st32{fill:#BFBEAD;}
	.st33{fill:#D3D3D4;}
	.st34{fill:none;stroke:#000000;stroke-width:0.8502;stroke-miterlimit:10;}
	.st35{fill:#515356;}
	.st36{fill:#121314;}
	.st37{fill:#C1C1C1;}
	.st38{fill:#DADADA;}
	.st39{fill:#90CAF9;}
	.st40{fill:#6C98BB;}
	.st41{fill:#404042;}
	.st42{fill:#303032;}
	.st43{fill:#707680;}
	.st44{fill:#989FAC;}
	.st45{fill:#DFDFDF;}
	.st46{fill:#5E5E5E;}
	.st47{fill:#F5E2BB;}
	.st48{fill:#7A7979;}
	.st49{fill:#F4EDBD;}
	.st50{fill:#ADADAD;}
	.st51{fill:#282828;}
	.st52{fill:#191919;}
	.st53{fill:#828282;}
	.st54{fill:#515151;}
	.st55{fill:#3B444D;}
	.st56{fill:#4E5B66;}
	.st57{fill:#5BB3EF;}
	.st58{fill:#2C3C45;}
	.st59{fill:#15405D;}
	.st60{fill:#44667D;}
	.st61{fill:#161F28;}
	.st62{fill:#212F3C;}
	.st63{fill:#74261E;}
	.st64{fill:#763832;}
</style>
<g id="REF">
</g>
<rect id="BKGD" x="-26" y="-224.9" class="st0" width="1942.8" height="1230"/>
<polygon class="st1" points="1699.3,306.5 1754.8,814.7 1397,634.9 1657.7,292.3 "/>
<path class="st2" d="M1712.6,307.1l19.6-57.3c4.7-13.7-2.6-28.7-16.4-33.4l-14.4-4.9c-13.7-4.7-28.7,2.6-33.4,16.4l-19.6,57.3
	l-1.3-0.5l-1.5,4.2l66.8,22.8l1.5-4.2L1712.6,307.1z"/>
<path class="st3" d="M431.2,579.8c0.1,0.1,0.1,0.1,0.2,0.2c0.2,0.2,0.3,0.3,0.5,0.5s0.3,0.3,0.5,0.5s0.3,0.3,0.5,0.5
	s0.3,0.3,0.5,0.5s0.3,0.3,0.5,0.5s0.3,0.3,0.5,0.5s0.3,0.3,0.5,0.5s0.3,0.3,0.5,0.5s0.3,0.3,0.5,0.5s0.3,0.3,0.5,0.5
	s0.3,0.3,0.5,0.5s0.3,0.3,0.5,0.5s0.3,0.3,0.5,0.5s0.3,0.3,0.5,0.5s0.3,0.3,0.5,0.5s0.3,0.3,0.5,0.5s0.3,0.3,0.5,0.5
	s0.3,0.3,0.5,0.5s0.3,0.3,0.5,0.5s0.3,0.3,0.5,0.5s0.3,0.3,0.5,0.5s0.3,0.3,0.5,0.5s0.3,0.3,0.5,0.5s0.3,0.3,0.5,0.5
	s0.3,0.3,0.5,0.5s0.3,0.3,0.5,0.5s0.3,0.3,0.5,0.5s0.3,0.3,0.5,0.5s0.3,0.3,0.5,0.5s0.3,0.3,0.5,0.5s0.3,0.3,0.5,0.5
	s0.3,0.3,0.5,0.5s0.3,0.3,0.5,0.5s0.3,0.3,0.5,0.5s0.3,0.3,0.5,0.5s0.3,0.3,0.5,0.5s0.3,0.3,0.5,0.5s0.3,0.3,0.5,0.5
	s0.3,0.3,0.5,0.5s0.3,0.3,0.5,0.5s0.3,0.3,0.5,0.5s0.3,0.3,0.5,0.5s0.3,0.3,0.5,0.5s0.3,0.3,0.5,0.5s0.3,0.3,0.5,0.5
	s0.3,0.3,0.5,0.5s0.3,0.3,0.5,0.5s0.3,0.3,0.5,0.5s0.3,0.3,0.5,0.5s0.3,0.3,0.5,0.5s0.3,0.3,0.5,0.5s0.3,0.3,0.5,0.5
	s0.3,0.3,0.5,0.5s0.3,0.3,0.5,0.5s0.3,0.3,0.5,0.5s0.3,0.3,0.5,0.5s0.3,0.3,0.5,0.5s0.3,0.3,0.5,0.5s0.3,0.3,0.5,0.5
	s0.3,0.3,0.5,0.5s0.3,0.3,0.5,0.5s0.3,0.3,0.5,0.5s0.3,0.3,0.5,0.5s0.3,0.3,0.5,0.5s0.3,0.3,0.5,0.5s0.3,0.3,0.5,0.5
	s0.3,0.3,0.5,0.5s0.3,0.3,0.5,0.5s0.3,0.3,0.5,0.5s0.3,0.3,0.5,0.5s0.3,0.3,0.5,0.5s0.3,0.3,0.5,0.5s0.3,0.3,0.5,0.5
	s0.3,0.3,0.5,0.5s0.3,0.3,0.5,0.5s0.3,0.3,0.5,0.5s0.3,0.3,0.5,0.5s0.3,0.3,0.5,0.5s0.3,0.3,0.5,0.5s0.3,0.3,0.5,0.5
	s0.3,0.3,0.5,0.5s0.3,0.3,0.5,0.5s0.3,0.3,0.5,0.5s0.3,0.3,0.5,0.5s0.3,0.3,0.5,0.5s0.3,0.3,0.5,0.5s0.3,0.3,0.5,0.5
	s0.3,0.3,0.5,0.5s0.3,0.3,0.5,0.5s0.3,0.3,0.5,0.5s0.3,0.3,0.5,0.5s0.3,0.3,0.5,0.5s0.3,0.3,0.5,0.5s0.3,0.3,0.5,0.5
	s0.3,0.3,0.5,0.5s0.3,0.3,0.5,0.5s0.3,0.3,0.5,0.5s0.3,0.3,0.5,0.5s0.3,0.3,0.5,0.5s0.3,0.3,0.5,0.5s0.3,0.3,0.5,0.5
	s0.3,0.3,0.5,0.5s0.3,0.3,0.5,0.5s0.3,0.3,0.5,0.5s0.3,0.3,0.5,0.5s0.3,0.3,0.5,0.5s0.3,0.3,0.5,0.5s0.3,0.3,0.5,0.5
	s0.3,0.3,0.5,0.5s0.3,0.3,0.5,0.5s0.3,0.3,0.5,0.5s0.3,0.3,0.5,0.5s0.3,0.3,0.5,0.5s0.3,0.3,0.5,0.5s0.3,0.3,0.5,0.5
	s0.3,0.3,0.5,0.5s0.3,0.3,0.5,0.5s0.3,0.3,0.5,0.5s0.3,0.3,0.5,0.5s0.3,0.3,0.5,0.5s0.3,0.3,0.5,0.5s0.3,0.3,0.5,0.5
	s0.3,0.3,0.5,0.5s0.3,0.3,0.5,0.5s0.3,0.3,0.5,0.5s0.3,0.3,0.5,0.5s0.3,0.3,0.5,0.5s0.3,0.3,0.5,0.5s0.3,0.3,0.5,0.5
	s0.3,0.3,0.5,0.5s0.3,0.3,0.5,0.5s0.3,0.3,0.5,0.5s0.3,0.3,0.5,0.5s0.3,0.3,0.5,0.5s0.3,0.3,0.5,0.5s0.3,0.3,0.5,0.5
	s0.3,0.3,0.5,0.5s0.3,0.3,0.5,0.5s0.3,0.3,0.5,0.5s0.3,0.3,0.5,0.5s0.3,0.3,0.5,0.5s0.3,0.3,0.5,0.5s0.3,0.3,0.5,0.5
	s0.3,0.3,0.5,0.5s0.3,0.3,0.5,0.5s0.3,0.3,0.5,0.5s0.3,0.3,0.5,0.5s0.3,0.3,0.5,0.5s0.3,0.3,0.5,0.5s0.3,0.3,0.5,0.5
	s0.3,0.3,0.5,0.5s0.3,0.3,0.5,0.5s0.3,0.3,0.5,0.5s0.3,0.3,0.5,0.5s0.3,0.3,0.5,0.5s0.3,0.3,0.5,0.5s0.3,0.3,0.5,0.5
	s0.3,0.3,0.5,0.5s0.3,0.3,0.5,0.5s0.3,0.3,0.5,0.5s0.3,0.3,0.5,0.5s0.3,0.3,0.5,0.5s0.3,0.3,0.5,0.5s0.3,0.3,0.5,0.5
	s0.3,0.3,0.5,0.5s0.3,0.3,0.5,0.5s0.3,0.3,0.5,0.5s0.3,0.3,0.5,0.5s0.3,0.3,0.5,0.5s0.3,0.3,0.5,0.5s0.3,0.3,0.5,0.5
	s0.3,0.3,0.5,0.5s0.3,0.3,0.5,0.5s0.3,0.3,0.5,0.5s0.3,0.3,0.5,0.5s0.3,0.3,0.5,0.5s0.3,0.3,0.5,0.5s0.3,0.3,0.5,0.5
	s0.3,0.3,0.5,0.5s0.3,0.3,0.5,0.5s0.3,0.3,0.5,0.5s0.3,0.3,0.5,0.5s0.3,0.3,0.5,0.5s0.3,0.3,0.5,0.5s0.3,0.3,0.5,0.5
	s0.3,0.3,0.5,0.5s0.3,0.3,0.5,0.5s0.3,0.3,0.5,0.5s0.3,0.3,0.5,0.5s0.3,0.3,0.5,0.5s0.3,0.3,0.5,0.5s0.3,0.3,0.5,0.5
	s0.3,0.3,0.5,0.5s0.3,0.3,0.5,0.5s0.3,0.3,0.5,0.5s0.3,0.3,0.5,0.5s0.3,0.3,0.5,0.5s0.3,0.3,0.5,0.5s0.3,0.3,0.5,0.5
	s0.3,0.3,0.5,0.5s0.3,0.3,0.5,0.5s0.3,0.3,0.5,0.5s0.3,0.3,0.5,0.5s0.3,0.3,0.5,0.5s0.3,0.3,0.5,0.5s0.3,0.3,0.5,0.5
	s0.3,0.3,0.5,0.5s0.3,0.3,0.5,0.5s0.3,0.3,0.5,0.5s0.3,0.3,0.5,0.5s0.3,0.3,0.5,0.5s0.3,0.3,0.5,0.5s0.3,0.3,0.5,0.5
	s0.3,0.3,0.5,0.5s0.3,0.3,0.5,0.5s0.3,0.3,0.5,0.5s0.3,0.3,0.5,0.5s0.3,0.3,0.5,0.5s0.3,0.3,0.5,0.5s0.3,0.3,0.5,0.5
	s0.3,0.3,0.5,0.5s0.3,0.3,0.5,0.5s0.3,0.3,0.5,0.5s0.3,0.3,0.5,0.5s0.3,0.3,0.5,0.5s0.3,0.3,0.5,0.5s0.3,0.3,0.5,0.5
	s0.3,0.3,0.5,0.5s0.3,0.3,0.5,0.5s0.3,0.3,0.5,0.5s0.3,0.3,0.5,0.5s0.3,0.3,0.5,0.5s0.3,0.3,0.5,0.5s0.3,0.3,0.5,0.5
	s0.3,0.3,0.5,0.5s0.3,0.3,0.5,0.5s0.3,0.3,0.5,0.5s0.3,0.3,0.5,0.5s0.3,0.3,0.5,0.5s0.3,0.3,0.5,0.5s0.3,0.3,0.5,0.5
	s0.3,0.3,0.5,0.5s0.3,0.3,0.5,0.5s0.3,0.3,0.5,0.5s0.3,0.3,0.5,0.5s0.3,0.3,0.5,0.5s0.3,0.3,0.5,0.5s0.3,0.3,0.5,0.5
	s0.3,0.3,0.5,0.5s0.3,0.3,0.5,0.5s0.3,0.3,0.5,0.5s0.3,0.3,0.5,0.5s0.3,0.3,0.5,0.5s0.3,0.3,0.5,0.5s0.3,0.3,0.5,0.5
	s0.3,0.3,0.5,0.5s0.3,0.3,0.5,0.5s0.3,0.3,0.5,0.5s0.3,0.3,0.5,0.5s0.3,0.3,0.5,0.5s0.3,0.3,0.5,0.5s0.3,0.3,0.5,0.5
	s0.3,0.3,0.5,0.5s0.3,0.3,0.5,0.5s0.3,0.3,0.5,0.5s0.3,0.3,0.5,0.5s0.3,0.3,0.5,0.5s0.3,0.3,0.5,0.5s0.3,0.3,0.5,0.5
	s0.3,0.3,0.5,0.5s0.3,0.3,0.5,0.5s0.3,0.3,0.5,0.5s0.3,0.3,0.5,0.5s0.3,0.3,0.5,0.5s0.3,0.3,0.5,0.5s0.3,0.3,0.5,0.5
	s0.3,0.3,0.5,0.5s0.3,0.3,0.5,0.5s0.3,0.3,0.5,0.5s0.3,0.3,0.5,0.5s0.3,0.3,0.5,0.5s0.3,0.3,0.5,0.5s0.3,0.3,0.5,0.5
	s0.3,0.3,0.5,0.5s0.3,0.3,0.5,0.5s0.3,0.3,0.5,0.5s0.3,0.3,0.5,0.5s0.3,0.3,0.5,0.5s0.3,0.3,0.5,0.5s0.3,0.3,0.5,0.5
	s0.3,0.3,0.5,0.5s0.3,0.3,0.5,0.5s0.3,0.3,0.5,0.5s0.3,0.3,0.5,0.5s0.3,0.3,0.5,0.5s0.3,0.3,0.5,0.5s0.3,0.3,0.5,0.5
	s0.3,0.3,0.5,0.5s0.3,0.3,0.5,0.5s0.3,0.3,0.5,0.5s0.3,0.3,0.5,0.5s0.3,0.3,0.5,0.5s0.3,0.3,0.5,0.5s0.3,0.3,0.5,0.5
	s0.3,0.3,0.5,0.5s0.3,0.3,0.5,0.5c0.1,0.1,0.1,0.2,0.2,0.2h-354v23h0.5v0.5h0.5v0.5h0.5v0.5h0.5v0.5h0.5v0.5h0.5v0.5h0.5v0.5h0.5
	v0.5h0.5v0.5h0.5v0.5h0.5v0.5h0.5v0.5h0.5v0.5h0.5v0.5h0.5v0.5h0.5v0.5h0.5v0.5h0.5v0.5h0.5v0.5h0.5v0.5h0.5v0.5h0.5v0.5h0.5v0.5
	h0.5v0.5h0.5v0.5h0.5v0.5h0.5v0.5h0.5v0.5h0.5v0.5h0.5v0.5h0.5v0.5h0.5v0.5h0.5v0.5h0.5v0.5h0.5v0.5h0.5v0.5h0.5v0.5h0.5v0.5h0.5
	v0.5h0.5v0.5h0.5v0.5h0.5v0.5h0.5v0.5h0.5v0.5h0.5v0.5h0.5v0.5h0.5v0.5h0.5v0.5h0.5v0.5h0.5v0.5h0.5v0.5h0.5v0.5h0.5v0.5h0.5v0.5
	h0.5v0.5h0.5v0.5h0.5v0.5h0.5v0.5h0.5v0.5h0.5v0.5h0.5v0.5h0.5v0.5h0.5v0.5h0.5v0.5h0.5v0.5h0.5v0.5h0.5v0.5h0.5v0.5h0.5v0.5h0.5
	v0.5h0.5v0.5h0.5v0.5h0.5v0.5h0.5v0.5h0.5v0.5h0.5v0.5h0.5v0.5h0.5v0.5h0.5v0.5h0.5v0.5h0.5v0.5h0.5v0.5h0.5v0.5h0.5v0.5h0.5v0.5
	h0.5v0.5h0.5v0.5h0.5v0.5h0.5v0.5h0.5v0.5h0.5v0.5h0.5v0.5h0.5v0.5h0.5v0.5h0.5v0.5h0.5v0.5h0.5v0.5h0.5v0.5h0.5v0.5h0.5v0.5h0.5
	v0.5h0.5v0.5h0.5v0.5h0.5v0.5h0.5v0.5h0.5v0.5h0.5v0.5h0.5v0.5h0.5v0.5h0.5v0.5h0.5v0.5h0.5v0.5h0.5v0.5h0.5v0.5h0.5v0.5h0.5v0.5
	h0.5v0.5h0.5v0.5h0.5v0.5h0.5v0.5h0.5v0.5h0.5v0.5h0.5v0.5h0.5v0.5h0.5v0.5h0.5v0.5h0.5v0.5h0.5v0.5h0.5v0.5h0.5v0.5h0.5v0.5h0.5
	v0.5h0.5v0.5h0.5v0.5h0.5v0.5h0.5v0.5h0.5v0.5h0.5v0.5h0.5v0.5h0.5v0.5h0.5v0.5h0.5v0.5h0.5v0.5h0.5v0.5h0.5v0.5h0.5v0.5h0.5v0.5
	h0.5v0.5h0.5v0.5h0.5v0.5h0.5v0.5h0.5v0.5h0.5v0.5h0.5v0.5h0.5v0.5h0.5v0.5h0.5v0.5h0.5v0.5h0.5v0.5h0.5v0.5h0.5v0.5h0.5v0.5h0.5
	v0.5h0.5v0.5h0.5v0.5h0.5v0.5h0.5v0.5h0.5v0.5h0.5v0.5h0.5v0.5h0.5v0.5h0.5v0.5h0.5v0.5h0.5v0.5h0.5v0.5h0.5v0.5h0.5v0.5h0.5v0.5
	h0.5v0.5h0.5v0.5h0.5v0.5h0.5v0.5h0.5v0.5h0.5v0.5h0.5v0.5h0.5v0.5h0.5v0.5h0.5v0.5h0.5v0.5h0.5v0.5h0.5v0.5h0.5v0.5h0.5v0.5h0.5
	v0.5h0.5v0.5h0.5v0.5h0.5v0.5h0.5v0.5h0.5v0.5h0.5v0.5h0.5v0.5h0.5v0.5h0.5v0.5h0.5v0.5h0.5v0.5h0.5v0.5h0.5v0.5h0.5v0.5h0.5v0.5
	h0.5v0.5h0.5v0.5h0.5v0.5h0.5v0.5h0.5v0.5h0.5v0.5h0.5v0.5h0.5v0.5h0.5v0.5h0.5v0.5h0.5v0.5h0.5v0.5h0.5v0.5h0.5v0.5h0.5v0.5h0.5
	v0.5h0.5v0.5h0.5v0.5h0.5v0.5h0.5v0.5h0.5v0.5h0.5v0.5h0.5v0.5h0.5v0.5h0.5v0.5h0.5v0.5h0.5v0.5h0.5v0.5h0.5v0.5h0.5v0.5h0.5v0.5
	h0.5v0.5h0.5v0.5h0.5v0.5h0.5v0.5h0.5v0.5h0.5v0.5h0.5v0.5h0.5v0.5h0.5v0.5h0.5v0.5h0.5v0.5h0.5v0.5h0.5v0.5h0.5v0.5h0.5v0.5h0.5
	v0.5h0.5v0.5h0.5v0.5h0.5v0.5h0.5v0.5h0.5v0.5h0.5v0.5h0.5v0.5h0.5v0.5h0.5v0.5h0.5v0.5h0.5v0.5h0.5v0.5h0.5v0.5h0.5v0.5h0.5v0.5
	h0.5v0.5h0.5v0.5h0.5v0.5h0.5v0.5h0.5v0.5h0.5v0.5h0.5v0.5h0.5v0.5h0.5v0.5h0.5v0.5h0.5v0.5h0.5v0.5h0.5v0.5h0.5v0.5h0.5v0.5h0.5
	v0.5h0.5v0.5h0.5v0.5h0.5v0.5h0.5v0.5h0.5v0.5h0.5v0.5h0.5v0.5h0.5v0.5h0.5v0.5h0.5v0.5h0.5v0.5h0.5v0.5h0.5v0.5h0.5v0.5h0.5v0.5
	h0.5v0.5h0.5v0.5h0.5v0.5h0.5v0.5h0.5v0.5h0.5v0.5h0.5v0.5h0.5v0.5h0.5v0.5h0.5v0.5h0.5v0.5h0.5v0.5h0.5v0.5h0.5v0.5h0.5v0.5h0.5
	v0.5h0.5v0.5h0.5v0.5h0.5v0.5h0.5v0.5h0.5v0.5h0.5v0.5h0.5v0.5h0.5v0.5h0.5v0.5h0.5v0.5h0.5v0.5h0.5v0.5h0.5v0.5h0.5v0.5h0.5v0.5
	h0.5v0.5h0.5v0.5h0.5v0.5h0.5v0.5h0.5v0.5h0.5v0.5h0.5v0.5h0.5v0.5h0.5v0.5h0.5v0.5h0.5v0.5h0.5v0.5h0.5v0.5h0.5v0.5h0.5v0.5h0.5
	v0.5h0.5v0.5h0.5v0.5h0.5v0.5h0.5v0.5h0.5v0.5h0.5v0.5h0.5v0.5h0.5v0.5h0.5v0.5h0.5v0.5h0.5v0.5h0.5v0.5h0.5v0.5h0.5v0.5h0.5v0.5
	h0.5v0.5h0.5v0.5h0.5v0.5h0.5v0.5h0.5v0.5h0.5v0.5h0.5v0.5h0.5v0.5h0.5v0.5h0.5v0.5h0.5v0.5h0.5v0.5h0.5v0.5h0.5v0.5h0.5v0.5h0.5
	v0.5h0.5v0.5h0.5v0.5h0.5v0.5h0.5v0.5h0.5v0.5h0.5v0.5h0.5v0.5h0.5v0.5h0.5v0.5h0.5v0.5h0.5v0.5h0.5v0.5h0.5v0.5h0.5v0.5h0.5v0.5
	h0.5v0.5h0.5v0.5h0.5v0.5h0.5v0.5h0.5v0.5h0.5v0.5h0.5v0.5h0.5v0.5h0.5v0.5h0.5v0.5h0.5v0.5h0.5v0.5h0.5v0.5h0.5v0.5h0.5v0.5h0.5
	v0.5h0.5v0.5h0.5v0.5h0.5v0.5h0.5v0.5h0.5v0.5h0.5v0.5h0.5v0.5h0.5v0.5h0.5v0.5h0.5v0.5h0.5v0.5h0.5v0.5h0.5v0.5h0.5v0.5h0.5v0.5
	h0.5v0.5h0.5v0.5h0.5v0.5h0.5v0.5h0.5v0.5h0.5v0.5h0.5v0.5h0.5v0.5h0.5v0.5h0.5v0.5h0.5v0.5h0.5v0.5h0.5v0.5h0.5v0.5h0.5v0.5h0.5
	v0.5h0.5v0.5h0.5v0.5h0.5v0.5h0.5v0.5h0.5v0.5h0.5v0.5h0.5v0.5h0.5v0.5h0.5v0.5h0.5v0.5h0.5v0.5h0.5v0.5h0.5v0.5h0.5v0.5h0.5v0.5
	h0.5v0.5h0.5v0.5h0.5v0.5h0.5v0.5h0.5v0.5h0.5v0.5h0.5v0.5h0.5v0.5h0.5v0.5h0.5v0.5h0.5v0.5h0.5v0.5h0.5v0.5h0.5v0.5h0.5v0.5h0.5
	v0.5h0.5v0.5h0.5v0.5h0.5v0.5h0.5v0.5h0.5v0.5h0.5v0.5h0.5v0.5h0.5v0.5h0.5v0.5h0.5v0.5h0.5v0.5h0.5v0.5h0.5v0.5h0.5v0.5h0.5v0.5
	h0.5v0.5h0.5v0.5h0.5v0.5h0.5v0.5h0.5v0.5h0.5v0.5h0.5v0.5h0.5v0.5h0.5v0.5h0.5v0.5h0.5v0.5h0.5v0.5h1419.8v-23h-0.5v-0.5h-0.5v-0.5
	h-0.5v-0.5h-0.5v-0.5h-0.5v-0.5h-0.5v-0.5h-0.5v-0.5h-0.5v-0.5h-0.5v-0.5h-0.5v-0.5h-0.5v-0.5h-0.5v-0.5h-0.5v-0.5h-0.5v-0.5h-0.5
	v-0.5h-0.5v-0.5h-0.5v-0.5h-0.5v-0.5h-0.5v-0.5h-0.5v-0.5h-0.5v-0.5h-0.5v-0.5h-0.5v-0.5h-0.5v-0.5h-0.5v-0.5h-0.5v-0.5h-0.5v-0.5
	h-0.5v-0.5h-0.5v-0.5h-0.5v-0.5h-0.5v-0.5h-0.5v-0.5h-0.5v-0.5h-0.5v-0.5h-0.5v-0.5h-0.5v-0.5h-0.5v-0.5h-0.5v-0.5h-0.5v-0.5h-0.5
	v-0.5h-0.5v-0.5h-0.5v-0.5h-0.5v-0.5h-0.5v-0.5h-0.5v-0.5h-0.5v-0.5h-0.5v-0.5h-0.5v-0.5h-0.5v-0.5h-0.5v-0.5h-0.5v-0.5h-0.5v-0.5
	h-0.5v-0.5h-0.5v-0.5h-0.5v-0.5h-0.5v-0.5h-0.5v-0.5h-0.5v-0.5h-0.5v-0.5h-0.5v-0.5h-0.5v-0.5h-0.5v-0.5h-0.5v-0.5h-0.5v-0.5h-0.5
	v-0.5h-0.5v-0.5h-0.5v-0.5h-0.5v-0.5h-0.5v-0.5h-0.5v-0.5h-0.5v-0.5h-0.5v-0.5h-0.5v-0.5h-0.5v-0.5h-0.5v-0.5h-0.5v-0.5h-0.5v-0.5
	h-0.5v-0.5h-0.5v-0.5h-0.5v-0.5h-0.5v-0.5h-0.5v-0.5h-0.5v-0.5h-0.5v-0.5h-0.5v-0.5h-0.5v-0.5h-0.5v-0.5h-0.5v-0.5h-0.5v-0.5h-0.5
	v-0.5h-0.5v-0.5h-0.5v-0.5h-0.5v-0.5h-0.5v-0.5h-0.5v-0.5h-0.5v-0.5h-0.5v-0.5h-0.5v-0.5h-0.5v-0.5h-0.5v-0.5h-0.5v-0.5h-0.5v-0.5
	h-0.5v-0.5h-0.5v-0.5h-0.5v-0.5h-0.5v-0.5h-0.5v-0.5h-0.5v-0.5h-0.5v-0.5h-0.5v-0.5h-0.5v-0.5h-0.5v-0.5h-0.5v-0.5h-0.5v-0.5h-0.5
	v-0.5h-0.5v-0.5h-0.5v-0.5h-0.5v-0.5h-0.5v-0.5h-0.5v-0.5h-0.5v-0.5h-0.5v-0.5h-0.5v-0.5h-0.5v-0.5h-0.5v-0.5h-0.5v-0.5h-0.5v-0.5
	h-0.5v-0.5h-0.5v-0.5h-0.5v-0.5h-0.5v-0.5h-0.5v-0.5h-0.5v-0.5h-0.5v-0.5h-0.5v-0.5h-0.5v-0.5h-0.5v-0.5h-0.5v-0.5h-0.5v-0.5h-0.5
	v-0.5h-0.5v-0.5h-0.5v-0.5h-0.5v-0.5h-0.5v-0.5h-0.5v-0.5h-0.5v-0.5h-0.5v-0.5h-0.5v-0.5h-0.5v-0.5h-0.5v-0.5h-0.5v-0.5h-0.5v-0.5
	h-0.5v-0.5h-0.5v-0.5h-0.5v-0.5h-0.5v-0.5h-0.5v-0.5h-0.5v-0.5h-0.5v-0.5h-0.5v-0.5h-0.5v-0.5h-0.5v-0.5h-0.5v-0.5h-0.5v-0.5h-0.5
	v-0.5h-0.5v-0.5h-0.5v-0.5h-0.5v-0.5h-0.5v-0.5h-0.5v-0.5h-0.5v-0.5h-0.5v-0.5h-0.5v-0.5h-0.5v-0.5h-0.5v-0.5h-0.5v-0.5h-0.5v-0.5
	h-0.5v-0.5h-0.5v-0.5h-0.5v-0.5h-0.5v-0.5h-0.5v-0.5h-0.5v-0.5h-0.5v-0.5h-0.5v-0.5h-0.5v-0.5h-0.5v-0.5h-0.5v-0.5h-0.5v-0.5h-0.5
	v-0.5h-0.5v-0.5h-0.5v-0.5h-0.5v-0.5h-0.5v-0.5h-0.5v-0.5h-0.5v-0.5h-0.5v-0.5h-0.5v-0.5h-0.5v-0.5h-0.5v-0.5h-0.5v-0.5h-0.5v-0.5
	h-0.5v-0.5h-0.5v-0.5h-0.5v-0.5h-0.5v-0.5h-0.5v-0.5h-0.5v-0.5h-0.5v-0.5h-0.5v-0.5h-0.5v-0.5h-0.5v-0.5h-0.5v-0.5h-0.5v-0.5h-0.5
	v-0.5h-0.5v-0.5h-0.5v-0.5h-0.5v-0.5h-0.5v-0.5h-0.5v-0.5h-0.5v-0.5h-0.5v-0.5h-0.5v-0.5h-0.5v-0.5h-0.5v-0.5h-0.5v-0.5h-0.5v-0.5
	h-0.5v-0.5h-0.5v-0.5h-0.5v-0.5h-0.5v-0.5h-0.5v-0.5h-0.5v-0.5h-0.5v-0.5h-0.5v-0.5h-0.5v-0.5h-0.5v-0.5h-0.5v-0.5h-0.5v-0.5h-0.5
	v-0.5h-0.5v-0.5h-0.5v-0.5h-0.5v-0.5h-0.5v-0.5h-0.5v-0.5h-0.5v-0.5h-0.5v-0.5h-0.5v-0.5h-0.5v-0.5h-0.5v-0.5h-0.5v-0.5h-0.5v-0.5
	h-0.5v-0.5h-0.5v-0.5h-0.5v-0.5h-0.5v-0.5h-0.5v-0.5h-0.5v-0.5h-0.5v-0.5h-0.5v-0.5h-0.5v-0.5h-0.5v-0.5h-0.5v-0.5h-0.5v-0.5h-0.5
	v-0.5h-0.5v-0.5h-0.5v-0.5h-0.5v-0.5h-0.5v-0.5h-0.5v-0.5h-0.5v-0.5h-0.5v-0.5h-0.5v-0.5h-0.5v-0.5h-0.5v-0.5h-0.5v-0.5h-0.5v-0.5
	h-0.5v-0.5h-0.5v-0.5h-0.5v-0.5h-0.5v-0.5h-0.5v-0.5h-0.5v-0.5h-0.5v-0.5h-0.5v-0.5h-0.5v-0.5h-0.5v-0.5h-0.5v-0.5h-0.5v-0.5h-0.5
	v-0.5h-0.5v-0.5h-0.5v-0.5h-0.5v-0.5h-0.5v-0.5h-0.5v-0.5h-0.5v-0.5h-0.5v-0.5h-0.5v-0.5h-0.5v-0.5h-0.5v-0.5h-0.5v-0.5h-0.5v-0.5
	h-0.5v-0.5h-0.5v-0.5h-0.5v-0.5h-0.5v-0.5h-0.5v-0.5h-0.5v-0.5h-0.5v-0.5h-0.5v-0.5h-0.5v-0.5h-0.5v-0.5h-0.5v-0.5h-0.5v-0.5h-0.5
	v-0.5h-0.5v-0.5h-0.5v-0.5h-0.5v-0.5h-0.5v-0.5h-0.5v-0.5h-0.5v-0.5h-0.5v-0.5h-0.5v-0.5h-0.5v-0.5h-0.5v-0.5h-0.5v-0.5h-0.5v-0.5
	h-0.5v-0.5h-0.5v-0.5h-0.5v-0.5h-0.5v-0.5h-0.5v-0.5h-0.5v-0.5h-0.5v-0.5h-0.5v-0.5h-0.5v-0.5h-0.5v-0.5h-0.5v-0.5h-0.5v-0.5h-0.5
	v-0.5h-0.5v-0.5h-0.5v-0.5h-0.5v-0.5h-0.5v-0.5h-0.5v-0.5h-0.5v-0.5h-0.5v-0.5h-0.5v-0.5h-0.5v-0.5h-0.5v-0.5h-0.5v-0.5h-0.5v-0.5
	h-0.5v-0.5h-0.5v-0.5h-0.5v-0.5h-0.5v-0.5h-0.5v-0.5h-0.5v-0.5h-0.5v-0.5h-0.5v-0.5h-0.5v-0.5h-0.5v-0.5h-0.5v-0.5h-0.5v-0.5h-0.5
	v-0.5h-0.5v-0.5h-0.5v-0.5h-0.5v-0.5h-0.5v-0.5h-0.5v-0.5h-0.5v-0.5h-0.5v-0.5h-0.5v-0.5h-0.5v-0.5h-0.5v-0.5h-0.5v-0.5h-0.5v-0.5
	h-0.5v-0.5h-0.5v-0.5h-0.5v-0.5h-0.5v-0.5h-0.5v-0.5h-0.5v-0.5h-0.5v-0.5h-0.5v-0.5h-0.5v-0.5h-0.5v-0.5h-0.5v-0.5h-0.5v-0.5h-0.5
	v-0.5h-0.5v-0.5h-0.5v-0.5h-0.5v-0.5h-0.5v-0.5h-0.5v-0.5h-0.5v-0.5h-0.5v-0.5h-0.5v-0.5h-0.5v-0.5h-0.5v-0.5h-0.5v-0.5h-0.5v-0.5
	h-0.5v-0.5h-0.5v-0.5h-0.5v-0.5h-0.5v-0.5h-0.5v-0.5h-0.5v-0.5h-0.5v-0.5h-0.5v-0.5h-0.5v-0.5h-0.5v-0.5h-0.5v-0.5h-0.5v-0.5h-0.5
	v-0.5h-0.5v-0.5h-0.5v-0.5h-0.5v-0.5h-0.5v-0.5h-0.5v-0.5h-0.5v-0.5h-0.5v-0.5h-0.5v-0.5h-0.5v-0.5h-0.5v-0.5h-0.5v-0.5h-0.5v-0.5
	h-0.5v-0.5h-0.5v-0.5h-0.5v-0.5h-0.5v-0.5h-0.5v-0.5h-0.5v-0.5h-0.5v-0.5h-0.5v-0.5h-0.5v-0.5h-0.5v-0.5h-0.5v-0.5h-0.5v-0.5h-0.5
	v-0.5h-0.5v-0.5h-0.5v-0.5h-0.5v-0.5h-0.5v-0.5h-0.5v-0.5h-0.5v-0.5h-0.5v-0.5h-0.5v-0.5h-0.5v-0.5h-0.5v-0.5h-0.5V758h56.1
	c3.3,0,6-2.5,6-5.4V545.8c0-1.5-0.7-2.9-1.8-3.9c-0.2-0.2-0.3-0.3-0.5-0.5s-0.3-0.3-0.5-0.5s-0.3-0.3-0.5-0.5s-0.3-0.3-0.5-0.5
	s-0.3-0.3-0.5-0.5s-0.3-0.3-0.5-0.5s-0.3-0.3-0.5-0.5s-0.3-0.3-0.5-0.5s-0.3-0.3-0.5-0.5s-0.3-0.3-0.5-0.5s-0.3-0.3-0.5-0.5
	s-0.3-0.3-0.5-0.5s-0.3-0.3-0.5-0.5s-0.3-0.3-0.5-0.5s-0.3-0.3-0.5-0.5s-0.3-0.3-0.5-0.5s-0.3-0.3-0.5-0.5s-0.3-0.3-0.5-0.5
	s-0.3-0.3-0.5-0.5s-0.3-0.3-0.5-0.5s-0.3-0.3-0.5-0.5s-0.3-0.3-0.5-0.5s-0.3-0.3-0.5-0.5s-0.3-0.3-0.5-0.5s-0.3-0.3-0.5-0.5
	s-0.3-0.3-0.5-0.5s-0.3-0.3-0.5-0.5s-0.3-0.3-0.5-0.5s-0.3-0.3-0.5-0.5s-0.3-0.3-0.5-0.5s-0.3-0.3-0.5-0.5s-0.3-0.3-0.5-0.5
	s-0.3-0.3-0.5-0.5s-0.3-0.3-0.5-0.5s-0.3-0.3-0.5-0.5s-0.3-0.3-0.5-0.5s-0.3-0.3-0.5-0.5s-0.3-0.3-0.5-0.5s-0.3-0.3-0.5-0.5
	s-0.3-0.3-0.5-0.5s-0.3-0.3-0.5-0.5s-0.3-0.3-0.5-0.5s-0.3-0.3-0.5-0.5s-0.3-0.3-0.5-0.5s-0.3-0.3-0.5-0.5s-0.3-0.3-0.5-0.5
	s-0.3-0.3-0.5-0.5s-0.3-0.3-0.5-0.5s-0.3-0.3-0.5-0.5s-0.3-0.3-0.5-0.5s-0.3-0.3-0.5-0.5s-0.3-0.3-0.5-0.5s-0.3-0.3-0.5-0.5
	s-0.3-0.3-0.5-0.5s-0.3-0.3-0.5-0.5s-0.3-0.3-0.5-0.5s-0.3-0.3-0.5-0.5s-0.3-0.3-0.5-0.5s-0.3-0.3-0.5-0.5s-0.3-0.3-0.5-0.5
	s-0.3-0.3-0.5-0.5s-0.3-0.3-0.5-0.5s-0.3-0.3-0.5-0.5s-0.3-0.3-0.5-0.5s-0.3-0.3-0.5-0.5s-0.3-0.3-0.5-0.5s-0.3-0.3-0.5-0.5
	s-0.3-0.3-0.5-0.5s-0.3-0.3-0.5-0.5s-0.3-0.3-0.5-0.5s-0.3-0.3-0.5-0.5s-0.3-0.3-0.5-0.5s-0.3-0.3-0.5-0.5s-0.3-0.3-0.5-0.5
	s-0.3-0.3-0.5-0.5s-0.3-0.3-0.5-0.5s-0.3-0.3-0.5-0.5s-0.3-0.3-0.5-0.5s-0.3-0.3-0.5-0.5s-0.3-0.3-0.5-0.5s-0.3-0.3-0.5-0.5
	s-0.3-0.3-0.5-0.5s-0.3-0.3-0.5-0.5s-0.3-0.3-0.5-0.5s-0.3-0.3-0.5-0.5s-0.3-0.3-0.5-0.5s-0.3-0.3-0.5-0.5s-0.3-0.3-0.5-0.5
	s-0.3-0.3-0.5-0.5s-0.3-0.3-0.5-0.5s-0.3-0.3-0.5-0.5s-0.3-0.3-0.5-0.5s-0.3-0.3-0.5-0.5s-0.3-0.3-0.5-0.5s-0.3-0.3-0.5-0.5
	s-0.3-0.3-0.5-0.5s-0.3-0.3-0.5-0.5s-0.3-0.3-0.5-0.5s-0.3-0.3-0.5-0.5s-0.3-0.3-0.5-0.5s-0.3-0.3-0.5-0.5s-0.3-0.3-0.5-0.5
	s-0.3-0.3-0.5-0.5s-0.3-0.3-0.5-0.5s-0.3-0.3-0.5-0.5s-0.3-0.3-0.5-0.5s-0.3-0.3-0.5-0.5s-0.3-0.3-0.5-0.5s-0.3-0.3-0.5-0.5
	s-0.3-0.3-0.5-0.5s-0.3-0.3-0.5-0.5s-0.3-0.3-0.5-0.5s-0.3-0.3-0.5-0.5s-0.3-0.3-0.5-0.5s-0.3-0.3-0.5-0.5s-0.3-0.3-0.5-0.5
	s-0.3-0.3-0.5-0.5s-0.3-0.3-0.5-0.5s-0.3-0.3-0.5-0.5s-0.3-0.3-0.5-0.5s-0.3-0.3-0.5-0.5s-0.3-0.3-0.5-0.5s-0.3-0.3-0.5-0.5
	s-0.3-0.3-0.5-0.5s-0.3-0.3-0.5-0.5s-0.3-0.3-0.5-0.5s-0.3-0.3-0.5-0.5s-0.3-0.3-0.5-0.5s-0.3-0.3-0.5-0.5s-0.3-0.3-0.5-0.5
	s-0.3-0.3-0.5-0.5s-0.3-0.3-0.5-0.5s-0.3-0.3-0.5-0.5s-0.3-0.3-0.5-0.5s-0.3-0.3-0.5-0.5s-0.3-0.3-0.5-0.5s-0.3-0.3-0.5-0.5
	s-0.3-0.3-0.5-0.5s-0.3-0.3-0.5-0.5s-0.3-0.3-0.5-0.5s-0.3-0.3-0.5-0.5s-0.3-0.3-0.5-0.5s-0.3-0.3-0.5-0.5s-0.3-0.3-0.5-0.5
	s-0.3-0.3-0.5-0.5s-0.3-0.3-0.5-0.5s-0.3-0.3-0.5-0.5s-0.3-0.3-0.5-0.5s-0.3-0.3-0.5-0.5s-0.3-0.3-0.5-0.5s-0.3-0.3-0.5-0.5
	s-0.3-0.3-0.5-0.5s-0.3-0.3-0.5-0.5s-0.3-0.3-0.5-0.5s-0.3-0.3-0.5-0.5s-0.3-0.3-0.5-0.5s-0.3-0.3-0.5-0.5s-0.3-0.3-0.5-0.5
	s-0.3-0.3-0.5-0.5s-0.3-0.3-0.5-0.5s-0.3-0.3-0.5-0.5s-0.3-0.3-0.5-0.5s-0.3-0.3-0.5-0.5s-0.3-0.3-0.5-0.5s-0.3-0.3-0.5-0.5
	s-0.3-0.3-0.5-0.5s-0.3-0.3-0.5-0.5s-0.3-0.3-0.5-0.5s-0.3-0.3-0.5-0.5s-0.3-0.3-0.5-0.5s-0.3-0.3-0.5-0.5s-0.3-0.3-0.5-0.5
	s-0.3-0.3-0.5-0.5s-0.3-0.3-0.5-0.5s-0.3-0.3-0.5-0.5s-0.3-0.3-0.5-0.5s-0.3-0.3-0.5-0.5s-0.3-0.3-0.5-0.5s-0.3-0.3-0.5-0.5
	s-0.3-0.3-0.5-0.5s-0.3-0.3-0.5-0.5s-0.3-0.3-0.5-0.5s-0.3-0.3-0.5-0.5s-0.3-0.3-0.5-0.5s-0.3-0.3-0.5-0.5s-0.3-0.3-0.5-0.5
	s-0.3-0.3-0.5-0.5s-0.3-0.3-0.5-0.5s-0.3-0.3-0.5-0.5s-0.3-0.3-0.5-0.5s-0.3-0.3-0.5-0.5s-0.3-0.3-0.5-0.5s-0.3-0.3-0.5-0.5
	s-0.3-0.3-0.5-0.5s-0.3-0.3-0.5-0.5s-0.3-0.3-0.5-0.5s-0.3-0.3-0.5-0.5s-0.3-0.3-0.5-0.5s-0.3-0.3-0.5-0.5s-0.3-0.3-0.5-0.5
	s-0.3-0.3-0.5-0.5s-0.3-0.3-0.5-0.5s-0.3-0.3-0.5-0.5s-0.3-0.3-0.5-0.5s-0.3-0.3-0.5-0.5s-0.3-0.3-0.5-0.5s-0.3-0.3-0.5-0.5
	s-0.3-0.3-0.5-0.5s-0.3-0.3-0.5-0.5s-0.3-0.3-0.5-0.5s-0.3-0.3-0.5-0.5s-0.3-0.3-0.5-0.5s-0.3-0.3-0.5-0.5s-0.3-0.3-0.5-0.5
	s-0.3-0.3-0.5-0.5s-0.3-0.3-0.5-0.5s-0.3-0.3-0.5-0.5s-0.3-0.3-0.5-0.5s-0.3-0.3-0.5-0.5s-0.3-0.3-0.5-0.5s-0.3-0.3-0.5-0.5
	s-0.3-0.3-0.5-0.5s-0.3-0.3-0.5-0.5s-0.3-0.3-0.5-0.5s-0.3-0.3-0.5-0.5s-0.3-0.3-0.5-0.5s-0.3-0.3-0.5-0.5s-0.3-0.3-0.5-0.5
	s-0.3-0.3-0.5-0.5s-0.3-0.3-0.5-0.5s-0.3-0.3-0.5-0.5s-0.3-0.3-0.5-0.5s-0.3-0.3-0.5-0.5s-0.3-0.3-0.5-0.5s-0.3-0.3-0.5-0.5
	s-0.3-0.3-0.5-0.5s-0.3-0.3-0.5-0.5s-0.3-0.3-0.5-0.5s-0.3-0.3-0.5-0.5s-0.3-0.3-0.5-0.5s-0.3-0.3-0.5-0.5s-0.3-0.3-0.5-0.5
	s-0.3-0.3-0.5-0.5s-0.3-0.3-0.5-0.5s-0.3-0.3-0.5-0.5s-0.3-0.3-0.5-0.5s-0.3-0.3-0.5-0.5s-0.3-0.3-0.5-0.5s-0.3-0.3-0.5-0.5
	s-0.3-0.3-0.5-0.5s-0.3-0.3-0.5-0.5s-0.3-0.3-0.5-0.5s-0.3-0.3-0.5-0.5s-0.3-0.3-0.5-0.5s-0.3-0.3-0.5-0.5s-0.3-0.3-0.5-0.5
	s-0.3-0.3-0.5-0.5s-0.3-0.3-0.5-0.5s-0.3-0.3-0.5-0.5s-0.3-0.3-0.5-0.5s-0.3-0.3-0.5-0.5s-0.3-0.3-0.5-0.5s-0.3-0.3-0.5-0.5
	s-0.3-0.3-0.5-0.5s-0.3-0.3-0.5-0.5s-0.3-0.3-0.5-0.5s-0.3-0.3-0.5-0.5s-0.3-0.3-0.5-0.5s-0.3-0.3-0.5-0.5s-0.3-0.3-0.5-0.5
	s-0.3-0.3-0.5-0.5s-0.3-0.3-0.5-0.5s-0.3-0.3-0.5-0.5s-0.3-0.3-0.5-0.5s-0.3-0.3-0.5-0.5s-0.3-0.3-0.5-0.5s-0.3-0.3-0.5-0.5
	s-0.3-0.3-0.5-0.5s-0.3-0.3-0.5-0.5s-0.3-0.3-0.5-0.5s-0.3-0.3-0.5-0.5s-0.3-0.3-0.5-0.5s-0.3-0.3-0.5-0.5s-0.3-0.3-0.5-0.5
	s-0.3-0.3-0.5-0.5s-0.3-0.3-0.5-0.5s-0.3-0.3-0.5-0.5s-0.3-0.3-0.5-0.5s-0.3-0.3-0.5-0.5s-0.3-0.3-0.5-0.5s-0.3-0.3-0.5-0.5
	s-0.3-0.3-0.5-0.5s-0.3-0.3-0.5-0.5s-0.3-0.3-0.5-0.5s-0.3-0.3-0.5-0.5s-0.3-0.3-0.5-0.5s-0.3-0.3-0.5-0.5s-0.3-0.3-0.5-0.5
	s-0.3-0.3-0.5-0.5s-0.3-0.3-0.5-0.5s-0.3-0.3-0.5-0.5s-0.3-0.3-0.5-0.5s-0.3-0.3-0.5-0.5s-0.3-0.3-0.5-0.5s-0.3-0.3-0.5-0.5
	s-0.3-0.3-0.5-0.5s-0.3-0.3-0.5-0.5s-0.3-0.3-0.5-0.5s-0.3-0.3-0.5-0.5s-0.3-0.3-0.5-0.5s-0.3-0.3-0.5-0.5s-0.3-0.3-0.5-0.5
	s-0.3-0.3-0.5-0.5s-0.3-0.3-0.5-0.5s-0.3-0.3-0.5-0.5s-0.3-0.3-0.5-0.5s-0.3-0.3-0.5-0.5s-0.3-0.3-0.5-0.5s-0.3-0.3-0.5-0.5
	s-0.3-0.3-0.5-0.5s-0.3-0.3-0.5-0.5s-0.3-0.3-0.5-0.5s-0.3-0.3-0.5-0.5s-0.3-0.3-0.5-0.5s-0.3-0.3-0.5-0.5s-0.3-0.3-0.5-0.5
	s-0.3-0.3-0.5-0.5s-0.3-0.3-0.5-0.5s-0.3-0.3-0.5-0.5s-0.3-0.3-0.5-0.5s-0.3-0.3-0.5-0.5s-0.3-0.3-0.5-0.5s-0.3-0.3-0.5-0.5
	s-0.3-0.3-0.5-0.5s-0.3-0.3-0.5-0.5s-0.3-0.3-0.5-0.5s-0.3-0.3-0.5-0.5s-0.3-0.3-0.5-0.5s-0.3-0.3-0.5-0.5s-0.3-0.3-0.5-0.5
	s-0.3-0.3-0.5-0.5s-0.3-0.3-0.5-0.5s-0.3-0.3-0.5-0.5s-0.3-0.3-0.5-0.5s-0.3-0.3-0.5-0.5s-0.3-0.3-0.5-0.5s-0.3-0.3-0.5-0.5
	s-0.3-0.3-0.5-0.5s-0.3-0.3-0.5-0.5s-0.3-0.3-0.5-0.5s-0.3-0.3-0.5-0.5s-0.3-0.3-0.5-0.5s-0.3-0.3-0.5-0.5s-0.3-0.3-0.5-0.5
	s-0.3-0.3-0.5-0.5s-0.3-0.3-0.5-0.5s-0.3-0.3-0.5-0.5s-0.3-0.3-0.5-0.5s-0.3-0.3-0.5-0.5s-0.3-0.3-0.5-0.5s-0.3-0.3-0.5-0.5
	s-0.3-0.3-0.5-0.5s-0.3-0.3-0.5-0.5s-0.3-0.3-0.5-0.5s-0.3-0.3-0.5-0.5s-0.3-0.3-0.5-0.5s-0.3-0.3-0.5-0.5s-0.3-0.3-0.5-0.5
	s-0.3-0.3-0.5-0.5s-0.3-0.3-0.5-0.5s-0.3-0.3-0.5-0.5s-0.3-0.3-0.5-0.5s-0.3-0.3-0.5-0.5s-0.3-0.3-0.5-0.5s-0.3-0.3-0.5-0.5
	s-0.3-0.3-0.5-0.5s-0.3-0.3-0.5-0.5s-0.3-0.3-0.5-0.5s-0.3-0.3-0.5-0.5s-0.3-0.3-0.5-0.5s-0.3-0.3-0.5-0.5s-0.3-0.3-0.5-0.5
	s-0.3-0.3-0.5-0.5s-0.3-0.3-0.5-0.5s-0.3-0.3-0.5-0.5s-0.3-0.3-0.5-0.5s-0.3-0.3-0.5-0.5s-0.3-0.3-0.5-0.5s-0.3-0.3-0.5-0.5
	s-0.3-0.3-0.5-0.5s-0.3-0.3-0.5-0.5s-0.3-0.3-0.5-0.5s-0.3-0.3-0.5-0.5s-0.3-0.3-0.5-0.5s-0.3-0.3-0.5-0.5s-0.3-0.3-0.5-0.5
	s-0.3-0.3-0.5-0.5s-0.3-0.3-0.5-0.5s-0.3-0.3-0.5-0.5s-0.3-0.3-0.5-0.5s-0.3-0.3-0.5-0.5s-0.3-0.3-0.5-0.5s-0.3-0.3-0.5-0.5
	s-0.3-0.3-0.5-0.5s-0.3-0.3-0.5-0.5s-0.3-0.3-0.5-0.5s-0.3-0.3-0.5-0.5s-0.3-0.3-0.5-0.5s-0.3-0.3-0.5-0.5s-0.3-0.3-0.5-0.5
	s-0.3-0.3-0.5-0.5s-0.3-0.3-0.5-0.5s-0.3-0.3-0.5-0.5s-0.3-0.3-0.5-0.5s-0.3-0.3-0.5-0.5s-0.3-0.3-0.5-0.5s-0.3-0.3-0.5-0.5
	s-0.3-0.3-0.5-0.5s-0.3-0.3-0.5-0.5c-1.1-1.3-2.8-2.1-4.7-2.1l-368.6,12.1c-3.3,0-6,2.5-6,5.5v194.6c0,1.5,0.7,2.9,1.8,3.9
	c0.2,0.2,0.3,0.3,0.5,0.5s0.3,0.3,0.5,0.5s0.3,0.3,0.5,0.5s0.3,0.3,0.5,0.5s0.3,0.3,0.5,0.5s0.3,0.3,0.5,0.5s0.3,0.3,0.5,0.5
	s0.3,0.3,0.5,0.5s0.3,0.3,0.5,0.5s0.3,0.3,0.5,0.5s0.3,0.3,0.5,0.5s0.3,0.3,0.5,0.5s0.3,0.3,0.5,0.5s0.3,0.3,0.5,0.5
	s0.3,0.3,0.5,0.5s0.3,0.3,0.5,0.5s0.3,0.3,0.5,0.5s0.3,0.3,0.5,0.5s0.3,0.3,0.5,0.5s0.3,0.3,0.5,0.5s0.3,0.3,0.5,0.5
	s0.3,0.3,0.5,0.5s0.3,0.3,0.5,0.5s0.3,0.3,0.5,0.5s0.3,0.3,0.5,0.5s0.3,0.3,0.5,0.5s0.3,0.3,0.5,0.5s0.3,0.3,0.5,0.5
	s0.3,0.3,0.5,0.5s0.3,0.3,0.5,0.5s0.3,0.3,0.5,0.5s0.3,0.3,0.5,0.5s0.3,0.3,0.5,0.5s0.3,0.3,0.5,0.5s0.3,0.3,0.5,0.5
	s0.3,0.3,0.5,0.5s0.3,0.3,0.5,0.5s0.3,0.3,0.5,0.5s0.3,0.3,0.5,0.5s0.3,0.3,0.5,0.5s0.3,0.3,0.5,0.5s0.3,0.3,0.5,0.5
	s0.3,0.3,0.5,0.5s0.3,0.3,0.5,0.5s0.3,0.3,0.5,0.5s0.3,0.3,0.5,0.5s0.3,0.3,0.5,0.5s0.3,0.3,0.5,0.5s0.3,0.3,0.5,0.5
	s0.3,0.3,0.5,0.5s0.3,0.3,0.5,0.5s0.3,0.3,0.5,0.5s0.3,0.3,0.5,0.5s0.3,0.3,0.5,0.5s0.3,0.3,0.5,0.5s0.3,0.3,0.5,0.5
	s0.3,0.3,0.5,0.5s0.3,0.3,0.5,0.5s0.3,0.3,0.5,0.5s0.3,0.3,0.5,0.5s0.3,0.3,0.5,0.5s0.3,0.3,0.5,0.5s0.3,0.3,0.5,0.5
	s0.3,0.3,0.5,0.5s0.3,0.3,0.5,0.5s0.3,0.3,0.5,0.5s0.3,0.3,0.5,0.5s0.3,0.3,0.5,0.5s0.3,0.3,0.5,0.5s0.3,0.3,0.5,0.5
	s0.3,0.3,0.5,0.5s0.3,0.3,0.5,0.5s0.3,0.3,0.5,0.5s0.3,0.3,0.5,0.5s0.3,0.3,0.5,0.5s0.3,0.3,0.5,0.5s0.3,0.3,0.5,0.5
	s0.3,0.3,0.5,0.5s0.3,0.3,0.5,0.5s0.3,0.3,0.5,0.5s0.3,0.3,0.5,0.5s0.3,0.3,0.5,0.5s0.3,0.3,0.5,0.5s0.3,0.3,0.5,0.5
	s0.3,0.3,0.5,0.5s0.3,0.3,0.5,0.5s0.3,0.3,0.5,0.5s0.3,0.3,0.5,0.5s0.3,0.3,0.5,0.5s0.3,0.3,0.5,0.5s0.3,0.3,0.5,0.5
	s0.3,0.3,0.5,0.5s0.3,0.3,0.5,0.5s0.3,0.3,0.5,0.5s0.3,0.3,0.5,0.5s0.3,0.3,0.5,0.5s0.3,0.3,0.5,0.5s0.3,0.3,0.5,0.5
	s0.3,0.3,0.5,0.5s0.3,0.3,0.5,0.5s0.3,0.3,0.5,0.5s0.3,0.3,0.5,0.5s0.3,0.3,0.5,0.5s0.3,0.3,0.5,0.5s0.3,0.3,0.5,0.5
	s0.3,0.3,0.5,0.5s0.3,0.3,0.5,0.5s0.3,0.3,0.5,0.5s0.3,0.3,0.5,0.5s0.3,0.3,0.5,0.5s0.3,0.3,0.5,0.5s0.3,0.3,0.5,0.5
	s0.3,0.3,0.5,0.5s0.3,0.3,0.5,0.5s0.3,0.3,0.5,0.5s0.3,0.3,0.5,0.5s0.3,0.3,0.5,0.5s0.3,0.3,0.5,0.5s0.3,0.3,0.5,0.5
	s0.3,0.3,0.5,0.5s0.3,0.3,0.5,0.5s0.3,0.3,0.5,0.5s0.3,0.3,0.5,0.5s0.3,0.3,0.5,0.5s0.3,0.3,0.5,0.5s0.3,0.3,0.5,0.5
	s0.3,0.3,0.5,0.5s0.3,0.3,0.5,0.5s0.3,0.3,0.5,0.5s0.3,0.3,0.5,0.5s0.3,0.3,0.5,0.5s0.3,0.3,0.5,0.5s0.3,0.3,0.5,0.5
	s0.3,0.3,0.5,0.5s0.3,0.3,0.5,0.5s0.3,0.3,0.5,0.5s0.3,0.3,0.5,0.5s0.3,0.3,0.5,0.5s0.3,0.3,0.5,0.5s0.3,0.3,0.5,0.5
	s0.3,0.3,0.5,0.5s0.3,0.3,0.5,0.5s0.3,0.3,0.5,0.5s0.3,0.3,0.5,0.5s0.3,0.3,0.5,0.5s0.3,0.3,0.5,0.5s0.3,0.3,0.5,0.5
	s0.3,0.3,0.5,0.5s0.3,0.3,0.5,0.5s0.3,0.3,0.5,0.5s0.3,0.3,0.5,0.5s0.3,0.3,0.5,0.5s0.3,0.3,0.5,0.5s0.3,0.3,0.5,0.5
	s0.3,0.3,0.5,0.5s0.3,0.3,0.5,0.5s0.3,0.3,0.5,0.5s0.3,0.3,0.5,0.5s0.3,0.3,0.5,0.5s0.3,0.3,0.5,0.5s0.3,0.3,0.5,0.5
	s0.3,0.3,0.5,0.5s0.3,0.3,0.5,0.5s0.3,0.3,0.5,0.5s0.3,0.3,0.5,0.5s0.3,0.3,0.5,0.5s0.3,0.3,0.5,0.5s0.3,0.3,0.5,0.5
	s0.3,0.3,0.5,0.5s0.3,0.3,0.5,0.5s0.3,0.3,0.5,0.5s0.3,0.3,0.5,0.5s0.3,0.3,0.5,0.5s0.3,0.3,0.5,0.5s0.3,0.3,0.5,0.5
	s0.3,0.3,0.5,0.5s0.3,0.3,0.5,0.5s0.3,0.3,0.5,0.5s0.3,0.3,0.5,0.5s0.3,0.3,0.5,0.5s0.3,0.3,0.5,0.5s0.3,0.3,0.5,0.5
	s0.3,0.3,0.5,0.5s0.3,0.3,0.5,0.5s0.3,0.3,0.5,0.5s0.3,0.3,0.5,0.5s0.3,0.3,0.5,0.5s0.3,0.3,0.5,0.5s0.3,0.3,0.5,0.5
	s0.3,0.3,0.5,0.5s0.3,0.3,0.5,0.5s0.3,0.3,0.5,0.5s0.3,0.3,0.5,0.5s0.3,0.3,0.5,0.5s0.3,0.3,0.5,0.5s0.3,0.3,0.5,0.5
	s0.3,0.3,0.5,0.5s0.3,0.3,0.5,0.5s0.3,0.3,0.5,0.5s0.3,0.3,0.5,0.5s0.3,0.3,0.5,0.5s0.3,0.3,0.5,0.5s0.3,0.3,0.5,0.5
	s0.3,0.3,0.5,0.5s0.3,0.3,0.5,0.5s0.3,0.3,0.5,0.5s0.3,0.3,0.5,0.5s0.3,0.3,0.5,0.5s0.3,0.3,0.5,0.5s0.3,0.3,0.5,0.5
	s0.3,0.3,0.5,0.5s0.3,0.3,0.5,0.5s0.3,0.3,0.5,0.5s0.3,0.3,0.5,0.5s0.3,0.3,0.5,0.5s0.3,0.3,0.5,0.5s0.3,0.3,0.5,0.5
	s0.3,0.3,0.5,0.5s0.3,0.3,0.5,0.5s0.3,0.3,0.5,0.5s0.3,0.3,0.5,0.5s0.3,0.3,0.5,0.5s0.3,0.3,0.5,0.5s0.3,0.3,0.5,0.5
	s0.3,0.3,0.5,0.5s0.3,0.3,0.5,0.5s0.3,0.3,0.5,0.5s0.3,0.3,0.5,0.5s0.3,0.3,0.5,0.5s0.3,0.3,0.5,0.5s0.3,0.3,0.5,0.5
	s0.3,0.3,0.5,0.5s0.3,0.3,0.5,0.5s0.3,0.3,0.5,0.5s0.3,0.3,0.5,0.5s0.3,0.3,0.5,0.5s0.3,0.3,0.5,0.5s0.3,0.3,0.5,0.5
	s0.3,0.3,0.5,0.5s0.3,0.3,0.5,0.5s0.3,0.3,0.5,0.5s0.3,0.3,0.5,0.5s0.3,0.3,0.5,0.5s0.3,0.3,0.5,0.5s0.3,0.3,0.5,0.5
	s0.3,0.3,0.5,0.5s0.3,0.3,0.5,0.5s0.3,0.3,0.5,0.5s0.3,0.3,0.5,0.5s0.3,0.3,0.5,0.5s0.3,0.3,0.5,0.5s0.3,0.3,0.5,0.5
	s0.3,0.3,0.5,0.5s0.3,0.3,0.5,0.5s0.3,0.3,0.5,0.5s0.3,0.3,0.5,0.5s0.3,0.3,0.5,0.5s0.3,0.3,0.5,0.5s0.3,0.3,0.5,0.5
	s0.3,0.3,0.5,0.5s0.3,0.3,0.5,0.5s0.3,0.3,0.5,0.5s0.3,0.3,0.5,0.5s0.3,0.3,0.5,0.5s0.3,0.3,0.5,0.5s0.3,0.3,0.5,0.5
	s0.3,0.3,0.5,0.5s0.3,0.3,0.5,0.5s0.3,0.3,0.5,0.5s0.3,0.3,0.5,0.5s0.3,0.3,0.5,0.5s0.3,0.3,0.5,0.5s0.3,0.3,0.5,0.5
	s0.3,0.3,0.5,0.5s0.3,0.3,0.5,0.5s0.3,0.3,0.5,0.5s0.3,0.3,0.5,0.5s0.3,0.3,0.5,0.5s0.3,0.3,0.5,0.5s0.3,0.3,0.5,0.5
	s0.3,0.3,0.5,0.5s0.3,0.3,0.5,0.5s0.3,0.3,0.5,0.5s0.3,0.3,0.5,0.5s0.3,0.3,0.5,0.5s0.3,0.3,0.5,0.5s0.3,0.3,0.5,0.5
	s0.3,0.3,0.5,0.5s0.3,0.3,0.5,0.5s0.3,0.3,0.5,0.5s0.3,0.3,0.5,0.5s0.3,0.3,0.5,0.5s0.3,0.3,0.5,0.5s0.3,0.3,0.5,0.5
	s0.3,0.3,0.5,0.5s0.3,0.3,0.5,0.5s0.3,0.3,0.5,0.5s0.3,0.3,0.5,0.5s0.3,0.3,0.5,0.5s0.3,0.3,0.5,0.5s0.3,0.3,0.5,0.5
	s0.3,0.3,0.5,0.5s0.3,0.3,0.5,0.5s0.3,0.3,0.5,0.5s0.3,0.3,0.5,0.5s0.3,0.3,0.5,0.5s0.3,0.3,0.5,0.5s0.3,0.3,0.5,0.5
	s0.3,0.3,0.5,0.5s0.3,0.3,0.5,0.5s0.3,0.3,0.5,0.5s0.3,0.3,0.5,0.5s0.3,0.3,0.5,0.5s0.3,0.3,0.5,0.5s0.3,0.3,0.5,0.5
	s0.3,0.3,0.5,0.5s0.3,0.3,0.5,0.5s0.3,0.3,0.5,0.5s0.3,0.3,0.5,0.5s0.3,0.3,0.5,0.5s0.3,0.3,0.5,0.5s0.3,0.3,0.5,0.5
	s0.3,0.3,0.5,0.5s0.3,0.3,0.5,0.5s0.3,0.3,0.5,0.5s0.3,0.3,0.5,0.5s0.3,0.3,0.5,0.5s0.3,0.3,0.5,0.5s0.3,0.3,0.5,0.5
	s0.3,0.3,0.5,0.5s0.3,0.3,0.5,0.5s0.3,0.3,0.5,0.5s0.3,0.3,0.5,0.5s0.3,0.3,0.5,0.5s0.3,0.3,0.5,0.5s0.3,0.3,0.5,0.5
	s0.3,0.3,0.5,0.5s0.3,0.3,0.5,0.5s0.3,0.3,0.5,0.5s0.3,0.3,0.5,0.5s0.3,0.3,0.5,0.5s0.3,0.3,0.5,0.5s0.3,0.3,0.5,0.5
	s0.3,0.3,0.5,0.5s0.3,0.3,0.5,0.5s0.3,0.3,0.5,0.5s0.3,0.3,0.5,0.5s0.3,0.3,0.5,0.5s0.3,0.3,0.5,0.5s0.3,0.3,0.5,0.5
	s0.3,0.3,0.5,0.5s0.3,0.3,0.5,0.5s0.3,0.3,0.5,0.5s0.3,0.3,0.5,0.5s0.3,0.3,0.5,0.5s0.3,0.3,0.5,0.5s0.3,0.3,0.5,0.5
	s0.3,0.3,0.5,0.5s0.3,0.3,0.5,0.5s0.3,0.3,0.5,0.5s0.3,0.3,0.5,0.5s0.3,0.3,0.5,0.5s0.3,0.3,0.5,0.5s0.3,0.3,0.5,0.5
	s0.3,0.3,0.5,0.5s0.3,0.3,0.5,0.5s0.3,0.3,0.5,0.5s0.3,0.3,0.5,0.5s0.3,0.3,0.5,0.5s0.3,0.3,0.5,0.5s0.3,0.3,0.5,0.5
	s0.3,0.3,0.5,0.5s0.3,0.3,0.5,0.5c0.1,0.1,0.2,0.2,0.4,0.4H982.7v-176c0-1.5-0.7-2.9-1.8-3.9c-0.2-0.2-0.3-0.3-0.5-0.5
	s-0.3-0.3-0.5-0.5s-0.3-0.3-0.5-0.5s-0.3-0.3-0.5-0.5s-0.3-0.3-0.5-0.5s-0.3-0.3-0.5-0.5s-0.3-0.3-0.5-0.5s-0.3-0.3-0.5-0.5
	s-0.3-0.3-0.5-0.5s-0.3-0.3-0.5-0.5s-0.3-0.3-0.5-0.5s-0.3-0.3-0.5-0.5s-0.3-0.3-0.5-0.5s-0.3-0.3-0.5-0.5s-0.3-0.3-0.5-0.5
	s-0.3-0.3-0.5-0.5s-0.3-0.3-0.5-0.5s-0.3-0.3-0.5-0.5s-0.3-0.3-0.5-0.5s-0.3-0.3-0.5-0.5s-0.3-0.3-0.5-0.5s-0.3-0.3-0.5-0.5
	s-0.3-0.3-0.5-0.5s-0.3-0.3-0.5-0.5s-0.3-0.3-0.5-0.5s-0.3-0.3-0.5-0.5s-0.3-0.3-0.5-0.5s-0.3-0.3-0.5-0.5s-0.3-0.3-0.5-0.5
	s-0.3-0.3-0.5-0.5s-0.3-0.3-0.5-0.5s-0.3-0.3-0.5-0.5s-0.3-0.3-0.5-0.5s-0.3-0.3-0.5-0.5s-0.3-0.3-0.5-0.5s-0.3-0.3-0.5-0.5
	s-0.3-0.3-0.5-0.5s-0.3-0.3-0.5-0.5s-0.3-0.3-0.5-0.5s-0.3-0.3-0.5-0.5s-0.3-0.3-0.5-0.5s-0.3-0.3-0.5-0.5s-0.3-0.3-0.5-0.5
	s-0.3-0.3-0.5-0.5s-0.3-0.3-0.5-0.5s-0.3-0.3-0.5-0.5s-0.3-0.3-0.5-0.5s-0.3-0.3-0.5-0.5s-0.3-0.3-0.5-0.5s-0.3-0.3-0.5-0.5
	s-0.3-0.3-0.5-0.5s-0.3-0.3-0.5-0.5s-0.3-0.3-0.5-0.5s-0.3-0.3-0.5-0.5s-0.3-0.3-0.5-0.5s-0.3-0.3-0.5-0.5s-0.3-0.3-0.5-0.5
	s-0.3-0.3-0.5-0.5s-0.3-0.3-0.5-0.5s-0.3-0.3-0.5-0.5s-0.3-0.3-0.5-0.5s-0.3-0.3-0.5-0.5s-0.3-0.3-0.5-0.5s-0.3-0.3-0.5-0.5
	s-0.3-0.3-0.5-0.5s-0.3-0.3-0.5-0.5s-0.3-0.3-0.5-0.5s-0.3-0.3-0.5-0.5s-0.3-0.3-0.5-0.5s-0.3-0.3-0.5-0.5s-0.3-0.3-0.5-0.5
	s-0.3-0.3-0.5-0.5s-0.3-0.3-0.5-0.5s-0.3-0.3-0.5-0.5s-0.3-0.3-0.5-0.5s-0.3-0.3-0.5-0.5s-0.3-0.3-0.5-0.5s-0.3-0.3-0.5-0.5
	s-0.3-0.3-0.5-0.5s-0.3-0.3-0.5-0.5s-0.3-0.3-0.5-0.5s-0.3-0.3-0.5-0.5s-0.3-0.3-0.5-0.5s-0.3-0.3-0.5-0.5s-0.3-0.3-0.5-0.5
	s-0.3-0.3-0.5-0.5s-0.3-0.3-0.5-0.5s-0.3-0.3-0.5-0.5s-0.3-0.3-0.5-0.5s-0.3-0.3-0.5-0.5s-0.3-0.3-0.5-0.5s-0.3-0.3-0.5-0.5
	s-0.3-0.3-0.5-0.5s-0.3-0.3-0.5-0.5s-0.3-0.3-0.5-0.5s-0.3-0.3-0.5-0.5s-0.3-0.3-0.5-0.5s-0.3-0.3-0.5-0.5s-0.3-0.3-0.5-0.5
	s-0.3-0.3-0.5-0.5s-0.3-0.3-0.5-0.5s-0.3-0.3-0.5-0.5s-0.3-0.3-0.5-0.5s-0.3-0.3-0.5-0.5s-0.3-0.3-0.5-0.5s-0.3-0.3-0.5-0.5
	s-0.3-0.3-0.5-0.5s-0.3-0.3-0.5-0.5s-0.3-0.3-0.5-0.5s-0.3-0.3-0.5-0.5s-0.3-0.3-0.5-0.5s-0.3-0.3-0.5-0.5s-0.3-0.3-0.5-0.5
	s-0.3-0.3-0.5-0.5s-0.3-0.3-0.5-0.5s-0.3-0.3-0.5-0.5s-0.3-0.3-0.5-0.5s-0.3-0.3-0.5-0.5s-0.3-0.3-0.5-0.5s-0.3-0.3-0.5-0.5
	s-0.3-0.3-0.5-0.5s-0.3-0.3-0.5-0.5s-0.3-0.3-0.5-0.5s-0.3-0.3-0.5-0.5s-0.3-0.3-0.5-0.5s-0.3-0.3-0.5-0.5s-0.3-0.3-0.5-0.5
	s-0.3-0.3-0.5-0.5s-0.3-0.3-0.5-0.5s-0.3-0.3-0.5-0.5s-0.3-0.3-0.5-0.5s-0.3-0.3-0.5-0.5s-0.3-0.3-0.5-0.5s-0.3-0.3-0.5-0.5
	s-0.3-0.3-0.5-0.5s-0.3-0.3-0.5-0.5s-0.3-0.3-0.5-0.5s-0.3-0.3-0.5-0.5s-0.3-0.3-0.5-0.5s-0.3-0.3-0.5-0.5s-0.3-0.3-0.5-0.5
	s-0.3-0.3-0.5-0.5s-0.3-0.3-0.5-0.5s-0.3-0.3-0.5-0.5s-0.3-0.3-0.5-0.5s-0.3-0.3-0.5-0.5s-0.3-0.3-0.5-0.5s-0.3-0.3-0.5-0.5
	s-0.3-0.3-0.5-0.5s-0.3-0.3-0.5-0.5s-0.3-0.3-0.5-0.5s-0.3-0.3-0.5-0.5s-0.3-0.3-0.5-0.5s-0.3-0.3-0.5-0.5s-0.3-0.3-0.5-0.5
	s-0.3-0.3-0.5-0.5s-0.3-0.3-0.5-0.5s-0.3-0.3-0.5-0.5s-0.3-0.3-0.5-0.5s-0.3-0.3-0.5-0.5s-0.3-0.3-0.5-0.5s-0.3-0.3-0.5-0.5
	s-0.3-0.3-0.5-0.5s-0.3-0.3-0.5-0.5s-0.3-0.3-0.5-0.5s-0.3-0.3-0.5-0.5s-0.3-0.3-0.5-0.5s-0.3-0.3-0.5-0.5s-0.3-0.3-0.5-0.5
	s-0.3-0.3-0.5-0.5s-0.3-0.3-0.5-0.5s-0.3-0.3-0.5-0.5s-0.3-0.3-0.5-0.5s-0.3-0.3-0.5-0.5s-0.3-0.3-0.5-0.5s-0.3-0.3-0.5-0.5
	s-0.3-0.3-0.5-0.5s-0.3-0.3-0.5-0.5s-0.3-0.3-0.5-0.5s-0.3-0.3-0.5-0.5s-0.3-0.3-0.5-0.5s-0.3-0.3-0.5-0.5s-0.3-0.3-0.5-0.5
	s-0.3-0.3-0.5-0.5s-0.3-0.3-0.5-0.5s-0.3-0.3-0.5-0.5s-0.3-0.3-0.5-0.5s-0.3-0.3-0.5-0.5s-0.3-0.3-0.5-0.5s-0.3-0.3-0.5-0.5
	s-0.3-0.3-0.5-0.5s-0.3-0.3-0.5-0.5s-0.3-0.3-0.5-0.5s-0.3-0.3-0.5-0.5s-0.3-0.3-0.5-0.5s-0.3-0.3-0.5-0.5s-0.3-0.3-0.5-0.5
	s-0.3-0.3-0.5-0.5s-0.3-0.3-0.5-0.5s-0.3-0.3-0.5-0.5s-0.3-0.3-0.5-0.5s-0.3-0.3-0.5-0.5s-0.3-0.3-0.5-0.5s-0.3-0.3-0.5-0.5
	s-0.3-0.3-0.5-0.5s-0.3-0.3-0.5-0.5s-0.3-0.3-0.5-0.5s-0.3-0.3-0.5-0.5s-0.3-0.3-0.5-0.5s-0.3-0.3-0.5-0.5s-0.3-0.3-0.5-0.5
	s-0.3-0.3-0.5-0.5s-0.3-0.3-0.5-0.5s-0.3-0.3-0.5-0.5s-0.3-0.3-0.5-0.5s-0.3-0.3-0.5-0.5s-0.3-0.3-0.5-0.5s-0.3-0.3-0.5-0.5
	s-0.3-0.3-0.5-0.5s-0.3-0.3-0.5-0.5s-0.3-0.3-0.5-0.5s-0.3-0.3-0.5-0.5s-0.3-0.3-0.5-0.5s-0.3-0.3-0.5-0.5s-0.3-0.3-0.5-0.5
	s-0.3-0.3-0.5-0.5s-0.3-0.3-0.5-0.5s-0.3-0.3-0.5-0.5s-0.3-0.3-0.5-0.5s-0.3-0.3-0.5-0.5s-0.3-0.3-0.5-0.5s-0.3-0.3-0.5-0.5
	s-0.3-0.3-0.5-0.5s-0.3-0.3-0.5-0.5s-0.3-0.3-0.5-0.5s-0.3-0.3-0.5-0.5s-0.3-0.3-0.5-0.5s-0.3-0.3-0.5-0.5s-0.3-0.3-0.5-0.5
	s-0.3-0.3-0.5-0.5s-0.3-0.3-0.5-0.5s-0.3-0.3-0.5-0.5s-0.3-0.3-0.5-0.5s-0.3-0.3-0.5-0.5s-0.3-0.3-0.5-0.5s-0.3-0.3-0.5-0.5
	s-0.3-0.3-0.5-0.5s-0.3-0.3-0.5-0.5s-0.3-0.3-0.5-0.5s-0.3-0.3-0.5-0.5s-0.3-0.3-0.5-0.5s-0.3-0.3-0.5-0.5s-0.3-0.3-0.5-0.5
	s-0.3-0.3-0.5-0.5s-0.3-0.3-0.5-0.5s-0.3-0.3-0.5-0.5s-0.3-0.3-0.5-0.5s-0.3-0.3-0.5-0.5s-0.3-0.3-0.5-0.5s-0.3-0.3-0.5-0.5
	s-0.3-0.3-0.5-0.5s-0.3-0.3-0.5-0.5s-0.3-0.3-0.5-0.5s-0.3-0.3-0.5-0.5s-0.3-0.3-0.5-0.5s-0.3-0.3-0.5-0.5s-0.3-0.3-0.5-0.5
	s-0.3-0.3-0.5-0.5s-0.3-0.3-0.5-0.5s-0.3-0.3-0.5-0.5s-0.3-0.3-0.5-0.5s-0.3-0.3-0.5-0.5s-0.3-0.3-0.5-0.5s-0.3-0.3-0.5-0.5
	s-0.3-0.3-0.5-0.5s-0.3-0.3-0.5-0.5s-0.3-0.3-0.5-0.5s-0.3-0.3-0.5-0.5s-0.3-0.3-0.5-0.5s-0.3-0.3-0.5-0.5s-0.3-0.3-0.5-0.5
	s-0.3-0.3-0.5-0.5s-0.3-0.3-0.5-0.5s-0.3-0.3-0.5-0.5s-0.3-0.3-0.5-0.5s-0.3-0.3-0.5-0.5s-0.3-0.3-0.5-0.5s-0.3-0.3-0.5-0.5
	s-0.3-0.3-0.5-0.5s-0.3-0.3-0.5-0.5s-0.3-0.3-0.5-0.5s-0.3-0.3-0.5-0.5s-0.3-0.3-0.5-0.5s-0.3-0.3-0.5-0.5s-0.3-0.3-0.5-0.5
	s-0.3-0.3-0.5-0.5s-0.3-0.3-0.5-0.5s-0.3-0.3-0.5-0.5s-0.3-0.3-0.5-0.5s-0.3-0.3-0.5-0.5s-0.3-0.3-0.5-0.5s-0.3-0.3-0.5-0.5
	s-0.3-0.3-0.5-0.5s-0.3-0.3-0.5-0.5s-0.3-0.3-0.5-0.5s-0.3-0.3-0.5-0.5s-0.3-0.3-0.5-0.5s-0.3-0.3-0.5-0.5s-0.3-0.3-0.5-0.5
	s-0.3-0.3-0.5-0.5s-0.3-0.3-0.5-0.5s-0.3-0.3-0.5-0.5s-0.3-0.3-0.5-0.5s-0.3-0.3-0.5-0.5s-0.3-0.3-0.5-0.5s-0.3-0.3-0.5-0.5
	s-0.3-0.3-0.5-0.5s-0.3-0.3-0.5-0.5s-0.3-0.3-0.5-0.5s-0.3-0.3-0.5-0.5s-0.3-0.3-0.5-0.5s-0.3-0.3-0.5-0.5s-0.3-0.3-0.5-0.5
	s-0.3-0.3-0.5-0.5s-0.3-0.3-0.5-0.5s-0.3-0.3-0.5-0.5s-0.3-0.3-0.5-0.5s-0.3-0.3-0.5-0.5s-0.3-0.3-0.5-0.5s-0.3-0.3-0.5-0.5
	s-0.3-0.3-0.5-0.5s-0.3-0.3-0.5-0.5s-0.3-0.3-0.5-0.5s-0.3-0.3-0.5-0.5s-0.3-0.3-0.5-0.5s-0.3-0.3-0.5-0.5s-0.3-0.3-0.5-0.5
	s-0.3-0.3-0.5-0.5s-0.3-0.3-0.5-0.5s-0.3-0.3-0.5-0.5s-0.3-0.3-0.5-0.5s-0.3-0.3-0.5-0.5s-0.3-0.3-0.5-0.5s-0.3-0.3-0.5-0.5
	s-0.3-0.3-0.5-0.5s-0.3-0.3-0.5-0.5s-0.3-0.3-0.5-0.5s-0.3-0.3-0.5-0.5s-0.3-0.3-0.5-0.5s-0.3-0.3-0.5-0.5s-0.3-0.3-0.5-0.5
	s-0.3-0.3-0.5-0.5s-0.3-0.3-0.5-0.5s-0.3-0.3-0.5-0.5s-0.3-0.3-0.5-0.5s-0.3-0.3-0.5-0.5s-0.3-0.3-0.5-0.5s-0.3-0.3-0.5-0.5
	s-0.3-0.3-0.5-0.5s-0.3-0.3-0.5-0.5s-0.3-0.3-0.5-0.5s-0.3-0.3-0.5-0.5s-0.3-0.3-0.5-0.5s-0.3-0.3-0.5-0.5s-0.3-0.3-0.5-0.5
	s-0.3-0.3-0.5-0.5s-0.3-0.3-0.5-0.5s-0.3-0.3-0.5-0.5s-0.3-0.3-0.5-0.5s-0.3-0.3-0.5-0.5s-0.3-0.3-0.5-0.5s-0.3-0.3-0.5-0.5
	s-0.3-0.3-0.5-0.5s-0.3-0.3-0.5-0.5s-0.3-0.3-0.5-0.5s-0.3-0.3-0.5-0.5s-0.3-0.3-0.5-0.5s-0.3-0.3-0.5-0.5s-0.3-0.3-0.5-0.5
	s-0.3-0.3-0.5-0.5s-0.3-0.3-0.5-0.5s-0.3-0.3-0.5-0.5s-0.3-0.3-0.5-0.5s-0.3-0.3-0.5-0.5s-0.3-0.3-0.5-0.5s-0.3-0.3-0.5-0.5
	s-0.3-0.3-0.5-0.5s-0.3-0.3-0.5-0.5s-0.3-0.3-0.5-0.5s-0.3-0.3-0.5-0.5s-0.3-0.3-0.5-0.5s-0.3-0.3-0.5-0.5s-0.3-0.3-0.5-0.5
	s-0.3-0.3-0.5-0.5s-0.3-0.3-0.5-0.5s-0.3-0.3-0.5-0.5s-0.3-0.3-0.5-0.5s-0.3-0.3-0.5-0.5s-0.3-0.3-0.5-0.5s-0.3-0.3-0.5-0.5
	s-0.3-0.3-0.5-0.5s-0.3-0.3-0.5-0.5s-0.3-0.3-0.5-0.5s-0.3-0.3-0.5-0.5s-0.3-0.3-0.5-0.5s-0.3-0.3-0.5-0.5s-0.3-0.3-0.5-0.5
	s-0.3-0.3-0.5-0.5s-0.3-0.3-0.5-0.5s-0.3-0.3-0.5-0.5s-0.3-0.3-0.5-0.5s-0.3-0.3-0.5-0.5s-0.3-0.3-0.5-0.5s-0.3-0.3-0.5-0.5
	s-0.3-0.3-0.5-0.5s-0.3-0.3-0.5-0.5s-0.3-0.3-0.5-0.5s-0.3-0.3-0.5-0.5s-0.3-0.3-0.5-0.5c-1.1-1.2-2.8-2-4.7-2L398.1,330
	c-3.3,0-6,2.4-6,5.4V417l-0.1-0.1c-0.2-0.2-0.3-0.3-0.5-0.5s-0.3-0.3-0.5-0.5s-0.3-0.3-0.5-0.5s-0.3-0.3-0.5-0.5s-0.3-0.3-0.5-0.5
	s-0.3-0.3-0.5-0.5s-0.3-0.3-0.5-0.5s-0.3-0.3-0.5-0.5s-0.3-0.3-0.5-0.5s-0.3-0.3-0.5-0.5s-0.3-0.3-0.5-0.5s-0.3-0.3-0.5-0.5
	s-0.3-0.3-0.5-0.5s-0.3-0.3-0.5-0.5s-0.3-0.3-0.5-0.5s-0.3-0.3-0.5-0.5s-0.3-0.3-0.5-0.5s-0.3-0.3-0.5-0.5s-0.3-0.3-0.5-0.5
	s-0.3-0.3-0.5-0.5s-0.3-0.3-0.5-0.5s-0.3-0.3-0.5-0.5s-0.3-0.3-0.5-0.5s-0.3-0.3-0.5-0.5s-0.3-0.3-0.5-0.5s-0.3-0.3-0.5-0.5
	s-0.3-0.3-0.5-0.5s-0.3-0.3-0.5-0.5s-0.3-0.3-0.5-0.5s-0.3-0.3-0.5-0.5s-0.3-0.3-0.5-0.5s-0.3-0.3-0.5-0.5s-0.3-0.3-0.5-0.5
	s-0.3-0.3-0.5-0.5s-0.3-0.3-0.5-0.5s-0.3-0.3-0.5-0.5s-0.3-0.3-0.5-0.5s-0.3-0.3-0.5-0.5s-0.3-0.3-0.5-0.5s-0.3-0.3-0.5-0.5
	s-0.3-0.3-0.5-0.5s-0.3-0.3-0.5-0.5s-0.3-0.3-0.5-0.5s-0.3-0.3-0.5-0.5s-0.3-0.3-0.5-0.5s-0.3-0.3-0.5-0.5s-0.3-0.3-0.5-0.5
	s-0.3-0.3-0.5-0.5s-0.3-0.3-0.5-0.5s-0.3-0.3-0.5-0.5s-0.3-0.3-0.5-0.5s-0.3-0.3-0.5-0.5s-0.3-0.3-0.5-0.5s-0.3-0.3-0.5-0.5
	s-0.3-0.3-0.5-0.5s-0.3-0.3-0.5-0.5s-0.3-0.3-0.5-0.5s-0.3-0.3-0.5-0.5s-0.3-0.3-0.5-0.5s-0.3-0.3-0.5-0.5s-0.3-0.3-0.5-0.5
	s-0.3-0.3-0.5-0.5s-0.3-0.3-0.5-0.5s-0.3-0.3-0.5-0.5s-0.3-0.3-0.5-0.5s-0.3-0.3-0.5-0.5s-0.3-0.3-0.5-0.5s-0.3-0.3-0.5-0.5
	s-0.3-0.3-0.5-0.5s-0.3-0.3-0.5-0.5s-0.3-0.3-0.5-0.5s-0.3-0.3-0.5-0.5s-0.3-0.3-0.5-0.5s-0.3-0.3-0.5-0.5s-0.3-0.3-0.5-0.5
	s-0.3-0.3-0.5-0.5s-0.3-0.3-0.5-0.5s-0.3-0.3-0.5-0.5s-0.3-0.3-0.5-0.5s-0.3-0.3-0.5-0.5s-0.3-0.3-0.5-0.5s-0.3-0.3-0.5-0.5
	s-0.3-0.3-0.5-0.5s-0.3-0.3-0.5-0.5s-0.3-0.3-0.5-0.5s-0.3-0.3-0.5-0.5s-0.3-0.3-0.5-0.5s-0.3-0.3-0.5-0.5s-0.3-0.3-0.5-0.5
	s-0.3-0.3-0.5-0.5s-0.3-0.3-0.5-0.5s-0.3-0.3-0.5-0.5s-0.3-0.3-0.5-0.5s-0.3-0.3-0.5-0.5s-0.3-0.3-0.5-0.5s-0.3-0.3-0.5-0.5
	s-0.3-0.3-0.5-0.5s-0.3-0.3-0.5-0.5s-0.3-0.3-0.5-0.5s-0.3-0.3-0.5-0.5s-0.3-0.3-0.5-0.5s-0.3-0.3-0.5-0.5s-0.3-0.3-0.5-0.5
	s-0.3-0.3-0.5-0.5s-0.3-0.3-0.5-0.5s-0.3-0.3-0.5-0.5s-0.3-0.3-0.5-0.5s-0.3-0.3-0.5-0.5s-0.3-0.3-0.5-0.5s-0.3-0.3-0.5-0.5
	s-0.3-0.3-0.5-0.5s-0.3-0.3-0.5-0.5s-0.3-0.3-0.5-0.5s-0.3-0.3-0.5-0.5s-0.3-0.3-0.5-0.5s-0.3-0.3-0.5-0.5s-0.3-0.3-0.5-0.5
	s-0.3-0.3-0.5-0.5s-0.3-0.3-0.5-0.5s-0.3-0.3-0.5-0.5s-0.3-0.3-0.5-0.5s-0.3-0.3-0.5-0.5s-0.3-0.3-0.5-0.5s-0.3-0.3-0.5-0.5
	s-0.3-0.3-0.5-0.5s-0.3-0.3-0.5-0.5s-0.3-0.3-0.5-0.5s-0.3-0.3-0.5-0.5s-0.3-0.3-0.5-0.5s-0.3-0.3-0.5-0.5s-0.3-0.3-0.5-0.5
	s-0.3-0.3-0.5-0.5s-0.3-0.3-0.5-0.5s-0.3-0.3-0.5-0.5s-0.3-0.3-0.5-0.5s-0.3-0.3-0.5-0.5s-0.3-0.3-0.5-0.5s-0.3-0.3-0.5-0.5
	s-0.3-0.3-0.5-0.5s-0.3-0.3-0.5-0.5s-0.3-0.3-0.5-0.5s-0.3-0.3-0.5-0.5s-0.3-0.3-0.5-0.5s-0.3-0.3-0.5-0.5s-0.3-0.3-0.5-0.5
	s-0.3-0.3-0.5-0.5s-0.3-0.3-0.5-0.5s-0.3-0.3-0.5-0.5s-0.3-0.3-0.5-0.5s-0.3-0.3-0.5-0.5s-0.3-0.3-0.5-0.5s-0.3-0.3-0.5-0.5
	s-0.3-0.3-0.5-0.5s-0.3-0.3-0.5-0.5s-0.3-0.3-0.5-0.5s-0.3-0.3-0.5-0.5s-0.3-0.3-0.5-0.5s-0.3-0.3-0.5-0.5s-0.3-0.3-0.5-0.5
	s-0.3-0.3-0.5-0.5s-0.3-0.3-0.5-0.5s-0.3-0.3-0.5-0.5s-0.3-0.3-0.5-0.5s-0.3-0.3-0.5-0.5s-0.3-0.3-0.5-0.5s-0.3-0.3-0.5-0.5
	s-0.3-0.3-0.5-0.5s-0.3-0.3-0.5-0.5s-0.3-0.3-0.5-0.5s-0.3-0.3-0.5-0.5s-0.3-0.3-0.5-0.5s-0.3-0.3-0.5-0.5s-0.3-0.3-0.5-0.5
	s-0.3-0.3-0.5-0.5s-0.3-0.3-0.5-0.5s-0.3-0.3-0.5-0.5s-0.3-0.3-0.5-0.5s-0.3-0.3-0.5-0.5s-0.3-0.3-0.5-0.5s-0.3-0.3-0.5-0.5
	s-0.3-0.3-0.5-0.5s-0.3-0.3-0.5-0.5s-0.3-0.3-0.5-0.5s-0.3-0.3-0.5-0.5s-0.3-0.3-0.5-0.5s-0.3-0.3-0.5-0.5s-0.3-0.3-0.5-0.5
	s-0.3-0.3-0.5-0.5s-0.3-0.3-0.5-0.5s-0.3-0.3-0.5-0.5s-0.3-0.3-0.5-0.5s-0.3-0.3-0.5-0.5s-0.3-0.3-0.5-0.5s-0.3-0.3-0.5-0.5
	s-0.3-0.3-0.5-0.5s-0.3-0.3-0.5-0.5s-0.3-0.3-0.5-0.5s-0.3-0.3-0.5-0.5s-0.3-0.3-0.5-0.5s-0.3-0.3-0.5-0.5s-0.3-0.3-0.5-0.5
	s-0.3-0.3-0.5-0.5s-0.3-0.3-0.5-0.5s-0.3-0.3-0.5-0.5s-0.3-0.3-0.5-0.5s-0.3-0.3-0.5-0.5s-0.3-0.3-0.5-0.5s-0.3-0.3-0.5-0.5
	s-0.3-0.3-0.5-0.5s-0.3-0.3-0.5-0.5s-0.3-0.3-0.5-0.5s-0.3-0.3-0.5-0.5s-0.3-0.3-0.5-0.5s-0.3-0.3-0.5-0.5s-0.3-0.3-0.5-0.5
	s-0.3-0.3-0.5-0.5s-0.3-0.3-0.5-0.5s-0.3-0.3-0.5-0.5s-0.3-0.3-0.5-0.5s-0.3-0.3-0.5-0.5s-0.3-0.3-0.5-0.5s-0.3-0.3-0.5-0.5
	s-0.3-0.3-0.5-0.5s-0.3-0.3-0.5-0.5s-0.3-0.3-0.5-0.5s-0.3-0.3-0.5-0.5s-0.3-0.3-0.5-0.5s-0.3-0.3-0.5-0.5s-0.3-0.3-0.5-0.5
	s-0.3-0.3-0.5-0.5s-0.3-0.3-0.5-0.5s-0.3-0.3-0.5-0.5s-0.3-0.3-0.5-0.5s-0.3-0.3-0.5-0.5s-0.3-0.3-0.5-0.5s-0.3-0.3-0.5-0.5
	s-0.3-0.3-0.5-0.5s-0.3-0.3-0.5-0.5s-0.3-0.3-0.5-0.5s-0.3-0.3-0.5-0.5s-0.3-0.3-0.5-0.5s-0.3-0.3-0.5-0.5s-0.3-0.3-0.5-0.5
	s-0.3-0.3-0.5-0.5s-0.3-0.3-0.5-0.5s-0.3-0.3-0.5-0.5s-0.3-0.3-0.5-0.5s-0.3-0.3-0.5-0.5s-0.3-0.3-0.5-0.5s-0.3-0.3-0.5-0.5
	s-0.3-0.3-0.5-0.5s-0.3-0.3-0.5-0.5s-0.3-0.3-0.5-0.5s-0.3-0.3-0.5-0.5s-0.3-0.3-0.5-0.5s-0.3-0.3-0.5-0.5s-0.3-0.3-0.5-0.5
	s-0.3-0.3-0.5-0.5s-0.3-0.3-0.5-0.5s-0.3-0.3-0.5-0.5s-0.3-0.3-0.5-0.5s-0.3-0.3-0.5-0.5s-0.3-0.3-0.5-0.5s-0.3-0.3-0.5-0.5
	s-0.3-0.3-0.5-0.5s-0.3-0.3-0.5-0.5s-0.3-0.3-0.5-0.5s-0.3-0.3-0.5-0.5s-0.3-0.3-0.5-0.5s-0.3-0.3-0.5-0.5s-0.3-0.3-0.5-0.5
	s-0.3-0.3-0.5-0.5c-0.2-0.2-0.3-0.3-0.5-0.5s-0.3-0.3-0.5-0.5s-0.3-0.3-0.5-0.5s-0.3-0.3-0.5-0.5s-0.3-0.3-0.5-0.5s-0.3-0.3-0.5-0.5
	s-0.3-0.3-0.5-0.5s-0.3-0.3-0.5-0.5s-0.3-0.3-0.5-0.5s-0.3-0.3-0.5-0.5s-0.3-0.3-0.5-0.5s-0.3-0.3-0.5-0.5s-0.3-0.3-0.5-0.5
	s-0.3-0.3-0.5-0.5s-0.3-0.3-0.5-0.5s-0.3-0.3-0.5-0.5s-0.3-0.3-0.5-0.5s-0.3-0.3-0.5-0.5s-0.3-0.3-0.5-0.5s-0.3-0.3-0.5-0.5
	s-0.3-0.3-0.5-0.5s-0.3-0.3-0.5-0.5s-0.3-0.3-0.5-0.5s-0.3-0.3-0.5-0.5s-0.3-0.3-0.5-0.5s-0.3-0.3-0.5-0.5s-0.3-0.3-0.5-0.5
	s-0.3-0.3-0.5-0.5s-0.3-0.3-0.5-0.5s-0.3-0.3-0.5-0.5s-0.3-0.3-0.5-0.5s-0.3-0.3-0.5-0.5s-0.3-0.3-0.5-0.5s-0.3-0.3-0.5-0.5
	s-0.3-0.3-0.5-0.5s-0.3-0.3-0.5-0.5s-0.3-0.3-0.5-0.5s-0.3-0.3-0.5-0.5s-0.3-0.3-0.5-0.5s-0.3-0.3-0.5-0.5s-0.3-0.3-0.5-0.5
	s-0.3-0.3-0.5-0.5s-0.3-0.3-0.5-0.5s-0.3-0.3-0.5-0.5s-0.3-0.3-0.5-0.5s-0.3-0.3-0.5-0.5s-0.3-0.3-0.5-0.5s-0.3-0.3-0.5-0.5
	s-0.3-0.3-0.5-0.5s-0.3-0.3-0.5-0.5c-0.2-0.2-0.3-0.3-0.5-0.5s-0.3-0.3-0.5-0.5s-0.3-0.3-0.5-0.5s-0.3-0.3-0.5-0.5s-0.3-0.3-0.5-0.5
	s-0.3-0.3-0.5-0.5s-0.3-0.3-0.5-0.5s-0.3-0.3-0.5-0.5s-0.3-0.3-0.5-0.5s-0.3-0.3-0.5-0.5s-0.3-0.3-0.5-0.5s-0.3-0.3-0.5-0.5
	s-0.3-0.3-0.5-0.5s-0.3-0.3-0.5-0.5s-0.3-0.3-0.5-0.5s-0.3-0.3-0.5-0.5s-0.3-0.3-0.5-0.5s-0.3-0.3-0.5-0.5s-0.3-0.3-0.5-0.5
	s-0.3-0.3-0.5-0.5s-0.3-0.3-0.5-0.5s-0.3-0.3-0.5-0.5c-0.8-0.9-1.9-1.5-3.1-1.5l-261.7-36.5c-2.4,0-4.3,2.3-4.3,5.1v217
	c0,1.6,0.7,3,1.7,4c0.2,0.2,0.3,0.3,0.5,0.5s0.3,0.3,0.5,0.5s0.3,0.3,0.5,0.5s0.3,0.3,0.5,0.5s0.3,0.3,0.5,0.5s0.3,0.3,0.5,0.5
	s0.3,0.3,0.5,0.5s0.3,0.3,0.5,0.5s0.3,0.3,0.5,0.5s0.3,0.3,0.5,0.5s0.3,0.3,0.5,0.5s0.3,0.3,0.5,0.5s0.3,0.3,0.5,0.5
	s0.3,0.3,0.5,0.5s0.3,0.3,0.5,0.5s0.3,0.3,0.5,0.5s0.3,0.3,0.5,0.5s0.3,0.3,0.5,0.5s0.3,0.3,0.5,0.5s0.3,0.3,0.5,0.5
	s0.3,0.3,0.5,0.5s0.3,0.3,0.5,0.5s0.3,0.3,0.5,0.5s0.3,0.3,0.5,0.5s0.3,0.3,0.5,0.5s0.3,0.3,0.5,0.5s0.3,0.3,0.5,0.5
	s0.3,0.3,0.5,0.5s0.3,0.3,0.5,0.5s0.3,0.3,0.5,0.5s0.3,0.3,0.5,0.5s0.3,0.3,0.5,0.5s0.3,0.3,0.5,0.5s0.3,0.3,0.5,0.5
	s0.3,0.3,0.5,0.5s0.3,0.3,0.5,0.5s0.3,0.3,0.5,0.5s0.3,0.3,0.5,0.5s0.3,0.3,0.5,0.5s0.3,0.3,0.5,0.5s0.3,0.3,0.5,0.5
	s0.3,0.3,0.5,0.5s0.3,0.3,0.5,0.5s0.3,0.3,0.5,0.5s0.3,0.3,0.5,0.5s0.3,0.3,0.5,0.5s0.3,0.3,0.5,0.5s0.3,0.3,0.5,0.5
	s0.3,0.3,0.5,0.5s0.3,0.3,0.5,0.5s0.3,0.3,0.5,0.5s0.3,0.3,0.5,0.5s0.3,0.3,0.5,0.5s0.3,0.3,0.5,0.5s0.3,0.3,0.5,0.5
	s0.3,0.3,0.5,0.5s0.3,0.3,0.5,0.5s0.3,0.3,0.5,0.5s0.3,0.3,0.5,0.5s0.3,0.3,0.5,0.5s0.3,0.3,0.5,0.5s0.3,0.3,0.5,0.5
	s0.3,0.3,0.5,0.5c0.2,0.2,0.3,0.3,0.5,0.5s0.3,0.3,0.5,0.5s0.3,0.3,0.5,0.5s0.3,0.3,0.5,0.5s0.3,0.3,0.5,0.5s0.3,0.3,0.5,0.5
	s0.3,0.3,0.5,0.5s0.3,0.3,0.5,0.5s0.3,0.3,0.5,0.5s0.3,0.3,0.5,0.5s0.3,0.3,0.5,0.5s0.3,0.3,0.5,0.5s0.3,0.3,0.5,0.5
	s0.3,0.3,0.5,0.5s0.3,0.3,0.5,0.5s0.3,0.3,0.5,0.5s0.3,0.3,0.5,0.5s0.3,0.3,0.5,0.5s0.3,0.3,0.5,0.5s0.3,0.3,0.5,0.5
	s0.3,0.3,0.5,0.5s0.3,0.3,0.5,0.5s0.3,0.3,0.5,0.5s0.3,0.3,0.5,0.5c0.2,0.2,0.3,0.3,0.5,0.5s0.3,0.3,0.5,0.5s0.3,0.3,0.5,0.5
	s0.3,0.3,0.5,0.5s0.3,0.3,0.5,0.5s0.3,0.3,0.5,0.5s0.3,0.3,0.5,0.5s0.3,0.3,0.5,0.5s0.3,0.3,0.5,0.5s0.3,0.3,0.5,0.5
	s0.3,0.3,0.5,0.5s0.3,0.3,0.5,0.5s0.3,0.3,0.5,0.5s0.3,0.3,0.5,0.5s0.3,0.3,0.5,0.5s0.3,0.3,0.5,0.5c0.2,0.2,0.3,0.3,0.5,0.5
	s0.3,0.3,0.5,0.5s0.3,0.3,0.5,0.5s0.3,0.3,0.5,0.5s0.3,0.3,0.5,0.5s0.3,0.3,0.5,0.5s0.3,0.3,0.5,0.5s0.3,0.3,0.5,0.5
	s0.3,0.3,0.5,0.5s0.3,0.3,0.5,0.5s0.3,0.3,0.5,0.5s0.3,0.3,0.5,0.5s0.3,0.3,0.5,0.5s0.3,0.3,0.5,0.5s0.3,0.3,0.5,0.5
	s0.3,0.3,0.5,0.5s0.3,0.3,0.5,0.5s0.3,0.3,0.5,0.5s0.3,0.3,0.5,0.5s0.3,0.3,0.5,0.5s0.3,0.3,0.5,0.5s0.3,0.3,0.5,0.5
	s0.3,0.3,0.5,0.5s0.3,0.3,0.5,0.5c0.2,0.2,0.3,0.3,0.5,0.5s0.3,0.3,0.5,0.5s0.3,0.3,0.5,0.5s0.3,0.3,0.5,0.5s0.3,0.3,0.5,0.5
	s0.3,0.3,0.5,0.5s0.3,0.3,0.5,0.5s0.3,0.3,0.5,0.5s0.3,0.3,0.5,0.5s0.3,0.3,0.5,0.5s0.3,0.3,0.5,0.5s0.3,0.3,0.5,0.5
	s0.3,0.3,0.5,0.5s0.3,0.3,0.5,0.5s0.3,0.3,0.5,0.5s0.3,0.3,0.5,0.5s0.3,0.3,0.5,0.5s0.3,0.3,0.5,0.5s0.3,0.3,0.5,0.5
	s0.3,0.3,0.5,0.5s0.3,0.3,0.5,0.5s0.3,0.3,0.5,0.5s0.3,0.3,0.5,0.5s0.3,0.3,0.5,0.5s0.3,0.3,0.5,0.5s0.3,0.3,0.5,0.5
	s0.3,0.3,0.5,0.5s0.3,0.3,0.5,0.5s0.3,0.3,0.5,0.5s0.3,0.3,0.5,0.5s0.3,0.3,0.5,0.5s0.3,0.3,0.5,0.5s0.3,0.3,0.5,0.5
	s0.3,0.3,0.5,0.5s0.3,0.3,0.5,0.5s0.3,0.3,0.5,0.5s0.3,0.3,0.5,0.5s0.3,0.3,0.5,0.5s0.3,0.3,0.5,0.5s0.3,0.3,0.5,0.5
	s0.3,0.3,0.5,0.5s0.3,0.3,0.5,0.5s0.3,0.3,0.5,0.5s0.3,0.3,0.5,0.5s0.3,0.3,0.5,0.5s0.3,0.3,0.5,0.5s0.3,0.3,0.5,0.5
	s0.3,0.3,0.5,0.5s0.3,0.3,0.5,0.5s0.3,0.3,0.5,0.5s0.3,0.3,0.5,0.5s0.3,0.3,0.5,0.5s0.3,0.3,0.5,0.5s0.3,0.3,0.5,0.5
	s0.3,0.3,0.5,0.5s0.3,0.3,0.5,0.5s0.3,0.3,0.5,0.5s0.3,0.3,0.5,0.5s0.3,0.3,0.5,0.5s0.3,0.3,0.5,0.5s0.3,0.3,0.5,0.5
	s0.3,0.3,0.5,0.5s0.3,0.3,0.5,0.5s0.3,0.3,0.5,0.5s0.3,0.3,0.5,0.5s0.3,0.3,0.5,0.5s0.3,0.3,0.5,0.5s0.3,0.3,0.5,0.5
	s0.3,0.3,0.5,0.5s0.3,0.3,0.5,0.5s0.3,0.3,0.5,0.5s0.3,0.3,0.5,0.5s0.3,0.3,0.5,0.5s0.3,0.3,0.5,0.5s0.3,0.3,0.5,0.5
	s0.3,0.3,0.5,0.5s0.3,0.3,0.5,0.5s0.3,0.3,0.5,0.5s0.3,0.3,0.5,0.5s0.3,0.3,0.5,0.5s0.3,0.3,0.5,0.5s0.3,0.3,0.5,0.5
	s0.3,0.3,0.5,0.5s0.3,0.3,0.5,0.5s0.3,0.3,0.5,0.5s0.3,0.3,0.5,0.5s0.3,0.3,0.5,0.5s0.3,0.3,0.5,0.5s0.3,0.3,0.5,0.5
	s0.3,0.3,0.5,0.5s0.3,0.3,0.5,0.5s0.3,0.3,0.5,0.5s0.3,0.3,0.5,0.5s0.3,0.3,0.5,0.5s0.3,0.3,0.5,0.5s0.3,0.3,0.5,0.5
	c0.2,0.2,0.3,0.3,0.5,0.5s0.3,0.3,0.5,0.5s0.3,0.3,0.5,0.5s0.3,0.3,0.5,0.5s0.3,0.3,0.5,0.5s0.3,0.3,0.5,0.5s0.3,0.3,0.5,0.5
	s0.3,0.3,0.5,0.5s0.3,0.3,0.5,0.5s0.3,0.3,0.5,0.5s0.3,0.3,0.5,0.5s0.3,0.3,0.5,0.5s0.3,0.3,0.5,0.5s0.3,0.3,0.5,0.5
	s0.3,0.3,0.5,0.5s0.3,0.3,0.5,0.5s0.3,0.3,0.5,0.5s0.3,0.3,0.5,0.5s0.3,0.3,0.5,0.5s0.3,0.3,0.5,0.5s0.3,0.3,0.5,0.5
	s0.3,0.3,0.5,0.5s0.3,0.3,0.5,0.5s0.3,0.3,0.5,0.5s0.3,0.3,0.5,0.5s0.3,0.3,0.5,0.5s0.3,0.3,0.5,0.5s0.3,0.3,0.5,0.5
	s0.3,0.3,0.5,0.5s0.3,0.3,0.5,0.5s0.3,0.3,0.5,0.5s0.3,0.3,0.5,0.5s0.3,0.3,0.5,0.5s0.3,0.3,0.5,0.5s0.3,0.3,0.5,0.5
	s0.3,0.3,0.5,0.5s0.3,0.3,0.5,0.5s0.3,0.3,0.5,0.5s0.3,0.3,0.5,0.5s0.3,0.3,0.5,0.5s0.3,0.3,0.5,0.5s0.3,0.3,0.5,0.5
	s0.3,0.3,0.5,0.5s0.3,0.3,0.5,0.5s0.3,0.3,0.5,0.5s0.3,0.3,0.5,0.5s0.3,0.3,0.5,0.5s0.3,0.3,0.5,0.5s0.3,0.3,0.5,0.5
	s0.3,0.3,0.5,0.5s0.3,0.3,0.5,0.5s0.3,0.3,0.5,0.5s0.3,0.3,0.5,0.5s0.3,0.3,0.5,0.5s0.3,0.3,0.5,0.5s0.3,0.3,0.5,0.5
	s0.3,0.3,0.5,0.5s0.3,0.3,0.5,0.5s0.3,0.3,0.5,0.5s0.3,0.3,0.5,0.5s0.3,0.3,0.5,0.5s0.3,0.3,0.5,0.5s0.3,0.3,0.5,0.5
	s0.3,0.3,0.5,0.5s0.3,0.3,0.5,0.5s0.3,0.3,0.5,0.5s0.3,0.3,0.5,0.5s0.3,0.3,0.5,0.5s0.3,0.3,0.5,0.5s0.3,0.3,0.5,0.5
	s0.3,0.3,0.5,0.5s0.3,0.3,0.5,0.5s0.3,0.3,0.5,0.5s0.3,0.3,0.5,0.5s0.3,0.3,0.5,0.5s0.3,0.3,0.5,0.5s0.3,0.3,0.5,0.5
	s0.3,0.3,0.5,0.5s0.3,0.3,0.5,0.5s0.3,0.3,0.5,0.5s0.3,0.3,0.5,0.5s0.3,0.3,0.5,0.5s0.3,0.3,0.5,0.5s0.3,0.3,0.5,0.5
	s0.3,0.3,0.5,0.5s0.3,0.3,0.5,0.5s0.3,0.3,0.5,0.5s0.3,0.3,0.5,0.5s0.3,0.3,0.5,0.5s0.3,0.3,0.5,0.5s0.3,0.3,0.5,0.5
	s0.3,0.3,0.5,0.5s0.3,0.3,0.5,0.5s0.3,0.3,0.5,0.5s0.3,0.3,0.5,0.5s0.3,0.3,0.5,0.5s0.3,0.3,0.5,0.5s0.3,0.3,0.5,0.5
	s0.3,0.3,0.5,0.5s0.3,0.3,0.5,0.5s0.3,0.3,0.5,0.5s0.3,0.3,0.5,0.5s0.3,0.3,0.5,0.5s0.3,0.3,0.5,0.5s0.3,0.3,0.5,0.5
	s0.3,0.3,0.5,0.5s0.3,0.3,0.5,0.5s0.3,0.3,0.5,0.5s0.3,0.3,0.5,0.5s0.3,0.3,0.5,0.5s0.3,0.3,0.5,0.5s0.3,0.3,0.5,0.5
	s0.3,0.3,0.5,0.5s0.3,0.3,0.5,0.5s0.3,0.3,0.5,0.5s0.3,0.3,0.5,0.5s0.3,0.3,0.5,0.5s0.3,0.3,0.5,0.5s0.3,0.3,0.5,0.5
	s0.3,0.3,0.5,0.5s0.3,0.3,0.5,0.5s0.3,0.3,0.5,0.5s0.3,0.3,0.5,0.5s0.3,0.3,0.5,0.5s0.3,0.3,0.5,0.5s0.3,0.3,0.5,0.5
	s0.3,0.3,0.5,0.5s0.3,0.3,0.5,0.5c0.2,0.2,0.3,0.3,0.5,0.5s0.3,0.3,0.5,0.5s0.3,0.3,0.5,0.5s0.3,0.3,0.5,0.5s0.3,0.3,0.5,0.5
	s0.3,0.3,0.5,0.5s0.3,0.3,0.5,0.5s0.3,0.3,0.5,0.5s0.3,0.3,0.5,0.5s0.3,0.3,0.5,0.5s0.3,0.3,0.5,0.5s0.3,0.3,0.5,0.5
	s0.3,0.3,0.5,0.5s0.3,0.3,0.5,0.5s0.3,0.3,0.5,0.5s0.3,0.3,0.5,0.5s0.3,0.3,0.5,0.5s0.3,0.3,0.5,0.5s0.3,0.3,0.5,0.5
	s0.3,0.3,0.5,0.5s0.3,0.3,0.5,0.5s0.3,0.3,0.5,0.5s0.3,0.3,0.5,0.5s0.3,0.3,0.5,0.5s0.3,0.3,0.5,0.5s0.3,0.3,0.5,0.5
	s0.3,0.3,0.5,0.5s0.3,0.3,0.5,0.5s0.3,0.3,0.5,0.5s0.3,0.3,0.5,0.5s0.3,0.3,0.5,0.5s0.3,0.3,0.5,0.5s0.3,0.3,0.5,0.5
	s0.3,0.3,0.5,0.5s0.3,0.3,0.5,0.5s0.3,0.3,0.5,0.5s0.3,0.3,0.5,0.5s0.3,0.3,0.5,0.5s0.3,0.3,0.5,0.5s0.3,0.3,0.5,0.5
	s0.3,0.3,0.5,0.5s0.3,0.3,0.5,0.5s0.3,0.3,0.5,0.5s0.3,0.3,0.5,0.5s0.3,0.3,0.5,0.5s0.3,0.3,0.5,0.5s0.3,0.3,0.5,0.5
	s0.3,0.3,0.5,0.5s0.3,0.3,0.5,0.5s0.3,0.3,0.5,0.5s0.3,0.3,0.5,0.5s0.3,0.3,0.5,0.5s0.3,0.3,0.5,0.5s0.3,0.3,0.5,0.5
	s0.3,0.3,0.5,0.5s0.3,0.3,0.5,0.5s0.3,0.3,0.5,0.5s0.3,0.3,0.5,0.5s0.3,0.3,0.5,0.5s0.3,0.3,0.5,0.5s0.3,0.3,0.5,0.5
	s0.3,0.3,0.5,0.5s0.3,0.3,0.5,0.5s0.3,0.3,0.5,0.5s0.3,0.3,0.5,0.5s0.3,0.3,0.5,0.5s0.3,0.3,0.5,0.5s0.3,0.3,0.5,0.5L431.2,579.8z"
	/>
<polygon class="st4" points="1427.7,467.2 1606.7,463 1919.1,471.3 1919.1,475 1426,475 "/>
<polygon class="st5" points="1916.8,991.6 1590.4,991.6 1590.4,477.6 1916.8,481 "/>
<polygon class="st6" points="1916.8,839.7 1603.4,839.7 1606.7,560.6 1919.1,562.3 "/>
<polygon class="st7" points="1918.5,682.7 1916.8,839.7 1753.6,839.7 "/>
<polygon class="st8" points="1604,1031.2 1592.4,1033.7 1603.8,560.6 1607.9,560.6 "/>
<rect x="399.6" y="718.3" class="st9" width="51.5" height="291.3"/>
<rect x="233.2" y="484.6" class="st10" width="17.2" height="525"/>
<polygon class="st11" points="1430.7,926.2 1591.1,1039 1602.3,480.3 1426,480.3 "/>
<polygon class="st12" points="1430.7,1018 1591.1,1039 1602.3,718.6 1426,718.6 "/>
<rect x="1412.8" y="738.1" class="st9" width="51.5" height="133.1"/>
<polygon class="st13" points="451,767.7 399.6,762.3 399.6,755.1 451,755.1 "/>
<polygon class="st13" points="1464.2,772 1412.8,759.6 1412.8,755.1 1464.2,755.1 "/>
<rect x="230.7" y="733.3" class="st14" width="1419.8" height="23"/>
<polygon class="st15" points="230.7,734.1 496.1,631 1384.9,631 1650.5,734.5 "/>
<ellipse class="st16" cx="952.6" cy="656.4" rx="62.9" ry="7.1"/>
<ellipse class="st16" cx="1121.7" cy="649.3" rx="84.1" ry="7.1"/>
<polygon class="st17" points="1608,480.8 1508,481 1508,469 1608,466.9 "/>
<path class="st18" d="M1135.4,569H783.7c-2.2,0-4-1.8-4-4V347.6c0-2.2,1.8-4,4-4h351.7c2.2,0,4,1.8,4,4V565
	C1139.4,567.2,1137.7,569,1135.4,569z"/>
<path class="st19" d="M1139.4,445.8V563c0,3.3-2.7,6-6,6H785.7c-3.3,0-6-2.7-6-6V445.8H1139.4z"/>
<rect x="793.7" y="354.1" class="st20" width="333.2" height="190.3"/>
<polygon class="st21" points="793.7,354.1 793.7,544.4 984,354.1 "/>
<rect x="941.1" y="569" class="st19" width="22.5" height="35"/>
<path class="st22" d="M909.2,604c-7.1,0-12.8,11.3-12.8,25.7s6,26.3,13.1,26.3h75.8c9.9,0,16.7-9,16.7-18.9v-15.8
	c0-9.9-6.8-17.3-16.7-17.3H909.2z"/>
<path class="st23" d="M985.7,603.9H953v52h32.3c9.9,0,16.7-9,16.7-18.9v-15.8C1002,611.3,995.7,603.9,985.7,603.9z"/>
<circle class="st24" cx="952.4" cy="629.4" r="19.9"/>
<path class="st25" d="M952.4,649.3c11,0,19.9-8.9,19.9-19.9s-8.9-19.9-19.9-19.9V649.3z"/>
<circle class="st26" cx="952.4" cy="629.4" r="5.4"/>
<path class="st27" d="M952.4,634.8c3,0,5.4-2.4,5.4-5.4s-2.4-5.4-5.4-5.4V634.8z"/>
<path class="st28" d="M229.4,720.8"/>
<polygon class="st29" points="1315.6,864.7 1181.8,782.7 1313.8,782.3 1471.2,864 "/>
<polygon class="st30" points="1258.8,829.4 1181.8,782.7 1313.8,782.3 1372.3,812.7 "/>
<polygon class="st8" points="1611.1,556.3 1603.7,556.3 1604.4,485.4 1610.6,485.4 "/>
<polygon class="st31" points="1181.8,782.7 1179.4,1005.8 1317,1044.1 1317,864.5 "/>
<polygon class="st6" points="1918.7,558 1606.7,556.3 1606.7,485.4 1918.7,493.1 "/>
<polyline class="st32" points="1916.8,842.6 1916.8,856.6 1603.4,856.3 1603.4,842.6 "/>
<polygon class="st6" points="1919.1,488.3 1607.4,480.8 1607.4,466.9 1919.1,475 "/>
<path class="st33" d="M1804.4,513.7l-75.1-1.4c-7.5-0.1-13.4-6.2-13.4-13.7v-10.5l102.5,2.5v9.4
	C1818.3,507.6,1812.1,513.8,1804.4,513.7z"/>
<path class="st34" d="M104.8,431.1c0,0-10.5,31.5,111.4,31.5"/>
<path class="st34" d="M111.3,433.1c0,0,27.5,26,104.9,26"/>
<rect x="941.1" y="569" class="st20" width="22.5" height="2.2"/>
<path class="st18" d="M1521.1,569h-368.6c-3.3,0-6-2.7-6-6V349.6c0-3.3,2.7-6,6-6l368.6-13.3c3.3,0,6,2.7,6,6V563
	C1527.1,566.3,1524.4,569,1521.1,569z"/>
<path class="st19" d="M1527.1,445.8v122c0,3.3-2.8,6-6.3,6l-368-4.9c-3.5,0-6.3-2.7-6.3-6V445.8H1527.1z"/>
<polygon class="st20" points="1514,547.7 1163.4,544.5 1163.4,354.1 1514,343.6 "/>
<polygon class="st21" points="1163.4,354.1 1163.4,544.4 1363.5,354.1 "/>
<path class="st18" d="M398.1,568.7h368.6c3.3,0,6-2.7,6-6V349.3c0-3.3-2.7-6-6-6L398.1,330c-3.3,0-6,2.7-6,6v226.6
	C392.1,566,394.8,568.7,398.1,568.7z"/>
<path class="st19" d="M392.1,445.5v122c0,3.3,2.8,6,6.3,6l368-4.9c3.5,0,6.3-2.7,6.3-6V445.5H392.1z"/>
<polygon class="st20" points="407.1,549.6 757.7,547 757.7,351.9 407.1,341.4 "/>
<polygon class="st21" points="407.1,341.4 407.1,544.1 607.2,347.4 "/>
<path class="st10" d="M233.7,455.5h-17.9c-0.6,0-1.1,0.5-1.1,1V471c0,0.6,0.5,1,1.1,1h16.5c0.6,0,1.1,0.5,1.1,1v13
	c0,0.6,0.5,1,1.1,1h14.9c0.6,0,1.1-0.5,1.1-1v-14.7v-14.7c0-0.6-0.5-1-1.1-1L233.7,455.5L233.7,455.5z"/>
<path class="st18" d="M-44.8,434h261.7c2.4,0,4.3-2.3,4.3-5.1V248.4c0-2.8-1.9-5.1-4.3-5.1l-261.7-36.5c-2.4,0-4.3,2.3-4.3,5.1V429
	C-49.1,431.7-47.2,434-44.8,434z"/>
<path class="st19" d="M-49.1,329.8v103.3c0,2.8,2,5.1,4.5,5.1l261.3-4.1c2.5,0,4.5-2.3,4.5-5.1v-99.2H-49.1z"/>
<polygon class="st20" points="-38.4,417.9 210.5,417.9 210.5,250.5 -38.4,216.3 "/>
<polygon class="st21" points="-38.4,216.3 -38.4,413.2 39.6,227.1 "/>
<rect x="1139.4" y="436.8" class="st20" width="7" height="18.2"/>
<rect x="772.7" y="436.8" class="st20" width="7" height="18.2"/>
<path class="st25" d="M912.6,645.5h-2.2c-1.2,0-2.2-1-2.2-2.2V616c0-1.2,1-2.2,2.2-2.2h2.2c1.2,0,2.2,1,2.2,2.2v27.3
	C914.9,644.5,913.9,645.5,912.6,645.5z"/>
<path class="st25" d="M991.2,645.5H989c-1.2,0-2.2-1-2.2-2.2V616c0-1.2,1-2.2,2.2-2.2h2.2c1.2,0,2.2,1,2.2,2.2v27.3
	C993.4,644.5,992.4,645.5,991.2,645.5z"/>
<rect x="1315.6" y="864" class="st35" width="155.6" height="180.1"/>
<circle class="st36" cx="1351.8" cy="884.7" r="6.5"/>
<polygon class="st37" points="1294.7,871.3 1192.2,805.8 1189.5,993.3 1289.9,1009.6 "/>
<polygon class="st38" points="1241.9,837.5 1192.2,805.8 1189.5,993.3 1241.9,871.3 "/>
<circle class="st39" cx="207.6" cy="426.3" r="2.3"/>
<path class="st40" d="M207.6,428.6c1.3,0,2.3-1,2.3-2.3s-1-2.3-2.3-2.3V428.6z"/>
<circle class="st39" cx="753.6" cy="556.5" r="4.1"/>
<path class="st40" d="M753.6,560.6c2.3,0,4.1-1.8,4.1-4.1s-1.8-4.1-4.1-4.1V560.6z"/>
<circle class="st39" cx="1122.8" cy="556.5" r="4.1"/>
<path class="st40" d="M1122.8,560.6c2.3,0,4.1-1.8,4.1-4.1s-1.8-4.1-4.1-4.1V560.6z"/>
<circle class="st39" cx="1509.9" cy="560.6" r="4.1"/>
<path class="st40" d="M1509.9,564.7c2.3,0,4.1-1.8,4.1-4.1s-1.8-4.1-4.1-4.1V564.7z"/>
<path class="st41" d="M1805.5,508.1l-77.9-1.7c-2.4-0.1-4.4-2.1-4.3-4.5l0.1-5.6c0.1-2.4,2.1-4.4,4.5-4.3l77.9,1.7
	c2.4,0.1,4.4,2.1,4.3,4.5l-0.1,5.6C1810,506.2,1808,508.2,1805.5,508.1z"/>
<path class="st42" d="M1768.2,507.3l35.3,0.8c3.6,0.1,6.5-2.8,6.6-6.5v-1.2c0.1-3.7-2.8-6.7-6.3-6.8l-35.6-0.8V507.3z"/>
<path class="st33" d="M1801.2,584.4l-75.1-0.2c-7.5-0.1-13.4-6.2-13.4-13.7v-9.4l102.5,0.6v10.2
	C1815.2,579.6,1808.9,584.6,1801.2,584.4z"/>
<path class="st41" d="M1800.6,580l-73.4-1c-3.7,0-6.6-3.1-6.6-6.7v-1.2c0-3.7,3.1-6.6,6.7-6.6l73.4,0.4c3.7,0,6.6,3.1,6.6,6.7v1.7
	C1807.3,577.1,1804.2,580,1800.6,580z"/>
<path class="st42" d="M1763.9,579.5l36.6,0.5c3.7,0,6.7-2.9,6.7-6.6v-1.7c0-3.7-2.9-6.7-6.6-6.7l-36.8-0.2L1763.9,579.5z"/>
<g>
	<rect x="1603.4" y="859.8" class="st6" width="313.4" height="66.7"/>
	<path class="st33" d="M1804.1,882.9l-75.1-0.2c-7.5-0.1-13.4-6.2-13.4-13.7v-9.4l102.5,0.6v10.2C1818,878,1811.7,883,1804.1,882.9z
		"/>
	<path class="st41" d="M1803.4,878.4l-73.4-1c-3.7,0-6.6-3.1-6.6-6.7v-1.2c0-3.7,3.1-6.6,6.7-6.6l73.4,0.4c3.7,0,6.6,3.1,6.6,6.7
		v1.7C1810.1,875.5,1807,878.5,1803.4,878.4z"/>
	<path class="st42" d="M1766.8,878l36.6,0.5c3.7,0,6.7-2.9,6.7-6.6v-1.7c0-3.7-2.9-6.7-6.6-6.7l-36.8-0.2L1766.8,878z"/>
</g>
<g>
	<rect x="1604.5" y="930.1" class="st6" width="313.4" height="66.7"/>
	<path class="st33" d="M1805.2,953.2l-75.1-0.2c-7.5-0.1-13.4-6.2-13.4-13.7v-9.4l102.5,0.6v10.2
		C1819.1,948.3,1812.8,953.3,1805.2,953.2z"/>
	<path class="st41" d="M1804.5,948.7l-73.4-1c-3.7,0-6.6-3.1-6.6-6.7v-1.2c0-3.7,3.1-6.6,6.7-6.6l73.4,0.4c3.7,0,6.6,3.1,6.6,6.7
		v1.7C1811.2,945.8,1808.1,948.8,1804.5,948.7z"/>
	<path class="st42" d="M1767.9,948.3l36.6,0.5c3.7,0,6.7-2.9,6.7-6.6v-1.7c0-3.7-2.9-6.7-6.6-6.7l-36.8-0.2L1767.9,948.3z"/>
</g>
<path class="st43" d="M1174.7,650.1l-113.3,1.6c-6.8,0.3-12.5-5.1-12.8-11.8l-1.3-34c-0.3-6.8,5.1-12.5,11.8-12.8l113.3-1.6
	c6.8-0.3,12.5,5.1,12.8,11.8l1.3,34C1186.8,644,1181.5,649.8,1174.7,650.1z"/>
<path class="st44" d="M1177.7,649.9l-113.3,1.6c-6.8,0.3-12.5-5.1-12.8-11.8l-1.3-34c-0.3-6.8,5.1-12.5,11.8-12.8l113.3-1.6
	c6.8-0.3,12.5,5.1,12.8,11.8l1.3,34C1189.8,643.9,1184.5,649.7,1177.7,649.9z"/>
<path class="st20" d="M1170,643.9l-98.3,1.1c-6.8,0.3-12.5-5.1-12.8-11.8l-0.8-21.3c-0.3-6.8,5.1-12.5,11.8-12.8l98.3-1.1
	c6.8-0.3,12.5,5.1,12.8,11.8l0.8,21.3C1182.1,637.9,1176.8,643.6,1170,643.9z"/>
<polygon class="st16" points="1088.7,721.1 816,721.1 834.5,686.9 1070.2,686.9 "/>
<polygon class="st23" points="1082,712.8 822.7,712.8 840.3,678.6 1064.4,678.6 "/>
<rect x="822.7" y="712.8" class="st22" width="259.3" height="5.8"/>
<g>
	<rect x="870.3" y="706.9" class="st24" width="153.2" height="3.2"/>
	<polygon class="st24" points="1064.5,698.4 1049.4,698.4 1047.3,695.1 1062.3,695.1 	"/>
	<g>
		<polygon class="st24" points="850.6,704 842.5,704 844.5,701 852.6,701 		"/>
		<polygon class="st24" points="868,704 859.7,704 861.4,701 869.7,701 		"/>
		<polygon class="st24" points="885.3,704 877.1,704 878.5,701 886.7,701 		"/>
		<polygon class="st24" points="902.7,704 894.5,704 895.6,701 903.7,701 		"/>
		<polygon class="st24" points="920.1,704 911.9,704 912.5,701 920.7,701 		"/>
		<polygon class="st24" points="937.5,704 929.3,704 929.6,701 937.8,701 		"/>
		<rect x="946.5" y="701" class="st24" width="7.8" height="3"/>
		<polygon class="st24" points="964.1,704 963.7,701 971.8,701 972.1,704 		"/>
		<polygon class="st24" points="981.4,704 980.7,701 988.9,701 989.7,704 		"/>
		<polygon class="st24" points="998.8,704 997.7,701 1006,701 1007.1,704 		"/>
		<polygon class="st24" points="1016.2,704 1014.8,701 1023,701 1024.4,704 		"/>
		<polygon class="st24" points="1033.6,704 1031.9,701 1040.1,701 1041.8,704 		"/>
		<polygon class="st24" points="1051,704 1059.2,704 1057.2,701 1049,701 		"/>
	</g>
	<g>
		<polygon class="st24" points="853.8,698 846.2,698 848.2,695 855.7,695 		"/>
		<polygon class="st24" points="869.8,698 862.4,698 863.9,695 871.4,695 		"/>
		<polygon class="st24" points="885.8,698 878.4,698 879.6,695 887.1,695 		"/>
		<polygon class="st24" points="901.8,698 894.4,698 895.3,695 902.7,695 		"/>
		<polygon class="st24" points="917.8,698 910.3,698 911,695 918.4,695 		"/>
		<polygon class="st24" points="933.8,698 926.3,698 926.6,695 934.1,695 		"/>
		<rect x="941.9" y="695" class="st24" width="7.8" height="3"/>
		<polygon class="st24" points="958.3,698 958,695 965.6,695 965.9,698 		"/>
		<polygon class="st24" points="974.3,698 973.7,695 981.3,695 981.9,698 		"/>
		<polygon class="st24" points="990.4,698 989.5,695 997,695 997.9,698 		"/>
		<polygon class="st24" points="1006.4,698 1005.2,695 1012.8,695 1014,698 		"/>
		<polygon class="st24" points="1022.4,698 1020.9,695 1028.5,695 1030,698 		"/>
		<polygon class="st24" points="1038.6,698 1046,698 1044.2,695 1036.7,695 		"/>
	</g>
	<g>
		<polygon class="st24" points="860.4,692 853.4,692 855.1,689 862.1,689 		"/>
		<polygon class="st24" points="875.3,692 868.3,692 869.7,689 876.7,689 		"/>
		<polygon class="st24" points="890.2,692 883,692 884.3,689 891.2,689 		"/>
		<polygon class="st24" points="904.9,692 897.9,692 898.9,689 905.8,689 		"/>
		<polygon class="st24" points="919.8,692 912.8,692 913.4,689 920.4,689 		"/>
		<polygon class="st24" points="934.7,692 927.7,692 928,689 935,689 		"/>
		<rect x="941.9" y="689" class="st24" width="7.8" height="3"/>
		<polygon class="st24" points="957.5,692 957.2,689 964.2,689 964.5,692 		"/>
		<polygon class="st24" points="972.4,692 971.8,689 978.8,689 979.4,692 		"/>
		<polygon class="st24" points="987.3,692 986.4,689 993.4,689 994.3,692 		"/>
		<polygon class="st24" points="1002.2,692 1001,689 1008,689 1009.2,692 		"/>
		<polygon class="st24" points="1017.2,692 1015.6,689 1022.7,689 1024.1,692 		"/>
		<polygon class="st24" points="1032.1,692 1039,692 1037.3,689 1030.3,689 		"/>
	</g>
	<g>
		<polygon class="st24" points="856.9,686 849.6,686 851.5,683 858.8,683 		"/>
		<polygon class="st24" points="872.5,686 865.2,686 866.7,683 874,683 		"/>
		<polygon class="st24" points="887.8,686 880.5,686 881.8,683 889.1,683 		"/>
		<polygon class="st24" points="903.4,686 896.1,686 897,683 904.3,683 		"/>
		<polygon class="st24" points="918.7,686 911.4,686 912,683 919.3,683 		"/>
		<polygon class="st24" points="934.2,686 927,686 927.3,683 934.6,683 		"/>
		<rect x="941.9" y="683" class="st24" width="7.8" height="3"/>
		<polygon class="st24" points="957.8,686 957.5,683 964.8,683 965.1,686 		"/>
		<polygon class="st24" points="973.4,686 972.8,683 980,683 980.7,686 		"/>
		<polygon class="st24" points="988.9,686 988,683 995.3,683 996.2,686 		"/>
		<polygon class="st24" points="1004.4,686 1003.2,683 1010.5,683 1011.7,686 		"/>
		<polygon class="st24" points="1019.9,686 1018.4,683 1025.7,683 1027.2,686 		"/>
		<polygon class="st24" points="1035.5,686 1042.8,686 1040.9,683 1033.6,683 		"/>
	</g>
</g>
<g>
	<path class="st45" d="M1108.1,693.4L1108.1,693.4c-0.5,0.2-0.8,0.2-1,0l-2.7-3.5c-0.2-0.3,0-0.6,0.5-1l0,0c0.5-0.2,0.8-0.2,1,0.2
		l2.7,3.5C1108.6,692.7,1108.4,693.2,1108.1,693.4z"/>
	<path class="st46" d="M1111.2,715.6L1111.2,715.6c-6.6,1.1-12.7-2.6-13.5-8.1l-3.7-9.2c-2.9-5.8-0.5-10.3,6.1-11.3l7.1,6.1l1.4-0.3
		l-4.8-6.9c6.6-1.1,11,2.9,14,8.4l3.7,9.2C1122.3,709.2,1117.8,714.5,1111.2,715.6z"/>
	<path class="st23" d="M1112.2,715L1112.2,715c-6.6,1.1-12.7-2.6-13.5-8.1l-3.7-9.2c-2.9-5.8-0.5-10.3,6.1-11.3l6.1,6.8l1.8-0.3
		l-4.8-6.9c6.6-1.1,11.8,2.4,14.7,7.9l3.7,9.2C1123.3,708.5,1118.6,713.8,1112.2,715z"/>
</g>
<path class="st47" d="M1048.1,691.2"/>
<path class="st48" d="M1753.6,244.6h-2.9c-2.2,0-4.1,1.8-4.1,4.1v54.2c0,0.8-0.2,1.5-0.6,2.2l-42.2,55.7v87.7h11V360l42.2-54
	c0.4-0.7,0.6-1.4,0.6-2.2v-55.1C1757.7,246.4,1755.9,244.6,1753.6,244.6z"/>
<path class="st49" d="M1715.8,216.3c13.7,4.7,21.1,19.6,16.4,33.4l-19.6,57.3l1.3,0.5l-1.5,4.2l-27.3-9.3L1715.8,216.3z"/>
<path class="st46" d="M1717.3,450.1h-15c-1.4,0-2.4-1.1-2.4-2.4v-3.4c0-1.4,1.1-2.4,2.4-2.4h15c1.4,0,2.4,1.1,2.4,2.4v3.4
	C1719.8,449,1718.7,450.1,1717.3,450.1z"/>
<path class="st50" d="M1711,450.1h6.3c1.4,0,2.4-1.1,2.4-2.4v-3.4c0-1.4-1.1-2.4-2.4-2.4h-6.3V450.1z"/>
<path class="st46" d="M1757.3,464.3h-98c-1.9,0-3.5-1.6-3.5-3.5v-1.9c0-1.9,1.6-3.5,3.5-3.5h98c1.9,0,3.5,1.6,3.5,3.5v1.9
	C1760.8,462.8,1759.2,464.3,1757.3,464.3z"/>
<path class="st46" d="M1744.5,457.3h-72.4c-0.9,0-1.6-0.7-1.6-1.6V450c0-0.9,0.7-1.6,1.6-1.6h72.4c0.9,0,1.6,0.7,1.6,1.6v5.7
	C1746.1,456.6,1745.4,457.3,1744.5,457.3z"/>
<path class="st50" d="M1725,457.3h19.5c0.8,0,1.5-0.7,1.5-1.6V450c0-0.9-0.7-1.6-1.5-1.6H1725V457.3z"/>
<path class="st50" d="M1725,464.3h32.3c1.9,0,3.5-1.6,3.5-3.5v-1.9c0-1.9-1.6-3.5-3.5-3.5H1725V464.3z"/>
<rect x="1674.1" y="256.8" class="st46" width="91" height="8.2"/>
<g>
	
		<rect x="1577.1" y="639.9" transform="matrix(0.1943 -0.9809 0.9809 0.1943 649.5411 2074.9131)" class="st18" width="21.5" height="4.2"/>
	
		<rect x="1578.2" y="641.2" transform="matrix(0.1943 -0.9809 0.9809 0.1943 650.1328 2076.0935)" class="st51" width="21.5" height="2.1"/>
	
		<rect x="1493.9" y="623.4" transform="matrix(0.1943 -0.9809 0.9809 0.1943 598.7057 1979.9833)" class="st18" width="21.5" height="4.2"/>
	
		<rect x="1494.9" y="624.7" transform="matrix(0.1943 -0.9809 0.9809 0.1943 599.1931 1981.1104)" class="st51" width="21.5" height="2.1"/>
	<path class="st52" d="M1506.4,674.5l-5.2-1c-1-0.2-1.6-1.1-1.4-2.1l7.5-37.7c0.2-1,1.1-1.6,2.1-1.4l5.2,1c1,0.2,1.6,1.1,1.4,2.1
		l-7.5,37.7C1508.3,674,1507.3,674.7,1506.4,674.5z"/>
	<path class="st52" d="M1573.7,682l-5.2-1c-1-0.2-1.6-1.1-1.4-2.1l7.5-37.7c0.2-1,1.1-1.6,2.1-1.4l5.2,1c1,0.2,1.6,1.1,1.4,2.1
		l-7.5,37.7C1575.7,681.5,1574.7,682.2,1573.7,682z"/>
	<path class="st53" d="M1495.4,668.5l4.7,0.9l6.6-33.4l-4.7-0.9c-4.5-0.9-8.8,2-9.7,6.5l-3.4,17.3
		C1488.1,663.3,1491,667.6,1495.4,668.5z"/>
	<path class="st53" d="M1580.9,679.6l-4.7-0.9l6.6-33.4l4.7,0.9c4.5,0.9,7.4,5.2,6.5,9.7l-3.4,17.3
		C1589.7,677.6,1585.4,680.5,1580.9,679.6z"/>
	<g>
		<path class="st54" d="M1593.4,635.2l-7.7-1.5c4.1-20.8-9.5-41.1-30.3-45.2s-41.1,9.5-45.2,30.3l-7.7-1.5
			c5-25.1,29.4-41.4,54.5-36.5C1582,585.6,1598.3,610.1,1593.4,635.2z"/>
	</g>
	<g>
		<path class="st51" d="M1555.4,588.4c20.8,4.1,34.4,24.4,30.3,45.2l7.7,1.5c5-25.1-11.4-49.5-36.5-54.5L1555.4,588.4z"/>
	</g>
</g>
<rect x="1549.9" y="571.3" transform="matrix(0.1943 -0.9809 0.9809 0.1943 679.9646 2001.0082)" class="st51" width="16.4" height="30.5"/>
<g>
	<path class="st16" d="M2227.9,1036.2h-75c-3.3,0-4.7-1.5-6-3l-36.2-46.8c0-1.6,2.7-3,6-3h75c3.3,0,6,1.3,6,3l36.2,46.8
		C2234,1034.9,2231.3,1036.2,2227.9,1036.2z"/>
	<path class="st55" d="M2225.1,1034.9h-71.2c-3.2,0-4.4-1.5-5.7-2.8l-34.4-44.4c0-1.6,2.6-2.8,5.7-2.8h71.2c3.2,0,5.7,1.3,5.7,2.8
		l34.4,44.4C2230.8,1033.6,2228.3,1034.9,2225.1,1034.9z"/>
	<path class="st56" d="M2222.9,1032.1h-67.8c-3,0-4.3-1.4-5.4-2.7l-32.7-43.1c0-1.5,2.4-2.7,5.4-2.7h67.8c3,0,4.2,1.2,5.4,2.7
		l32.7,43.1C2229.1,1030.5,2225.9,1032.1,2222.9,1032.1z"/>
	<polygon class="st57" points="2209.2,1002.4 2130.5,1002.4 2126.4,997.1 2205.1,997.1 	"/>
	<polygon class="st58" points="2217.5,1032.1 2212.3,1032.1 2179.6,983 2184.8,983 	"/>
	<polygon class="st58" points="2217.5,1032.1 2212.3,1032.1 2211.8,1034.9 2217,1034.9 	"/>
</g>
<g>
	<rect x="988.1" y="4.3" class="st59" width="244" height="313.8"/>
	<polygon class="st60" points="1232.1,4.3 1232.1,318.1 988.1,318.1 	"/>
	<path class="st29" d="M1237.1,322.9h-254V-0.4h254V322.9z M993.1,313.3h234V9.1h-234V313.3z"/>
</g>
<g>
	<rect x="732.1" y="21.1" class="st61" width="198.6" height="140.1"/>
	<polygon class="st62" points="930.7,21.1 930.7,161.2 732.1,161.2 	"/>
	<path class="st29" d="M935.7,166H727.1V16.4h208.6L935.7,166L935.7,166z M737.1,156.5h188.6V25.9H737.1V156.5z"/>
</g>
<g>
	<rect x="1277.6" y="4.3" class="st63" width="244" height="313.8"/>
	<polygon class="st64" points="1521.7,4.3 1521.7,318.1 1277.6,318.1 	"/>
	<path class="st29" d="M1526.7,322.9h-254V-0.4h254V322.9z M1282.6,313.3h234V9.1h-234V313.3z"/>
</g>
</svg>
