<?xml version="1.0" encoding="utf-8"?>
<!-- Generator: Adobe Illustrator 20.1.0, SVG Export Plug-In . SVG Version: 6.00 Build 0)  -->
<svg version="1.1" xmlns="http://www.w3.org/2000/svg" xmlns:xlink="http://www.w3.org/1999/xlink" x="0px" y="0px"
	 viewBox="0 0 1920 894" style="enable-background:new 0 0 1920 894;" xml:space="preserve">
<style type="text/css">
	.st0{fill:#89A3BC;}
	.st1{clip-path:url(#SVGID_2_);fill:#BFC8D7;}
	.st2{clip-path:url(#SVGID_2_);fill:#DFDFDF;}
	.st3{clip-path:url(#SVGID_2_);fill:#707680;}
	.st4{clip-path:url(#SVGID_2_);fill:#989FAC;}
	.st5{clip-path:url(#SVGID_2_);fill:#5E646D;}
	.st6{clip-path:url(#SVGID_2_);fill:#181816;}
	.st7{clip-path:url(#SVGID_2_);fill:#FFFDE7;}
	.st8{clip-path:url(#SVGID_2_);fill:#CECBB9;}
	.st9{clip-path:url(#SVGID_2_);fill:#605F57;}
	.st10{clip-path:url(#SVGID_2_);fill:#B5B6B7;}
	.st11{clip-path:url(#SVGID_2_);fill:#706C63;}
	.st12{clip-path:url(#SVGID_2_);fill:#ADA98B;}
	.st13{clip-path:url(#SVGID_2_);}
	.st14{fill:#5B5B5C;}
	.st15{fill:#B5A480;}
	.st16{fill:#F5E2BB;}
	.st17{clip-path:url(#SVGID_2_);fill:#797A7D;}
	.st18{fill:#777777;}
	.st19{fill:#4F4F50;}
	.st20{fill:#231F20;}
	.st21{fill:#322E2F;}
	.st22{clip-path:url(#SVGID_2_);fill:#4F4F50;}
	.st23{fill:#E2E2E2;}
	.st24{fill:#BBBBBB;}
	.st25{fill:#353535;}
	.st26{fill:#202020;}
	.st27{fill:#F9F9F9;}
	.st28{fill:#E8E9EA;}
	.st29{clip-path:url(#SVGID_2_);fill:#FFFFFF;stroke:#000000;stroke-miterlimit:10;}
	.st30{clip-path:url(#SVGID_2_);fill:#474B50;}
	.st31{clip-path:url(#SVGID_2_);fill:#35383C;}
	.st32{clip-path:url(#SVGID_2_);fill:#242628;}
	.st33{clip-path:url(#SVGID_2_);fill:#BFBEAD;}
	.st34{clip-path:url(#SVGID_2_);fill:#D3D3D4;}
	.st35{clip-path:url(#SVGID_2_);fill:none;stroke:#000000;stroke-width:0.8502;stroke-miterlimit:10;}
	.st36{clip-path:url(#SVGID_2_);fill:#231F20;}
	.st37{clip-path:url(#SVGID_2_);fill:#202020;}
	.st38{clip-path:url(#SVGID_2_);fill:#6C6F73;}
	.st39{clip-path:url(#SVGID_2_);fill:#121314;}
	.st40{clip-path:url(#SVGID_2_);fill:#C1C1C1;}
	.st41{clip-path:url(#SVGID_2_);fill:#DADADA;}
	.st42{fill:#90CAF9;}
	.st43{fill:#6C98BB;}
	.st44{clip-path:url(#SVGID_2_);fill:#404042;}
	.st45{clip-path:url(#SVGID_2_);fill:#303032;}
	.st46{fill:#D3D3D4;}
	.st47{fill:#404042;}
	.st48{fill:#303032;}
	.st49{fill:#FF6E40;}
	.st50{font-family:'alarmclock';}
	.st51{font-size:41.6256px;}
	.st52{clip-path:url(#SVGID_2_);fill:#353535;}
	.st53{clip-path:url(#SVGID_2_);fill:#5E5E5E;}
	.st54{clip-path:url(#SVGID_2_);fill:#BBBBBB;}
	.st55{clip-path:url(#SVGID_2_);fill:#F5E2BB;}
</style>
<g id="REF">
</g>
<g id="Layer_2">
	<rect x="1954.5" y="400.6" class="st0" width="352.5" height="134.9"/>
	<g>
		<defs>
			<rect id="SVGID_1_" width="1920" height="894.2"/>
		</defs>
		<clipPath id="SVGID_2_">
			<use xlink:href="#SVGID_1_"  style="overflow:visible;"/>
		</clipPath>
		<rect id="BKGD" x="-35.2" y="-231.4" class="st1" width="1955.2" height="1125.6"/>
		<path class="st2" d="M1774.4,456.3c0.3-17.6-13.7-32-31.3-32.3s-32,13.7-32.3,31.3L1774.4,456.3z"/>
		<path class="st3" d="M1719,455l-113.2-2.7c-6.8,0-12.3-5.5-12.3-12.3v-34c0-6.8,5.5-12.3,12.3-12.3l113.2,2.7
			c6.8,0,12.3,5.5,12.3,12.3v34C1731.3,449.5,1725.7,455,1719,455z"/>
		<path class="st4" d="M1722,455l-113.2-2.7c-6.8,0-12.3-5.5-12.3-12.3v-34c0-6.8,5.5-12.3,12.3-12.3l113.2,2.7
			c6.8,0,12.3,5.5,12.3,12.3v34C1734.3,449.5,1728.7,455,1722,455z"/>
		<polygon class="st5" points="1416.7,456.2 1595.7,452 1908.1,460.3 1908.1,464 1415,464 		"/>
		<polygon class="st6" points="1905.8,980.6 1579.4,980.6 1579.4,466.6 1905.8,470 		"/>
		<polygon class="st7" points="1905.8,828.7 1592.4,828.7 1595.7,549.6 1908.1,551.3 		"/>
		<polygon class="st8" points="1907.5,671.7 1905.8,828.7 1742.6,828.7 		"/>
		<polygon class="st9" points="1592.4,915.5 1582.6,917.4 1592.2,549.6 1595.7,549.6 		"/>
		<rect x="388.6" y="707.3" class="st10" width="51.5" height="291.3"/>
		<rect x="222.2" y="473.6" class="st11" width="17.2" height="507"/>
		<polygon class="st12" points="1419.7,870.2 1580.1,971.6 1591.3,469.3 1415,469.3 		"/>
		<rect x="1401.8" y="727.1" class="st10" width="51.5" height="133.1"/>
		<g class="st13">
			<polygon class="st14" points="440,756.7 388.6,751.3 388.6,744.1 440,744.1 			"/>
			<polygon class="st14" points="1453.2,761 1401.8,748.5 1401.8,744.1 1453.2,744.1 			"/>
			<rect x="219.7" y="722.3" class="st15" width="1419.8" height="23"/>
			<polygon class="st16" points="219.7,723.1 485.1,620 1373.9,620 1639.5,723.5 			"/>
		</g>
		<ellipse class="st17" cx="941.6" cy="645.4" rx="62.9" ry="7.1"/>
		<polygon class="st12" points="1597,469.8 1497,470 1497,458 1597,455.8 		"/>
		<g class="st13">
			<path class="st18" d="M1124.4,558H772.7c-2.2,0-4-1.8-4-4V336.6c0-2.2,1.8-4,4-4h351.7c2.2,0,4,1.8,4,4V554
				C1128.4,556.2,1126.7,558,1124.4,558z"/>
			<path class="st19" d="M1128.4,434.8V552c0,3.3-2.7,6-6,6H774.7c-3.3,0-6-2.7-6-6V434.8H1128.4z"/>
			<rect x="782.7" y="343.1" class="st20" width="333.2" height="190.3"/>
			<polygon class="st21" points="782.7,343.1 782.7,533.3 973,343.1 			"/>
		</g>
		<rect x="930.1" y="558" class="st22" width="22.5" height="35"/>
		<g class="st13">
			<path class="st23" d="M898.2,593c-7.1,0-12.8,11.3-12.8,25.7s6,26.3,13.1,26.3h75.8c9.9,0,16.7-9,16.7-18.9v-15.8
				c0-9.9-6.8-17.3-16.7-17.3L898.2,593z"/>
			<path class="st24" d="M974.7,592.9l-32.7,0v52h32.3c9.9,0,16.7-9,16.7-18.9v-15.8C991,600.3,984.7,592.9,974.7,592.9z"/>
			<circle class="st25" cx="941.4" cy="618.4" r="19.9"/>
			<path class="st26" d="M941.4,638.3c11,0,19.9-8.9,19.9-19.9c0-11-8.9-19.9-19.9-19.9V638.3z"/>
			<circle class="st27" cx="941.4" cy="618.4" r="5.4"/>
			<path class="st28" d="M941.4,623.8c3,0,5.4-2.4,5.4-5.4s-2.4-5.4-5.4-5.4V623.8z"/>
		</g>
		<path class="st29" d="M218.4,709.8"/>
		<polygon class="st30" points="1304.6,853.7 1170.8,771.7 1302.8,771.3 1460.2,853 		"/>
		<polygon class="st31" points="1247.8,818.4 1170.8,771.7 1302.8,771.3 1361.3,801.6 		"/>
		<polygon class="st9" points="1600.1,545.3 1592.7,545.3 1593.4,474.4 1599.6,474.4 		"/>
		<polygon class="st32" points="1170.8,771.7 1168.4,894.2 1306,892.7 1306,853.5 		"/>
		<polygon class="st7" points="1907.7,547 1595.7,545.3 1595.7,474.4 1907.7,482.1 		"/>
		<polyline class="st33" points="1905.8,831.6 1905.8,845.6 1592.4,845.2 1592.4,831.6 		"/>
		<rect x="1592.4" y="848.8" class="st7" width="313.4" height="66.7"/>
		<polygon class="st7" points="1908.1,477.3 1596.4,469.8 1596.4,455.8 1908.1,464 		"/>
		<path class="st34" d="M1793.4,502.7l-75.1-1.4c-7.5-0.1-13.4-6.2-13.4-13.7l0-10.5l102.5,2.5v9.4
			C1807.3,496.6,1801.1,502.8,1793.4,502.7z"/>
		
			<ellipse transform="matrix(0.1031 -0.9947 0.9947 0.1031 759.65 2138.8784)" class="st29" cx="1565.8" cy="648.2" rx="16.5" ry="16.5"/>
		<circle class="st29" cx="1521.9" cy="649.7" r="16.5"/>
		
			<rect x="1565.9" y="625.2" transform="matrix(0.9947 0.1031 -0.1031 0.9947 73.4906 -158.3729)" class="st29" width="5.7" height="13.1"/>
		
			<rect x="1521.3" y="621.7" transform="matrix(0.9947 0.1031 -0.1031 0.9947 72.8984 -153.7861)" class="st29" width="5.7" height="13.1"/>
		<path class="st29" d="M1566.6,624.9c0,0,7.8-38.7-18-38.7c-25.9,0-21,35.8-21,35.8l-5.7-0.6c0,0-7.3-45.5,26.6-45.5
			s23.8,49.6,23.8,49.6L1566.6,624.9z"/>
		<path class="st35" d="M93.8,420.1c0,0-10.5,31.5,111.4,31.5"/>
		<path class="st35" d="M100.3,422.1c0,0,27.5,26,104.9,26"/>
		<rect x="930.1" y="558" class="st36" width="22.5" height="2.2"/>
		<g class="st13">
			<path class="st18" d="M1510.1,558h-368.6c-3.3,0-6-2.7-6-6V338.6c0-3.3,2.7-6,6-6l368.6-13.3c3.3,0,6,2.7,6,6V552
				C1516.1,555.3,1513.4,558,1510.1,558z"/>
			<path class="st19" d="M1516.1,434.8v122c0,3.3-2.8,6-6.3,6l-368-4.9c-3.5,0-6.3-2.7-6.3-6V434.8H1516.1z"/>
			<polygon class="st20" points="1503,536.7 1152.4,533.5 1152.4,343.1 1503,332.6 			"/>
			<polygon class="st21" points="1152.4,343.1 1152.4,533.3 1352.5,343.1 			"/>
		</g>
		<g class="st13">
			<path class="st18" d="M387.1,557.7h368.6c3.3,0,6-2.7,6-6V338.3c0-3.3-2.7-6-6-6l-368.6-13.3c-3.3,0-6,2.7-6,6v226.6
				C381.1,555,383.8,557.7,387.1,557.7z"/>
			<path class="st19" d="M381.1,434.5v122c0,3.3,2.8,6,6.3,6l368-4.9c3.5,0,6.3-2.7,6.3-6V434.5H381.1z"/>
			<polygon class="st20" points="396.1,538.6 746.7,536 746.7,340.9 396.1,330.4 			"/>
			<polygon class="st21" points="396.1,330.4 396.1,533.1 596.2,336.4 			"/>
		</g>
		<path class="st11" d="M222.7,444.5h-17.9c-0.6,0-1.1,0.5-1.1,1V460c0,0.6,0.5,1,1.1,1h16.5c0.6,0,1.1,0.5,1.1,1V475
			c0,0.6,0.5,1,1.1,1h14.9c0.6,0,1.1-0.5,1.1-1v-14.7v-14.7c0-0.6-0.5-1-1.1-1H222.7z"/>
		<g class="st13">
			<path class="st18" d="M-55.8,423h261.7c2.4,0,4.3-2.3,4.3-5.1V237.4c0-2.8-1.9-5.1-4.3-5.1l-261.7-36.5c-2.4,0-4.3,2.3-4.3,5.1
				v217.1C-60.1,420.7-58.2,423-55.8,423z"/>
			<path class="st19" d="M-60.1,318.8v103.3c0,2.8,2,5.1,4.5,5.1l261.3-4.1c2.5,0,4.5-2.3,4.5-5.1v-99.2H-60.1z"/>
			<polygon class="st20" points="-49.4,406.9 199.5,406.9 199.5,239.5 -49.4,205.3 			"/>
			<polygon class="st21" points="-49.4,205.3 -49.4,402.2 28.6,216.1 			"/>
		</g>
		<rect x="1128.4" y="425.8" class="st36" width="7" height="18.2"/>
		<rect x="761.7" y="425.8" class="st36" width="7" height="18.2"/>
		<path class="st37" d="M901.6,634.5h-2.2c-1.2,0-2.2-1-2.2-2.2v-27.3c0-1.2,1-2.2,2.2-2.2h2.2c1.2,0,2.2,1,2.2,2.2v27.3
			C903.9,633.5,902.9,634.5,901.6,634.5z"/>
		<path class="st37" d="M980.2,634.5h-2.2c-1.2,0-2.2-1-2.2-2.2v-27.3c0-1.2,1-2.2,2.2-2.2h2.2c1.2,0,2.2,1,2.2,2.2v27.3
			C982.4,633.5,981.4,634.5,980.2,634.5z"/>
		<rect x="1304.6" y="853" class="st38" width="155.6" height="180.1"/>
		<circle class="st39" cx="1340.8" cy="873.7" r="6.5"/>
		<polygon class="st40" points="1283.7,860.3 1192.1,801.8 1188.9,892.7 1283.7,892.7 		"/>
		<polygon class="st41" points="1230.9,826.5 1192.1,801.8 1188.9,892.7 1230.9,860.3 		"/>
		<g class="st13">
			<circle class="st42" cx="196.6" cy="415.3" r="2.3"/>
			<path class="st43" d="M196.6,417.6c1.3,0,2.3-1,2.3-2.3s-1-2.3-2.3-2.3V417.6z"/>
		</g>
		<g class="st13">
			<circle class="st42" cx="742.6" cy="545.5" r="4.1"/>
			<path class="st43" d="M742.6,549.6c2.3,0,4.1-1.8,4.1-4.1s-1.8-4.1-4.1-4.1V549.6z"/>
		</g>
		<g class="st13">
			<circle class="st42" cx="1111.8" cy="545.5" r="4.1"/>
			<path class="st43" d="M1111.8,549.6c2.3,0,4.1-1.8,4.1-4.1s-1.8-4.1-4.1-4.1V549.6z"/>
		</g>
		<g class="st13">
			<circle class="st42" cx="1498.9" cy="549.6" r="4.1"/>
			<path class="st43" d="M1498.9,553.7c2.3,0,4.1-1.8,4.1-4.1s-1.8-4.1-4.1-4.1V553.7z"/>
		</g>
		<path class="st44" d="M1794.5,497.1l-77.9-1.7c-2.4-0.1-4.4-2.1-4.3-4.5l0.1-5.6c0.1-2.4,2.1-4.4,4.5-4.3l77.9,1.7
			c2.4,0.1,4.4,2.1,4.3,4.5l-0.1,5.6C1799,495.2,1797,497.2,1794.5,497.1z"/>
		<path class="st45" d="M1757.2,496.3l35.3,0.8c3.6,0.1,6.5-2.8,6.6-6.5l0-1.2c0.1-3.7-2.8-6.7-6.3-6.8l-35.6-0.8L1757.2,496.3z"/>
		<g class="st13">
			<path class="st46" d="M1790.2,573.4l-75.1-0.2c-7.5-0.1-13.4-6.2-13.4-13.7v-9.4l102.5,0.6v10.2
				C1804.2,568.6,1797.9,573.6,1790.2,573.4z"/>
			<path class="st47" d="M1789.6,569l-73.4-1c-3.7,0-6.6-3.1-6.6-6.7l0-1.2c0-3.7,3.1-6.6,6.7-6.6l73.4,0.4c3.7,0,6.6,3.1,6.6,6.7
				l0,1.7C1796.3,566.1,1793.2,569,1789.6,569z"/>
			<path class="st48" d="M1752.9,568.5l36.6,0.5c3.7,0,6.7-2.9,6.7-6.6l0-1.7c0-3.7-2.9-6.7-6.6-6.7l-36.8-0.2L1752.9,568.5z"/>
		</g>
		<g class="st13">
			<path class="st46" d="M1793.1,871.9l-75.1-0.2c-7.5-0.1-13.4-6.2-13.4-13.7v-9.4l102.5,0.6v10.2
				C1807,867,1800.7,872,1793.1,871.9z"/>
			<path class="st47" d="M1792.4,867.4l-73.4-1c-3.7,0-6.6-3.1-6.6-6.7l0-1.2c0-3.7,3.1-6.6,6.7-6.6l73.4,0.4c3.7,0,6.6,3.1,6.6,6.7
				l0,1.7C1799.1,864.5,1796,867.5,1792.4,867.4z"/>
			<path class="st48" d="M1755.8,867l36.6,0.5c3.7,0,6.7-2.9,6.7-6.6l0-1.7c0-3.7-2.9-6.7-6.6-6.7l-36.8-0.2L1755.8,867z"/>
		</g>
		<path class="st36" d="M1714.5,448.7l-98.2-2.7c-6.8,0-12.3-5.5-12.3-12.3v-21.3c0-6.8,5.5-12.3,12.3-12.3l98.2,2.7
			c6.8,0,12.3,5.5,12.3,12.3v21.3C1726.8,443.1,1721.2,448.7,1714.5,448.7z"/>
		<g class="st13">
			<text transform="matrix(0.9996 2.788003e-02 -2.788003e-02 0.9996 1607.9928 437.0735)" class="st49 st50 st51">12:00</text>
		</g>
		<g class="st13">
			<polygon class="st23" points="1023.3,701.8 859.4,701.8 870.5,667.6 1012.2,667.6 			"/>
			<rect x="859.4" y="701.8" class="st24" width="163.9" height="5.8"/>
		</g>
		<rect x="888.9" y="695.8" class="st52" width="98.7" height="3.2"/>
		<g class="st13">
			<polygon class="st25" points="1014,687.4 1004.3,687.4 1002.9,684.1 1012.6,684.1 			"/>
			<g>
				<polygon class="st25" points="876.2,693 871,693 872.3,690 877.5,690 				"/>
				<polygon class="st25" points="887.4,693 882.1,693 883.2,690 888.5,690 				"/>
				<polygon class="st25" points="898.6,693 893.3,693 894.2,690 899.5,690 				"/>
				<polygon class="st25" points="909.8,693 904.5,693 905.2,690 910.4,690 				"/>
				<polygon class="st25" points="921,693 915.7,693 916.1,690 921.4,690 				"/>
				<polygon class="st25" points="932.2,693 926.9,693 927.1,690 932.4,690 				"/>
				<rect x="938" y="690" class="st25" width="5" height="3"/>
				<polygon class="st25" points="949.3,693 949.1,690 954.3,690 954.5,693 				"/>
				<polygon class="st25" points="960.5,693 960,690 965.3,690 965.8,693 				"/>
				<polygon class="st25" points="971.7,693 971,690 976.3,690 977,693 				"/>
				<polygon class="st25" points="982.9,693 982,690 987.3,690 988.2,693 				"/>
				<polygon class="st25" points="994.1,693 993,690 998.3,690 999.4,693 				"/>
				<polygon class="st25" points="1005.3,693 1010.6,693 1009.3,690 1004,690 				"/>
			</g>
			<g>
				<polygon class="st25" points="878.3,687 873.4,687 874.7,684 879.5,684 				"/>
				<polygon class="st25" points="888.6,687 883.8,687 884.8,684 889.6,684 				"/>
				<polygon class="st25" points="898.9,687 894.1,687 894.9,684 899.7,684 				"/>
				<polygon class="st25" points="909.2,687 904.4,687 905,684 909.8,684 				"/>
				<polygon class="st25" points="919.5,687 914.7,687 915.1,684 919.9,684 				"/>
				<polygon class="st25" points="929.8,687 925,687 925.2,684 930,684 				"/>
				<rect x="935" y="684" class="st25" width="5" height="3"/>
				<polygon class="st25" points="945.6,687 945.4,684 950.3,684 950.5,687 				"/>
				<polygon class="st25" points="955.9,687 955.5,684 960.4,684 960.8,687 				"/>
				<polygon class="st25" points="966.3,687 965.7,684 970.5,684 971.1,687 				"/>
				<polygon class="st25" points="976.6,687 975.8,684 980.7,684 981.5,687 				"/>
				<polygon class="st25" points="986.9,687 985.9,684 990.8,684 991.8,687 				"/>
				<polygon class="st25" points="997.3,687 1002.1,687 1000.9,684 996.1,684 				"/>
			</g>
			<g>
				<polygon class="st25" points="882.5,681 878,681 879.1,678 883.6,678 				"/>
				<polygon class="st25" points="892.1,681 887.6,681 888.5,678 893,678 				"/>
				<polygon class="st25" points="901.7,681 897.1,681 897.9,678 902.4,678 				"/>
				<polygon class="st25" points="911.2,681 906.7,681 907.3,678 911.8,678 				"/>
				<polygon class="st25" points="920.8,681 916.3,681 916.7,678 921.2,678 				"/>
				<polygon class="st25" points="930.4,681 925.9,681 926.1,678 930.6,678 				"/>
				<rect x="935" y="678" class="st25" width="5" height="3"/>
				<polygon class="st25" points="945.1,681 944.9,678 949.4,678 949.6,681 				"/>
				<polygon class="st25" points="954.7,681 954.3,678 958.8,678 959.2,681 				"/>
				<polygon class="st25" points="964.3,681 963.7,678 968.2,678 968.8,681 				"/>
				<polygon class="st25" points="973.9,681 973.1,678 977.6,678 978.4,681 				"/>
				<polygon class="st25" points="983.5,681 982.5,678 987.1,678 988,681 				"/>
				<polygon class="st25" points="993.1,681 997.6,681 996.5,678 992,678 				"/>
			</g>
			<g>
				<polygon class="st25" points="880.3,675 875.6,675 876.8,672 881.5,672 				"/>
				<polygon class="st25" points="890.3,675 885.6,675 886.6,672 891.3,672 				"/>
				<polygon class="st25" points="900.2,675 895.5,675 896.3,672 901,672 				"/>
				<polygon class="st25" points="910.2,675 905.5,675 906.1,672 910.8,672 				"/>
				<polygon class="st25" points="920.1,675 915.4,675 915.8,672 920.5,672 				"/>
				<polygon class="st25" points="930.1,675 925.4,675 925.6,672 930.3,672 				"/>
				<rect x="935" y="672" class="st25" width="5" height="3"/>
				<polygon class="st25" points="945.3,675 945.1,672 949.8,672 950,675 				"/>
				<polygon class="st25" points="955.3,675 954.9,672 959.6,672 960,675 				"/>
				<polygon class="st25" points="965.3,675 964.7,672 969.4,672 970,675 				"/>
				<polygon class="st25" points="975.3,675 974.5,672 979.2,672 980,675 				"/>
				<polygon class="st25" points="985.3,675 984.3,672 989,672 990,675 				"/>
				<polygon class="st25" points="995.3,675 1000,675 998.8,672 994.1,672 				"/>
			</g>
		</g>
		<path class="st2" d="M1042.7,687.5L1042.7,687.5c-0.3,0.1-0.5,0.1-0.6,0l-1.7-2.2c-0.1-0.2,0-0.4,0.3-0.6l0,0
			c0.3-0.1,0.5-0.1,0.6,0.1l1.7,2.2C1043,687.1,1042.9,687.4,1042.7,687.5z"/>
		<path class="st53" d="M1044.6,701.3L1044.6,701.3c-4.1,0.7-7.9-1.6-8.4-5l-2.3-5.7c-1.8-3.6-0.3-6.4,3.8-7l4.4,3.8l0.9-0.2l-3-4.3
			c4.1-0.7,6.8,1.8,8.7,5.2l2.3,5.7C1051.5,697.3,1048.7,700.6,1044.6,701.3z"/>
		<path class="st54" d="M1045.2,700.9L1045.2,700.9c-4.1,0.7-7.9-1.6-8.4-5l-2.3-5.7c-1.8-3.6-0.3-6.4,3.8-7l3.8,4.2l1.1-0.2l-3-4.3
			c4.1-0.7,7.3,1.5,9.1,4.9l2.3,5.7C1052.1,696.9,1049.2,700.2,1045.2,700.9z"/>
		<path class="st55" d="M1037.1,680.1"/>
		<rect x="1738.2" y="269.9" class="st53" width="4.9" height="154.1"/>
		
			<rect x="1713.7" y="250.4" transform="matrix(-1.836970e-16 1 -1 -1.836970e-16 1988.5828 -1443.7649)" class="st53" width="4.9" height="44.1"/>
		<path class="st2" d="M1659.3,320.5l18.3,9.6c8.8,4.6,18.8,2.9,22.2-3.7l3.1-42.9c3-5.7,2.6-11.8-0.9-13.6l-7.2-3.8
			c-3.5-1.8-8.7,1.4-11.7,7l-33.5,27.1C1646.2,306.8,1650.5,315.9,1659.3,320.5z"/>
	</g>
</g>
</svg>
