<?xml version="1.0" encoding="utf-8"?>
<!-- Generator: Adobe Illustrator 20.1.0, SVG Export Plug-In . SVG Version: 6.00 Build 0)  -->
<svg version="1.1" xmlns="http://www.w3.org/2000/svg" xmlns:xlink="http://www.w3.org/1999/xlink" x="0px" y="0px"
	 viewBox="0 0 1920 894" style="enable-background:new 0 0 1920 894;" xml:space="preserve">
<style type="text/css">
	.st0{fill:#89A3BC;}
	.st1{fill:#BFC8D7;}
	.st2{fill:#DFDFDF;}
	.st3{fill:#5E646D;}
	.st4{fill:#181816;}
	.st5{fill:#FFFDE7;}
	.st6{fill:#CECBB9;}
	.st7{fill:#605F57;}
	.st8{fill:#B5B6B7;}
	.st9{fill:#706C63;}
	.st10{fill:#ADA98B;}
	.st11{fill:#5B5B5C;}
	.st12{fill:#B5A480;}
	.st13{fill:#F5E2BB;}
	.st14{fill:#797A7D;}
	.st15{opacity:0.6;fill:#797A7D;}
	.st16{fill:#777777;}
	.st17{fill:#4F4F50;}
	.st18{fill:#231F20;}
	.st19{fill:#322E2F;}
	.st20{fill:#E2E2E2;}
	.st21{fill:#BBBBBB;}
	.st22{fill:#353535;}
	.st23{fill:#202020;}
	.st24{fill:#F9F9F9;}
	.st25{fill:#E8E9EA;}
	.st26{fill:#FFFFFF;stroke:#000000;stroke-miterlimit:10;}
	.st27{fill:#474B50;}
	.st28{fill:#35383C;}
	.st29{fill:#242628;}
	.st30{fill:#BFBEAD;}
	.st31{fill:#D3D3D4;}
	.st32{fill:none;stroke:#000000;stroke-width:0.8502;stroke-miterlimit:10;}
	.st33{fill:#6C6F73;}
	.st34{fill:#121314;}
	.st35{fill:#C1C1C1;}
	.st36{fill:#DADADA;}
	.st37{fill:#90CAF9;}
	.st38{fill:#6C98BB;}
	.st39{fill:#404042;}
	.st40{fill:#303032;}
	.st41{fill:#707680;}
	.st42{fill:#989FAC;}
	.st43{fill:#5E5E5E;}
</style>
<g id="REF">
</g>
<g id="Layer_2">
	<rect x="1954.5" y="507.6" class="st0" width="352.5" height="134.9"/>
	<g>
		<rect id="BKGD" x="-24.2" y="-220.4" class="st1" width="1942.8" height="1174.4"/>
		<path class="st2" d="M1785.4,467.3c0.3-17.6-13.7-32-31.3-32.3s-32,13.7-32.3,31.3L1785.4,467.3z"/>
		<polygon class="st3" points="1427.7,467.2 1606.7,463 1919.1,471.3 1919.1,475 1426,475 		"/>
		<polygon class="st4" points="1916.8,991.6 1590.4,991.6 1590.4,477.6 1916.8,481 		"/>
		<polygon class="st5" points="1916.8,839.7 1603.4,839.7 1606.7,560.6 1919.1,562.3 		"/>
		<polygon class="st6" points="1918.5,682.7 1916.8,839.7 1753.6,839.7 		"/>
		<polygon class="st7" points="1603.4,926.5 1593.6,928.4 1603.2,560.6 1606.7,560.6 		"/>
		<rect x="399.6" y="718.3" class="st8" width="51.5" height="291.3"/>
		<rect x="233.2" y="484.6" class="st9" width="17.2" height="507"/>
		<polygon class="st10" points="1430.7,881.2 1591.1,982.6 1602.3,480.3 1426,480.3 		"/>
		<rect x="1412.8" y="738.1" class="st8" width="51.5" height="133.1"/>
		<g>
			<polygon class="st11" points="451,767.7 399.6,762.3 399.6,755.1 451,755.1 			"/>
			<polygon class="st11" points="1464.2,772 1412.8,759.6 1412.8,755.1 1464.2,755.1 			"/>
			<rect x="230.7" y="733.3" class="st12" width="1419.8" height="23"/>
			<polygon class="st13" points="230.7,734.1 496.1,631 1384.9,631 1650.5,734.5 			"/>
		</g>
		<ellipse class="st14" cx="952.6" cy="656.4" rx="62.9" ry="7.1"/>
		<ellipse class="st15" cx="1121.7" cy="649.3" rx="84.1" ry="7.1"/>
		<polygon class="st10" points="1608,480.8 1508,481 1508,469 1608,466.9 		"/>
		<g>
			<path class="st16" d="M1135.4,569H783.7c-2.2,0-4-1.8-4-4V347.6c0-2.2,1.8-4,4-4h351.7c2.2,0,4,1.8,4,4V565
				C1139.4,567.2,1137.7,569,1135.4,569z"/>
			<path class="st17" d="M1139.4,445.8V563c0,3.3-2.7,6-6,6H785.7c-3.3,0-6-2.7-6-6V445.8H1139.4z"/>
			<rect x="793.7" y="354.1" class="st18" width="333.2" height="190.3"/>
			<polygon class="st19" points="793.7,354.1 793.7,544.4 984,354.1 			"/>
		</g>
		<rect x="941.1" y="569" class="st17" width="22.5" height="35"/>
		<g>
			<path class="st20" d="M909.2,604c-7.1,0-12.8,11.3-12.8,25.7s6,26.3,13.1,26.3h75.8c9.9,0,16.7-9,16.7-18.9v-15.8
				c0-9.9-6.8-17.3-16.7-17.3L909.2,604z"/>
			<path class="st21" d="M985.7,603.9l-32.7,0v52h32.3c9.9,0,16.7-9,16.7-18.9v-15.8C1002,611.3,995.7,603.9,985.7,603.9z"/>
			<circle class="st22" cx="952.4" cy="629.4" r="19.9"/>
			<path class="st23" d="M952.4,649.3c11,0,19.9-8.9,19.9-19.9c0-11-8.9-19.9-19.9-19.9V649.3z"/>
			<circle class="st24" cx="952.4" cy="629.4" r="5.4"/>
			<path class="st25" d="M952.4,634.8c3,0,5.4-2.4,5.4-5.4s-2.4-5.4-5.4-5.4V634.8z"/>
		</g>
		<path class="st26" d="M229.4,720.8"/>
		<polygon class="st27" points="1315.6,864.7 1181.8,782.7 1313.8,782.3 1471.2,864 		"/>
		<polygon class="st28" points="1258.8,829.4 1181.8,782.7 1313.8,782.3 1372.3,812.7 		"/>
		<polygon class="st7" points="1611.1,556.3 1603.7,556.3 1604.4,485.4 1610.6,485.4 		"/>
		<polygon class="st29" points="1181.8,782.7 1179.4,905.2 1317,903.7 1317,864.5 		"/>
		<polygon class="st5" points="1918.7,558 1606.7,556.3 1606.7,485.4 1918.7,493.1 		"/>
		<polyline class="st30" points="1916.8,842.6 1916.8,856.6 1603.4,856.3 1603.4,842.6 		"/>
		<rect x="1603.4" y="859.8" class="st5" width="313.4" height="66.7"/>
		<polygon class="st5" points="1919.1,488.3 1607.4,480.8 1607.4,466.9 1919.1,475 		"/>
		<path class="st31" d="M1804.4,513.7l-75.1-1.4c-7.5-0.1-13.4-6.2-13.4-13.7l0-10.5l102.5,2.5v9.4
			C1818.3,507.6,1812.1,513.8,1804.4,513.7z"/>
		
			<ellipse transform="matrix(0.1031 -0.9947 0.9947 0.1031 758.571 2159.689)" class="st26" cx="1576.8" cy="659.2" rx="16.5" ry="16.5"/>
		<circle class="st26" cx="1532.9" cy="660.7" r="16.5"/>
		
			<rect x="1576.9" y="636.2" transform="matrix(0.9947 0.1031 -0.1031 0.9947 74.6837 -159.4484)" class="st26" width="5.7" height="13.1"/>
		
			<rect x="1532.3" y="632.7" transform="matrix(0.9947 0.1031 -0.1031 0.9947 74.0915 -154.8615)" class="st26" width="5.7" height="13.1"/>
		<path class="st26" d="M1577.6,635.9c0,0,7.8-38.7-18-38.7c-25.9,0-21,35.8-21,35.8l-5.7-0.6c0,0-7.3-45.5,26.6-45.5
			s23.8,49.6,23.8,49.6L1577.6,635.9z"/>
		<path class="st32" d="M104.8,431.1c0,0-10.5,31.5,111.4,31.5"/>
		<path class="st32" d="M111.3,433.1c0,0,27.5,26,104.9,26"/>
		<rect x="941.1" y="569" class="st18" width="22.5" height="2.2"/>
		<g>
			<path class="st16" d="M1521.1,569h-368.6c-3.3,0-6-2.7-6-6V349.6c0-3.3,2.7-6,6-6l368.6-13.3c3.3,0,6,2.7,6,6V563
				C1527.1,566.3,1524.4,569,1521.1,569z"/>
			<path class="st17" d="M1527.1,445.8v122c0,3.3-2.8,6-6.3,6l-368-4.9c-3.5,0-6.3-2.7-6.3-6V445.8H1527.1z"/>
			<polygon class="st18" points="1514,547.7 1163.4,544.5 1163.4,354.1 1514,343.6 			"/>
			<polygon class="st19" points="1163.4,354.1 1163.4,544.4 1363.5,354.1 			"/>
		</g>
		<g>
			<path class="st16" d="M398.1,568.7h368.6c3.3,0,6-2.7,6-6V349.3c0-3.3-2.7-6-6-6l-368.6-13.3c-3.3,0-6,2.7-6,6v226.6
				C392.1,566,394.8,568.7,398.1,568.7z"/>
			<path class="st17" d="M392.1,445.5v122c0,3.3,2.8,6,6.3,6l368-4.9c3.5,0,6.3-2.7,6.3-6V445.5H392.1z"/>
			<polygon class="st18" points="407.1,549.6 757.7,547 757.7,351.9 407.1,341.4 			"/>
			<polygon class="st19" points="407.1,341.4 407.1,544.1 607.2,347.4 			"/>
		</g>
		<path class="st9" d="M233.7,455.5h-17.9c-0.6,0-1.1,0.5-1.1,1V471c0,0.6,0.5,1,1.1,1h16.5c0.6,0,1.1,0.5,1.1,1V486
			c0,0.6,0.5,1,1.1,1h14.9c0.6,0,1.1-0.5,1.1-1v-14.7v-14.7c0-0.6-0.5-1-1.1-1H233.7z"/>
		<g>
			<path class="st16" d="M-44.8,434h261.7c2.4,0,4.3-2.3,4.3-5.1V248.4c0-2.8-1.9-5.1-4.3-5.1l-261.7-36.5c-2.4,0-4.3,2.3-4.3,5.1
				v217.1C-49.1,431.7-47.2,434-44.8,434z"/>
			<path class="st17" d="M-49.1,329.8v103.3c0,2.8,2,5.1,4.5,5.1l261.3-4.1c2.5,0,4.5-2.3,4.5-5.1v-99.2H-49.1z"/>
			<polygon class="st18" points="-38.4,417.9 210.5,417.9 210.5,250.5 -38.4,216.3 			"/>
			<polygon class="st19" points="-38.4,216.3 -38.4,413.2 39.6,227.1 			"/>
		</g>
		<rect x="1139.4" y="436.8" class="st18" width="7" height="18.2"/>
		<rect x="772.7" y="436.8" class="st18" width="7" height="18.2"/>
		<path class="st23" d="M912.6,645.5h-2.2c-1.2,0-2.2-1-2.2-2.2v-27.3c0-1.2,1-2.2,2.2-2.2h2.2c1.2,0,2.2,1,2.2,2.2v27.3
			C914.9,644.5,913.9,645.5,912.6,645.5z"/>
		<path class="st23" d="M991.2,645.5h-2.2c-1.2,0-2.2-1-2.2-2.2v-27.3c0-1.2,1-2.2,2.2-2.2h2.2c1.2,0,2.2,1,2.2,2.2v27.3
			C993.4,644.5,992.4,645.5,991.2,645.5z"/>
		<rect x="1315.6" y="864" class="st33" width="155.6" height="180.1"/>
		<circle class="st34" cx="1351.8" cy="884.7" r="6.5"/>
		<polygon class="st35" points="1294.7,871.3 1203.1,812.8 1199.9,903.7 1294.7,903.7 		"/>
		<polygon class="st36" points="1241.9,837.5 1203.1,812.8 1199.9,903.7 1241.9,871.3 		"/>
		<g>
			<circle class="st37" cx="207.6" cy="426.3" r="2.3"/>
			<path class="st38" d="M207.6,428.6c1.3,0,2.3-1,2.3-2.3s-1-2.3-2.3-2.3V428.6z"/>
		</g>
		<g>
			<circle class="st37" cx="753.6" cy="556.5" r="4.1"/>
			<path class="st38" d="M753.6,560.6c2.3,0,4.1-1.8,4.1-4.1c0-2.3-1.8-4.1-4.1-4.1V560.6z"/>
		</g>
		<g>
			<circle class="st37" cx="1122.8" cy="556.5" r="4.1"/>
			<path class="st38" d="M1122.8,560.6c2.3,0,4.1-1.8,4.1-4.1c0-2.3-1.8-4.1-4.1-4.1V560.6z"/>
		</g>
		<g>
			<circle class="st37" cx="1509.9" cy="560.6" r="4.1"/>
			<path class="st38" d="M1509.9,564.7c2.3,0,4.1-1.8,4.1-4.1c0-2.3-1.8-4.1-4.1-4.1V564.7z"/>
		</g>
		<path class="st39" d="M1805.5,508.1l-77.9-1.7c-2.4-0.1-4.4-2.1-4.3-4.5l0.1-5.6c0.1-2.4,2.1-4.4,4.5-4.3l77.9,1.7
			c2.4,0.1,4.4,2.1,4.3,4.5l-0.1,5.6C1810,506.2,1808,508.2,1805.5,508.1z"/>
		<path class="st40" d="M1768.2,507.3l35.3,0.8c3.6,0.1,6.5-2.8,6.6-6.5l0-1.2c0.1-3.7-2.8-6.7-6.3-6.8l-35.6-0.8L1768.2,507.3z"/>
		<g>
			<path class="st31" d="M1801.2,584.4l-75.1-0.2c-7.5-0.1-13.4-6.2-13.4-13.7v-9.4l102.5,0.6v10.2
				C1815.2,579.6,1808.9,584.6,1801.2,584.4z"/>
			<path class="st39" d="M1800.6,580l-73.4-1c-3.7,0-6.6-3.1-6.6-6.7l0-1.2c0-3.7,3.1-6.6,6.7-6.6l73.4,0.4c3.7,0,6.6,3.1,6.6,6.7
				l0,1.7C1807.3,577.1,1804.2,580,1800.6,580z"/>
			<path class="st40" d="M1763.9,579.5l36.6,0.5c3.7,0,6.7-2.9,6.7-6.6l0-1.7c0-3.7-2.9-6.7-6.6-6.7l-36.8-0.2L1763.9,579.5z"/>
		</g>
		<g>
			<path class="st31" d="M1804.1,882.9l-75.1-0.2c-7.5-0.1-13.4-6.2-13.4-13.7v-9.4l102.5,0.6v10.2
				C1818,878,1811.7,883,1804.1,882.9z"/>
			<path class="st39" d="M1803.4,878.4l-73.4-1c-3.7,0-6.6-3.1-6.6-6.7l0-1.2c0-3.7,3.1-6.6,6.7-6.6l73.4,0.4c3.7,0,6.6,3.1,6.6,6.7
				l0,1.7C1810.1,875.5,1807,878.5,1803.4,878.4z"/>
			<path class="st40" d="M1766.8,878l36.6,0.5c3.7,0,6.7-2.9,6.7-6.6l0-1.7c0-3.7-2.9-6.7-6.6-6.7l-36.8-0.2L1766.8,878z"/>
		</g>
		<g>
			<path class="st41" d="M1174.7,650.1l-113.3,1.6c-6.8,0.3-12.5-5.1-12.8-11.8l-1.3-34c-0.3-6.8,5.1-12.5,11.8-12.8l113.3-1.6
				c6.8-0.3,12.5,5.1,12.8,11.8l1.3,34C1186.8,644,1181.5,649.8,1174.7,650.1z"/>
			<path class="st42" d="M1177.7,649.9l-113.3,1.6c-6.8,0.3-12.5-5.1-12.8-11.8l-1.3-34c-0.3-6.8,5.1-12.5,11.8-12.8l113.3-1.6
				c6.8-0.3,12.5,5.1,12.8,11.8l1.3,34C1189.8,643.9,1184.5,649.7,1177.7,649.9z"/>
			<path class="st18" d="M1170,643.9l-98.3,1.1c-6.8,0.3-12.5-5.1-12.8-11.8l-0.8-21.3c-0.3-6.8,5.1-12.5,11.8-12.8l98.3-1.1
				c6.8-0.3,12.5,5.1,12.8,11.8l0.8,21.3C1182.1,637.9,1176.8,643.6,1170,643.9z"/>
		</g>
		<g>
			<polygon class="st20" points="1034.3,712.8 870.4,712.8 881.5,678.6 1023.2,678.6 			"/>
			<rect x="870.4" y="712.8" class="st21" width="163.9" height="5.8"/>
		</g>
		<rect x="899.9" y="706.9" class="st22" width="98.7" height="3.2"/>
		<g>
			<polygon class="st22" points="1025,698.4 1015.3,698.4 1013.9,695.1 1023.6,695.1 			"/>
			<g>
				<polygon class="st22" points="887.2,704 882,704 883.3,701 888.5,701 				"/>
				<polygon class="st22" points="898.4,704 893.1,704 894.2,701 899.5,701 				"/>
				<polygon class="st22" points="909.6,704 904.3,704 905.2,701 910.5,701 				"/>
				<polygon class="st22" points="920.8,704 915.5,704 916.2,701 921.4,701 				"/>
				<polygon class="st22" points="932,704 926.7,704 927.1,701 932.4,701 				"/>
				<polygon class="st22" points="943.2,704 937.9,704 938.1,701 943.4,701 				"/>
				<rect x="949" y="701" class="st22" width="5" height="3"/>
				<polygon class="st22" points="960.3,704 960.1,701 965.3,701 965.5,704 				"/>
				<polygon class="st22" points="971.5,704 971,701 976.3,701 976.8,704 				"/>
				<polygon class="st22" points="982.7,704 982,701 987.3,701 988,704 				"/>
				<polygon class="st22" points="993.9,704 993,701 998.3,701 999.2,704 				"/>
				<polygon class="st22" points="1005.1,704 1004,701 1009.3,701 1010.4,704 				"/>
				<polygon class="st22" points="1016.3,704 1021.6,704 1020.3,701 1015,701 				"/>
			</g>
			<g>
				<polygon class="st22" points="889.3,698 884.4,698 885.7,695 890.5,695 				"/>
				<polygon class="st22" points="899.6,698 894.8,698 895.8,695 900.6,695 				"/>
				<polygon class="st22" points="909.9,698 905.1,698 905.9,695 910.7,695 				"/>
				<polygon class="st22" points="920.2,698 915.4,698 916,695 920.8,695 				"/>
				<polygon class="st22" points="930.5,698 925.7,698 926.1,695 930.9,695 				"/>
				<polygon class="st22" points="940.8,698 936,698 936.2,695 941,695 				"/>
				<rect x="946" y="695" class="st22" width="5" height="3"/>
				<polygon class="st22" points="956.6,698 956.4,695 961.3,695 961.5,698 				"/>
				<polygon class="st22" points="966.9,698 966.5,695 971.4,695 971.8,698 				"/>
				<polygon class="st22" points="977.3,698 976.7,695 981.5,695 982.1,698 				"/>
				<polygon class="st22" points="987.6,698 986.8,695 991.7,695 992.5,698 				"/>
				<polygon class="st22" points="997.9,698 996.9,695 1001.8,695 1002.8,698 				"/>
				<polygon class="st22" points="1008.3,698 1013.1,698 1011.9,695 1007.1,695 				"/>
			</g>
			<g>
				<polygon class="st22" points="893.5,692 889,692 890.1,689 894.6,689 				"/>
				<polygon class="st22" points="903.1,692 898.6,692 899.5,689 904,689 				"/>
				<polygon class="st22" points="912.7,692 908.1,692 908.9,689 913.4,689 				"/>
				<polygon class="st22" points="922.2,692 917.7,692 918.3,689 922.8,689 				"/>
				<polygon class="st22" points="931.8,692 927.3,692 927.7,689 932.2,689 				"/>
				<polygon class="st22" points="941.4,692 936.9,692 937.1,689 941.6,689 				"/>
				<rect x="946" y="689" class="st22" width="5" height="3"/>
				<polygon class="st22" points="956.1,692 955.9,689 960.4,689 960.6,692 				"/>
				<polygon class="st22" points="965.7,692 965.3,689 969.8,689 970.2,692 				"/>
				<polygon class="st22" points="975.3,692 974.7,689 979.2,689 979.8,692 				"/>
				<polygon class="st22" points="984.9,692 984.1,689 988.6,689 989.4,692 				"/>
				<polygon class="st22" points="994.5,692 993.5,689 998.1,689 999,692 				"/>
				<polygon class="st22" points="1004.1,692 1008.6,692 1007.5,689 1003,689 				"/>
			</g>
			<g>
				<polygon class="st22" points="891.3,686 886.6,686 887.8,683 892.5,683 				"/>
				<polygon class="st22" points="901.3,686 896.6,686 897.6,683 902.3,683 				"/>
				<polygon class="st22" points="911.2,686 906.5,686 907.3,683 912,683 				"/>
				<polygon class="st22" points="921.2,686 916.5,686 917.1,683 921.8,683 				"/>
				<polygon class="st22" points="931.1,686 926.4,686 926.8,683 931.5,683 				"/>
				<polygon class="st22" points="941.1,686 936.4,686 936.6,683 941.3,683 				"/>
				<rect x="946" y="683" class="st22" width="5" height="3"/>
				<polygon class="st22" points="956.3,686 956.1,683 960.8,683 961,686 				"/>
				<polygon class="st22" points="966.3,686 965.9,683 970.6,683 971,686 				"/>
				<polygon class="st22" points="976.3,686 975.7,683 980.4,683 981,686 				"/>
				<polygon class="st22" points="986.3,686 985.5,683 990.2,683 991,686 				"/>
				<polygon class="st22" points="996.3,686 995.3,683 1000,683 1001,686 				"/>
				<polygon class="st22" points="1006.3,686 1011,686 1009.8,683 1005.1,683 				"/>
			</g>
		</g>
		<path class="st2" d="M1053.7,698.5L1053.7,698.5c-0.3,0.1-0.5,0.1-0.6,0l-1.7-2.2c-0.1-0.2,0-0.4,0.3-0.6l0,0
			c0.3-0.1,0.5-0.1,0.6,0.1l1.7,2.2C1054,698.1,1053.9,698.4,1053.7,698.5z"/>
		<path class="st43" d="M1055.6,712.3L1055.6,712.3c-4.1,0.7-7.9-1.6-8.4-5l-2.3-5.7c-1.8-3.6-0.3-6.4,3.8-7l4.4,3.8l0.9-0.2l-3-4.3
			c4.1-0.7,6.8,1.8,8.7,5.2l2.3,5.7C1062.5,708.3,1059.7,711.6,1055.6,712.3z"/>
		<path class="st21" d="M1056.2,711.9L1056.2,711.9c-4.1,0.7-7.9-1.6-8.4-5l-2.3-5.7c-1.8-3.6-0.3-6.4,3.8-7l3.8,4.2l1.1-0.2l-3-4.3
			c4.1-0.7,7.3,1.5,9.1,4.9l2.3,5.7C1063.1,707.9,1060.2,711.2,1056.2,711.9z"/>
		<path class="st13" d="M1048.1,691.2"/>
		<rect x="1749.2" y="280.9" class="st43" width="4.9" height="154.1"/>
		
			<rect x="1724.7" y="261.4" transform="matrix(-1.836970e-16 1 -1 -1.836970e-16 2010.5864 -1443.7614)" class="st43" width="4.9" height="44.1"/>
		<path class="st2" d="M1670.3,331.5l18.3,9.6c8.8,4.6,18.8,2.9,22.2-3.7l3.1-42.9c3-5.7,2.6-11.8-0.9-13.6l-7.2-3.8
			c-3.5-1.8-8.7,1.4-11.7,7l-33.5,27.1C1657.2,317.8,1661.5,326.9,1670.3,331.5z"/>
	</g>
</g>
</svg>
