<?xml version="1.0" encoding="utf-8"?>
<!-- Generator: Adobe Illustrator 20.1.0, SVG Export Plug-In . SVG Version: 6.00 Build 0)  -->
<svg version="1.1" id="Layer_1" xmlns="http://www.w3.org/2000/svg" xmlns:xlink="http://www.w3.org/1999/xlink" x="0px" y="0px"
	 viewBox="0 0 1920 1080" style="enable-background:new 0 0 1920 1080;" xml:space="preserve">
<style type="text/css">
	.st0{fill:#787878;}
	.st1{fill:#4F5051;}
	.st2{fill:#231F20;}
	.st3{fill:#332F2F;}
</style>
<g>
	<path class="st0" d="M1185.7,689.6H735.6c-2.2,0-4-1.8-4-4V406.7c0-2.2,1.8-4,4-4h450.1c2.2,0,4,1.8,4,4v278.9
		C1189.7,687.8,1187.9,689.6,1185.7,689.6z"/>
	<path class="st1" d="M1189.7,532.8V682c0,4.2-3.4,7.6-7.6,7.6H739.3c-4.2,0-7.6-3.4-7.6-7.6V532.8H1189.7z"/>
	<rect x="749.4" y="416" class="st2" width="424.4" height="242.4"/>
	<polygon class="st3" points="749.4,416 749.4,658.3 991.7,416 	"/>
</g>
<g>
	<path class="st0" d="M1675.7,689.6h-469.4c-4.2,0-7.7-3.4-7.7-7.6V410.3c0-4.2,3.4-7.6,7.7-7.6l469.4-16.9c4.2,0,7.7,3.4,7.7,7.6
		V682C1683.4,686.2,1680,689.6,1675.7,689.6z"/>
	<path class="st1" d="M1683.4,532.8v155.4c0,4.2-3.6,7.6-8.1,7.6l-468.6-6.2c-4.5,0-8.1-3.4-8.1-7.6V532.8H1683.4z"/>
	<polygon class="st2" points="1666.7,662.6 1220.2,658.4 1220.2,416 1666.7,402.7 	"/>
	<polygon class="st3" points="1220.2,416 1220.2,658.3 1475.1,416 	"/>
</g>
<g>
	<path class="st0" d="M245.6,689.2H715c4.2,0,7.7-3.4,7.7-7.6V409.9c0-4.2-3.4-7.6-7.7-7.6l-469.4-16.9c-4.2,0-7.7,3.4-7.7,7.6
		v288.6C237.9,685.8,241.4,689.2,245.6,689.2z"/>
	<path class="st1" d="M237.9,532.4v155.4c0,4.2,3.6,7.6,8.1,7.6l468.6-6.2c4.5,0,8.1-3.4,8.1-7.6V532.4H237.9z"/>
	<polygon class="st2" points="257.1,665 703.5,661.6 703.5,413.2 257.1,399.8 	"/>
	<polygon class="st3" points="257.1,399.8 257.1,657.9 511.9,407.5 	"/>
</g>
<rect x="1189.7" y="521.3" class="st2" width="8.9" height="23.2"/>
<rect x="722.7" y="521.3" class="st2" width="8.9" height="23.2"/>
</svg>
